<?xml version="1.0" standalone="no"?>
<!DOCTYPE svg PUBLIC "-//W3C//DTD SVG 20010904//EN"
 "http://www.w3.org/TR/2001/REC-SVG-20010904/DTD/svg10.dtd">
<svg version="1.0" xmlns="http://www.w3.org/2000/svg"
 width="909.000000pt" height="377.000000pt" viewBox="0 0 909.000000 377.000000"
 preserveAspectRatio="xMidYMid meet">

<g transform="translate(0.000000,377.000000) scale(0.100000,-0.100000)"
fill="#000000" stroke="none">
<path d="M0 1885 l0 -1885 4545 0 4545 0 0 1885 0 1885 -4545 0 -4545 0 0
-1885z m123 1838 c-7 -2 -21 -2 -30 0 -10 3 -4 5 12 5 17 0 24 -2 18 -5z m90
0 c-7 -2 -21 -2 -30 0 -10 3 -4 5 12 5 17 0 24 -2 18 -5z m90 0 c-7 -2 -21 -2
-30 0 -10 3 -4 5 12 5 17 0 24 -2 18 -5z m90 0 c-7 -2 -21 -2 -30 0 -10 3 -4
5 12 5 17 0 24 -2 18 -5z m90 0 c-7 -2 -21 -2 -30 0 -10 3 -4 5 12 5 17 0 24
-2 18 -5z m90 0 c-7 -2 -21 -2 -30 0 -10 3 -4 5 12 5 17 0 24 -2 18 -5z m90 0
c-7 -2 -21 -2 -30 0 -10 3 -4 5 12 5 17 0 24 -2 18 -5z m90 0 c-7 -2 -21 -2
-30 0 -10 3 -4 5 12 5 17 0 24 -2 18 -5z m90 0 c-7 -2 -21 -2 -30 0 -10 3 -4
5 12 5 17 0 24 -2 18 -5z m90 0 c-7 -2 -21 -2 -30 0 -10 3 -4 5 12 5 17 0 24
-2 18 -5z m90 0 c-7 -2 -21 -2 -30 0 -10 3 -4 5 12 5 17 0 24 -2 18 -5z m90 0
c-7 -2 -21 -2 -30 0 -10 3 -4 5 12 5 17 0 24 -2 18 -5z m90 0 c-7 -2 -21 -2
-30 0 -10 3 -4 5 12 5 17 0 24 -2 18 -5z m90 0 c-7 -2 -21 -2 -30 0 -10 3 -4
5 12 5 17 0 24 -2 18 -5z m90 0 c-7 -2 -21 -2 -30 0 -10 3 -4 5 12 5 17 0 24
-2 18 -5z m90 0 c-7 -2 -21 -2 -30 0 -10 3 -4 5 12 5 17 0 24 -2 18 -5z m90 0
c-7 -2 -21 -2 -30 0 -10 3 -4 5 12 5 17 0 24 -2 18 -5z m90 0 c-7 -2 -21 -2
-30 0 -10 3 -4 5 12 5 17 0 24 -2 18 -5z m90 0 c-7 -2 -21 -2 -30 0 -10 3 -4
5 12 5 17 0 24 -2 18 -5z m90 0 c-7 -2 -21 -2 -30 0 -10 3 -4 5 12 5 17 0 24
-2 18 -5z m90 0 c-7 -2 -21 -2 -30 0 -10 3 -4 5 12 5 17 0 24 -2 18 -5z m90 0
c-7 -2 -21 -2 -30 0 -10 3 -4 5 12 5 17 0 24 -2 18 -5z m90 0 c-7 -2 -21 -2
-30 0 -10 3 -4 5 12 5 17 0 24 -2 18 -5z m90 0 c-7 -2 -21 -2 -30 0 -10 3 -4
5 12 5 17 0 24 -2 18 -5z m90 0 c-7 -2 -21 -2 -30 0 -10 3 -4 5 12 5 17 0 24
-2 18 -5z m90 0 c-7 -2 -21 -2 -30 0 -10 3 -4 5 12 5 17 0 24 -2 18 -5z m90 0
c-7 -2 -21 -2 -30 0 -10 3 -4 5 12 5 17 0 24 -2 18 -5z m90 0 c-7 -2 -21 -2
-30 0 -10 3 -4 5 12 5 17 0 24 -2 18 -5z m90 0 c-7 -2 -21 -2 -30 0 -10 3 -4
5 12 5 17 0 24 -2 18 -5z m90 0 c-7 -2 -21 -2 -30 0 -10 3 -4 5 12 5 17 0 24
-2 18 -5z m90 0 c-7 -2 -21 -2 -30 0 -10 3 -4 5 12 5 17 0 24 -2 18 -5z m90 0
c-7 -2 -21 -2 -30 0 -10 3 -4 5 12 5 17 0 24 -2 18 -5z m90 0 c-7 -2 -21 -2
-30 0 -10 3 -4 5 12 5 17 0 24 -2 18 -5z m90 0 c-7 -2 -21 -2 -30 0 -10 3 -4
5 12 5 17 0 24 -2 18 -5z m90 0 c-7 -2 -21 -2 -30 0 -10 3 -4 5 12 5 17 0 24
-2 18 -5z m90 0 c-7 -2 -21 -2 -30 0 -10 3 -4 5 12 5 17 0 24 -2 18 -5z m90 0
c-7 -2 -21 -2 -30 0 -10 3 -4 5 12 5 17 0 24 -2 18 -5z m90 0 c-7 -2 -21 -2
-30 0 -10 3 -4 5 12 5 17 0 24 -2 18 -5z m90 0 c-7 -2 -21 -2 -30 0 -10 3 -4
5 12 5 17 0 24 -2 18 -5z m90 0 c-7 -2 -21 -2 -30 0 -10 3 -4 5 12 5 17 0 24
-2 18 -5z m90 0 c-7 -2 -21 -2 -30 0 -10 3 -4 5 12 5 17 0 24 -2 18 -5z m90 0
c-7 -2 -21 -2 -30 0 -10 3 -4 5 12 5 17 0 24 -2 18 -5z m90 0 c-7 -2 -21 -2
-30 0 -10 3 -4 5 12 5 17 0 24 -2 18 -5z m90 0 c-7 -2 -21 -2 -30 0 -10 3 -4
5 12 5 17 0 24 -2 18 -5z m90 0 c-7 -2 -21 -2 -30 0 -10 3 -4 5 12 5 17 0 24
-2 18 -5z m90 0 c-7 -2 -21 -2 -30 0 -10 3 -4 5 12 5 17 0 24 -2 18 -5z m90 0
c-7 -2 -21 -2 -30 0 -10 3 -4 5 12 5 17 0 24 -2 18 -5z m90 0 c-7 -2 -21 -2
-30 0 -10 3 -4 5 12 5 17 0 24 -2 18 -5z m90 0 c-7 -2 -21 -2 -30 0 -10 3 -4
5 12 5 17 0 24 -2 18 -5z m90 0 c-7 -2 -21 -2 -30 0 -10 3 -4 5 12 5 17 0 24
-2 18 -5z m-4410 -400 c-7 -2 -21 -2 -30 0 -10 3 -4 5 12 5 17 0 24 -2 18 -5z
m90 0 c-7 -2 -21 -2 -30 0 -10 3 -4 5 12 5 17 0 24 -2 18 -5z m90 0 c-7 -2
-21 -2 -30 0 -10 3 -4 5 12 5 17 0 24 -2 18 -5z m90 0 c-7 -2 -21 -2 -30 0
-10 3 -4 5 12 5 17 0 24 -2 18 -5z m90 0 c-7 -2 -21 -2 -30 0 -10 3 -4 5 12 5
17 0 24 -2 18 -5z m90 0 c-7 -2 -21 -2 -30 0 -10 3 -4 5 12 5 17 0 24 -2 18
-5z m90 0 c-7 -2 -21 -2 -30 0 -10 3 -4 5 12 5 17 0 24 -2 18 -5z m90 0 c-7
-2 -21 -2 -30 0 -10 3 -4 5 12 5 17 0 24 -2 18 -5z m90 0 c-7 -2 -21 -2 -30 0
-10 3 -4 5 12 5 17 0 24 -2 18 -5z m90 0 c-7 -2 -21 -2 -30 0 -10 3 -4 5 12 5
17 0 24 -2 18 -5z m90 0 c-7 -2 -21 -2 -30 0 -10 3 -4 5 12 5 17 0 24 -2 18
-5z m90 0 c-7 -2 -21 -2 -30 0 -10 3 -4 5 12 5 17 0 24 -2 18 -5z m90 0 c-7
-2 -21 -2 -30 0 -10 3 -4 5 12 5 17 0 24 -2 18 -5z m90 0 c-7 -2 -21 -2 -30 0
-10 3 -4 5 12 5 17 0 24 -2 18 -5z m90 0 c-7 -2 -21 -2 -30 0 -10 3 -4 5 12 5
17 0 24 -2 18 -5z m90 0 c-7 -2 -21 -2 -30 0 -10 3 -4 5 12 5 17 0 24 -2 18
-5z m90 0 c-7 -2 -21 -2 -30 0 -10 3 -4 5 12 5 17 0 24 -2 18 -5z m90 0 c-7
-2 -21 -2 -30 0 -10 3 -4 5 12 5 17 0 24 -2 18 -5z m90 0 c-7 -2 -21 -2 -30 0
-10 3 -4 5 12 5 17 0 24 -2 18 -5z m90 0 c-7 -2 -21 -2 -30 0 -10 3 -4 5 12 5
17 0 24 -2 18 -5z m90 0 c-7 -2 -21 -2 -30 0 -10 3 -4 5 12 5 17 0 24 -2 18
-5z m90 0 c-7 -2 -21 -2 -30 0 -10 3 -4 5 12 5 17 0 24 -2 18 -5z m90 0 c-7
-2 -21 -2 -30 0 -10 3 -4 5 12 5 17 0 24 -2 18 -5z m90 0 c-7 -2 -21 -2 -30 0
-10 3 -4 5 12 5 17 0 24 -2 18 -5z m90 0 c-7 -2 -21 -2 -30 0 -10 3 -4 5 12 5
17 0 24 -2 18 -5z m90 0 c-7 -2 -21 -2 -30 0 -10 3 -4 5 12 5 17 0 24 -2 18
-5z m90 0 c-7 -2 -21 -2 -30 0 -10 3 -4 5 12 5 17 0 24 -2 18 -5z m90 0 c-7
-2 -21 -2 -30 0 -10 3 -4 5 12 5 17 0 24 -2 18 -5z m90 0 c-7 -2 -21 -2 -30 0
-10 3 -4 5 12 5 17 0 24 -2 18 -5z m90 0 c-7 -2 -21 -2 -30 0 -10 3 -4 5 12 5
17 0 24 -2 18 -5z m90 0 c-7 -2 -21 -2 -30 0 -10 3 -4 5 12 5 17 0 24 -2 18
-5z m90 0 c-7 -2 -21 -2 -30 0 -10 3 -4 5 12 5 17 0 24 -2 18 -5z m90 0 c-7
-2 -21 -2 -30 0 -10 3 -4 5 12 5 17 0 24 -2 18 -5z m90 0 c-7 -2 -21 -2 -30 0
-10 3 -4 5 12 5 17 0 24 -2 18 -5z m90 0 c-7 -2 -21 -2 -30 0 -10 3 -4 5 12 5
17 0 24 -2 18 -5z m90 0 c-7 -2 -21 -2 -30 0 -10 3 -4 5 12 5 17 0 24 -2 18
-5z m90 0 c-7 -2 -21 -2 -30 0 -10 3 -4 5 12 5 17 0 24 -2 18 -5z m90 0 c-7
-2 -21 -2 -30 0 -10 3 -4 5 12 5 17 0 24 -2 18 -5z m90 0 c-7 -2 -21 -2 -30 0
-10 3 -4 5 12 5 17 0 24 -2 18 -5z m90 0 c-7 -2 -21 -2 -30 0 -10 3 -4 5 12 5
17 0 24 -2 18 -5z m90 0 c-7 -2 -21 -2 -30 0 -10 3 -4 5 12 5 17 0 24 -2 18
-5z m90 0 c-7 -2 -21 -2 -30 0 -10 3 -4 5 12 5 17 0 24 -2 18 -5z m90 0 c-7
-2 -21 -2 -30 0 -10 3 -4 5 12 5 17 0 24 -2 18 -5z m90 0 c-7 -2 -21 -2 -30 0
-10 3 -4 5 12 5 17 0 24 -2 18 -5z m90 0 c-7 -2 -21 -2 -30 0 -10 3 -4 5 12 5
17 0 24 -2 18 -5z m90 0 c-7 -2 -21 -2 -30 0 -10 3 -4 5 12 5 17 0 24 -2 18
-5z m90 0 c-7 -2 -21 -2 -30 0 -10 3 -4 5 12 5 17 0 24 -2 18 -5z m90 0 c-7
-2 -21 -2 -30 0 -10 3 -4 5 12 5 17 0 24 -2 18 -5z m90 0 c-7 -2 -21 -2 -30 0
-10 3 -4 5 12 5 17 0 24 -2 18 -5z m90 0 c-7 -2 -21 -2 -30 0 -10 3 -4 5 12 5
17 0 24 -2 18 -5z m-3518 -168 c16 0 20 -7 22 -40 l1 -40 -6 35 c-4 22 -13 35
-22 35 -9 0 -17 -13 -21 -35 -5 -26 -6 -18 -7 30 0 38 3 54 7 40 4 -16 13 -25
26 -25z m448 -17 c-13 -35 -29 -67 -34 -73 -6 -5 -3 7 5 28 9 20 23 53 30 72
8 19 17 35 20 35 2 0 -7 -28 -21 -62z m90 0 c-13 -35 -29 -67 -34 -73 -6 -5
-3 7 5 28 9 20 23 53 30 72 8 19 17 35 20 35 2 0 -7 -28 -21 -62z m452 17 c16
0 20 -7 22 -40 l1 -40 -6 35 c-4 22 -13 35 -22 35 -9 0 -17 -13 -21 -35 -5
-26 -6 -18 -7 30 0 38 3 54 7 40 4 -16 13 -25 26 -25z m185 -9 c0 -34 5 -56
13 -59 6 -3 -4 -5 -23 -5 -19 0 -29 2 -22 5 7 3 12 24 12 53 0 29 -5 50 -12
53 -7 3 -3 6 10 6 20 1 22 -3 22 -53z m360 44 c0 -5 -4 -10 -10 -10 -5 0 -10
5 -10 10 0 6 5 10 10 10 6 0 10 -4 10 -10z m540 0 c0 -5 -4 -10 -10 -10 -5 0
-10 5 -10 10 0 6 5 10 10 10 6 0 10 -4 10 -10z m-2777 -7 c-20 -4 -23 -11 -25
-56 l-2 -52 -3 52 c-3 38 -8 53 -21 56 -9 3 3 5 28 4 25 0 35 -2 23 -4z m440
-24 c22 -2 22 -2 0 -6 -17 -3 -23 -11 -23 -29 0 -16 8 -28 23 -34 22 -10 22
-10 -3 -7 -20 1 -26 8 -28 32 -2 16 -9 33 -15 37 -9 6 -9 8 1 8 6 0 13 8 13
18 1 16 2 16 6 0 2 -10 14 -19 26 -19z m360 0 c22 -2 22 -2 0 -6 -17 -3 -23
-11 -23 -29 0 -16 8 -28 23 -34 22 -10 22 -10 -3 -7 -20 1 -26 8 -28 32 -2 16
-9 33 -15 37 -9 6 -9 8 1 8 6 0 13 8 13 18 1 16 2 16 6 0 2 -10 14 -19 26 -19z
m90 0 c22 -2 22 -2 0 -6 -17 -3 -23 -11 -23 -29 0 -16 8 -28 23 -34 22 -10 22
-10 -3 -7 -20 1 -26 8 -28 32 -2 16 -9 33 -15 37 -9 6 -9 8 1 8 6 0 13 8 13
18 1 16 2 16 6 0 2 -10 14 -19 26 -19z m-795 -39 c3 -32 0 -36 -24 -38 -15 -1
-31 3 -35 10 -10 16 9 38 33 38 11 0 16 4 12 11 -3 6 -15 9 -25 6 -11 -3 -16
-1 -13 5 3 5 16 8 27 6 17 -2 23 -11 25 -38z m92 23 c0 -14 -2 -15 -9 -4 -14
22 -39 5 -44 -31 -4 -31 -4 -30 -5 7 -2 38 0 41 28 43 23 2 30 -2 30 -15z m88
-8 c-7 -17 -19 -25 -35 -25 -14 0 -21 -4 -18 -10 3 -5 17 -10 30 -10 13 0 26
-4 29 -9 9 -14 -21 -33 -46 -29 -20 3 -23 8 -22 40 2 56 10 68 43 68 29 0 30
-1 19 -25z m90 3 c3 -14 -3 -18 -27 -18 -23 0 -29 -4 -25 -15 4 -8 18 -16 33
-16 24 -2 24 -2 3 -6 -42 -8 -69 36 -40 65 17 17 52 11 56 -10z m162 12 c0 -5
-4 -10 -10 -10 -5 0 -10 5 -10 10 0 6 5 10 10 10 6 0 10 -4 10 -10z m468 -27
c3 -27 -1 -33 -22 -39 -14 -3 -27 -13 -29 -22 -3 -10 -5 8 -6 39 -1 55 0 56
27 55 23 -1 27 -6 30 -33z m72 27 c0 -5 -4 -10 -10 -10 -5 0 -10 5 -10 10 0 6
5 10 10 10 6 0 10 -4 10 -10z m288 -27 c3 -27 -1 -33 -22 -39 -14 -3 -27 -13
-29 -22 -3 -10 -5 8 -6 39 -1 55 0 56 27 55 23 -1 27 -6 30 -33z m65 30 c-30
-6 -29 -17 3 -32 33 -14 26 -35 -12 -38 -18 -1 -21 0 -9 4 34 9 39 22 11 29
-40 10 -33 45 8 43 19 -2 19 -2 -1 -6z m71 -25 l13 -33 16 35 c8 19 16 28 16
20 1 -22 -42 -93 -59 -98 -10 -3 -9 0 3 10 18 13 18 16 3 52 -17 42 -18 46
-11 46 3 0 11 -15 19 -32z m109 22 c-14 -6 -23 -18 -23 -30 0 -12 10 -25 23
-30 22 -10 22 -10 -3 -7 -19 1 -26 8 -28 31 -4 29 10 46 38 45 8 0 5 -4 -7 -9z
m202 -30 c0 -38 -24 -52 -50 -30 -31 25 -9 73 30 68 16 -2 20 -11 20 -38z
m180 0 c0 -38 -24 -52 -50 -30 -31 25 -9 73 30 68 16 -2 20 -11 20 -38z m93
15 c-7 -17 -19 -25 -35 -25 -14 0 -21 -4 -18 -10 3 -5 17 -10 30 -10 13 0 26
-4 29 -9 9 -14 -21 -33 -46 -29 -20 3 -23 8 -22 40 2 56 10 68 43 68 29 0 30
-1 19 -25z m46 -7 l13 -33 16 35 c8 19 16 28 16 20 1 -22 -42 -93 -59 -98 -10
-3 -9 0 3 10 18 13 18 16 3 52 -17 42 -18 46 -11 46 3 0 11 -15 19 -32z m116
-2 c0 -19 6 -37 13 -39 6 -3 -4 -5 -23 -5 -19 0 -29 2 -22 5 6 2 12 17 12 33
0 16 -6 31 -12 33 -7 3 -3 6 10 6 19 1 22 -4 22 -33z m107 -11 l1 -40 -6 35
c-4 22 -13 35 -22 35 -9 0 -17 -13 -21 -35 l-6 -35 -2 41 c-1 39 1 41 27 40
24 -1 27 -5 29 -41z m93 28 c0 -14 -2 -15 -9 -4 -14 22 -39 5 -44 -31 -4 -31
-4 -30 -5 7 -2 38 0 41 28 43 23 2 30 -2 30 -15z m58 -51 c11 2 19 17 23 38
l6 35 2 -40 c1 -38 -1 -41 -29 -43 -29 -2 -30 -1 -28 40 l1 43 4 -38 c3 -29 8
-37 21 -35z m95 61 c-30 -6 -29 -17 3 -32 33 -14 26 -35 -12 -38 -18 -1 -21 0
-9 4 34 9 39 22 11 29 -40 10 -33 45 8 43 19 -2 19 -2 -1 -6z m90 0 c-30 -6
-29 -17 3 -32 33 -14 26 -35 -12 -38 -18 -1 -21 0 -9 4 34 9 39 22 11 29 -40
10 -33 45 8 43 19 -2 19 -2 -1 -6z m97 -27 c0 -19 6 -37 13 -39 6 -3 -4 -5
-23 -5 -19 0 -29 2 -22 5 6 2 12 17 12 33 0 16 -6 31 -12 33 -7 3 -3 6 10 6
19 1 22 -4 22 -33z m108 -6 c3 -32 0 -36 -24 -38 -15 -1 -31 3 -35 10 -10 16
9 38 33 38 11 0 16 4 12 11 -3 6 -15 9 -25 6 -11 -3 -16 -1 -13 5 3 5 16 8 27
6 17 -2 23 -11 25 -38z m155 30 c-14 -6 -23 -18 -23 -30 0 -12 10 -25 23 -30
22 -10 22 -10 -3 -7 -19 1 -26 8 -28 31 -4 29 10 46 38 45 8 0 5 -4 -7 -9z
m112 -30 c0 -38 -24 -52 -50 -30 -31 25 -9 73 30 68 16 -2 20 -11 20 -38z m69
32 c2 -4 1 -23 -4 -42 l-8 -35 -1 40 c-1 44 -17 38 -24 -10 -3 -25 -4 -23 -6
10 -1 34 2 41 19 42 11 1 22 -1 24 -5z m34 -35 c2 -20 -1 -37 -6 -37 -6 0 -12
18 -14 40 -2 25 0 39 7 37 5 -2 11 -20 13 -40z m-2728 -27 c0 -5 -4 -10 -10
-10 -5 0 -10 5 -10 10 0 6 5 10 10 10 6 0 10 -4 10 -10z m540 0 c0 -5 -4 -10
-10 -10 -5 0 -10 5 -10 10 0 6 5 10 10 10 6 0 10 -4 10 -10z m1890 0 c0 -5 -4
-10 -10 -10 -5 0 -10 5 -10 10 0 6 5 10 10 10 6 0 10 -4 10 -10z m-3163 -127
c0 -21 -2 -32 -5 -25 -2 6 -8 10 -13 6 -5 -3 -9 0 -9 5 0 6 6 11 13 12 10 0
10 2 0 6 -7 2 -13 9 -13 14 0 6 5 7 10 4 6 -3 10 -1 10 4 0 6 2 11 3 11 2 0 4
-17 4 -37z m90 0 c0 -21 -2 -32 -5 -25 -2 6 -8 10 -13 6 -5 -3 -9 0 -9 5 0 6
6 11 13 12 10 0 10 2 0 6 -7 2 -13 9 -13 14 0 6 5 7 10 4 6 -3 10 -1 10 4 0 6
2 11 3 11 2 0 4 -17 4 -37z m90 0 c0 -21 -2 -32 -5 -25 -2 6 -8 10 -13 6 -5
-3 -9 0 -9 5 0 6 6 11 13 12 10 0 10 2 0 6 -7 2 -13 9 -13 14 0 6 5 7 10 4 6
-3 10 -1 10 4 0 6 2 11 3 11 2 0 4 -17 4 -37z m90 0 c0 -21 -2 -32 -5 -25 -2
6 -8 10 -13 6 -5 -3 -9 0 -9 5 0 6 6 11 13 12 10 0 10 2 0 6 -7 2 -13 9 -13
14 0 6 5 7 10 4 6 -3 10 -1 10 4 0 6 2 11 3 11 2 0 4 -17 4 -37z m90 0 c0 -21
-2 -32 -5 -25 -2 6 -8 10 -13 6 -5 -3 -9 0 -9 5 0 6 6 11 13 12 10 0 10 2 0 6
-7 2 -13 9 -13 14 0 6 5 7 10 4 6 -3 10 -1 10 4 0 6 2 11 3 11 2 0 4 -17 4
-37z m114 21 c8 4 6 1 -3 -6 -15 -13 -15 -15 0 -26 9 -7 11 -10 3 -6 -7 4 -17
0 -22 -7 -7 -11 -9 -11 -9 -1 0 7 -4 10 -10 7 -5 -3 -10 -1 -10 5 0 7 6 10 13
7 8 -3 14 1 14 8 0 7 -6 11 -14 8 -7 -3 -13 0 -13 7 0 6 5 8 10 5 6 -3 10 0
10 7 0 10 2 10 9 -1 5 -7 15 -10 22 -7z m88 -32 c9 -7 10 -10 2 -6 -7 3 -17 0
-22 -7 -7 -11 -9 -11 -9 -1 0 7 -4 10 -10 7 -5 -3 -10 -1 -10 4 0 6 6 11 13
12 10 0 10 2 0 6 -7 2 -13 9 -13 14 0 6 5 7 10 4 6 -3 11 0 11 7 1 7 4 4 6 -7
3 -11 13 -26 22 -33z m68 11 c0 -21 -2 -32 -5 -25 -2 6 -8 10 -13 6 -5 -3 -9
0 -9 5 0 6 6 11 13 12 10 0 10 2 0 6 -7 2 -13 9 -13 14 0 6 5 7 10 4 6 -3 10
-1 10 4 0 6 2 11 3 11 2 0 4 -17 4 -37z m114 21 c8 4 6 1 -3 -6 -15 -13 -15
-15 0 -26 9 -7 11 -10 3 -6 -7 4 -17 0 -22 -7 -7 -11 -9 -11 -9 -1 0 7 -4 10
-10 7 -5 -3 -10 -1 -10 5 0 7 6 10 13 7 8 -3 14 1 14 8 0 7 -6 11 -14 8 -7 -3
-13 0 -13 7 0 6 5 8 10 5 6 -3 10 0 10 7 0 10 2 10 9 -1 5 -7 15 -10 22 -7z
m90 0 c8 4 6 1 -4 -8 -19 -15 -47 -12 -47 6 0 5 5 6 10 3 6 -3 10 0 10 7 0 10
2 10 9 -1 5 -7 15 -10 22 -7z m90 0 c8 4 6 1 -4 -8 -19 -15 -47 -12 -47 6 0 5
5 6 10 3 6 -3 10 0 10 7 0 10 2 10 9 -1 5 -7 15 -10 22 -7z m66 -21 c0 -21 -2
-32 -5 -25 -2 6 -8 10 -13 6 -5 -3 -9 0 -9 5 0 6 6 11 13 12 10 0 10 2 0 6 -7
2 -13 9 -13 14 0 6 5 7 10 4 6 -3 10 -1 10 4 0 6 2 11 3 11 2 0 4 -17 4 -37z
m114 21 c8 4 5 0 -6 -9 -11 -9 -19 -24 -18 -33 1 -10 0 -11 -3 -4 -3 6 -10 10
-15 6 -5 -3 -9 0 -9 5 0 6 6 11 13 12 10 0 10 2 0 6 -7 2 -13 9 -13 14 0 6 5
7 10 4 6 -3 10 0 10 7 0 10 2 10 9 -1 5 -7 15 -10 22 -7z m66 -21 c0 -21 -2
-32 -5 -25 -2 6 -8 10 -13 6 -5 -3 -9 0 -9 5 0 6 6 11 13 12 10 0 10 2 0 6 -7
2 -13 9 -13 14 0 6 5 7 10 4 6 -3 10 -1 10 4 0 6 2 11 3 11 2 0 4 -17 4 -37z
m90 0 c0 -21 -2 -32 -5 -25 -2 6 -8 10 -13 6 -5 -3 -9 0 -9 5 0 6 6 11 13 12
10 0 10 2 0 6 -7 2 -13 9 -13 14 0 6 5 7 10 4 6 -3 10 -1 10 4 0 6 2 11 3 11
2 0 4 -17 4 -37z m90 0 c0 -21 -2 -32 -5 -25 -2 6 -8 10 -13 6 -5 -3 -9 0 -9
5 0 6 6 11 13 12 10 0 10 2 0 6 -7 2 -13 9 -13 14 0 6 5 7 10 4 6 -3 10 -1 10
4 0 6 2 11 3 11 2 0 4 -17 4 -37z m90 0 c0 -21 -2 -32 -5 -25 -2 6 -8 10 -13
6 -5 -3 -9 0 -9 5 0 6 6 11 13 12 10 0 10 2 0 6 -7 2 -13 9 -13 14 0 6 5 7 10
4 6 -3 10 -1 10 4 0 6 2 11 3 11 2 0 4 -17 4 -37z m90 0 c0 -21 -2 -32 -5 -25
-2 6 -8 10 -13 6 -5 -3 -9 0 -9 5 0 6 6 11 13 12 10 0 10 2 0 6 -7 2 -13 9
-13 14 0 6 5 7 10 4 6 -3 10 -1 10 4 0 6 2 11 3 11 2 0 4 -17 4 -37z m90 0 c0
-21 -2 -32 -5 -25 -2 6 -8 10 -13 6 -5 -3 -9 0 -9 5 0 6 6 11 13 12 10 0 10 2
0 6 -7 2 -13 9 -13 14 0 6 5 7 10 4 6 -3 10 -1 10 4 0 6 2 11 3 11 2 0 4 -17
4 -37z m90 0 c0 -21 -2 -32 -5 -25 -2 6 -8 10 -13 6 -5 -3 -9 0 -9 5 0 6 6 11
13 12 10 0 10 2 0 6 -7 2 -13 9 -13 14 0 6 5 7 10 4 6 -3 10 -1 10 4 0 6 2 11
3 11 2 0 4 -17 4 -37z m90 0 c0 -21 -2 -32 -5 -25 -2 6 -8 10 -13 6 -5 -3 -9
0 -9 5 0 6 6 11 13 12 10 0 10 2 0 6 -7 2 -13 9 -13 14 0 6 5 7 10 4 6 -3 10
-1 10 4 0 6 2 11 3 11 2 0 4 -17 4 -37z m90 0 c0 -21 -2 -32 -5 -25 -2 6 -8
10 -13 6 -5 -3 -9 0 -9 5 0 6 6 11 13 12 10 0 10 2 0 6 -7 2 -13 9 -13 14 0 6
5 7 10 4 6 -3 10 -1 10 4 0 6 2 11 3 11 2 0 4 -17 4 -37z m92 0 c0 -21 -3 -32
-6 -25 -2 6 -9 10 -14 6 -5 -3 -9 0 -9 5 0 6 6 11 13 12 10 0 10 2 0 6 -7 2
-13 9 -13 14 0 6 5 7 10 4 6 -3 10 -1 10 4 0 6 2 11 5 11 3 0 5 -17 4 -37z
m112 21 c8 4 6 1 -4 -8 -19 -15 -47 -12 -47 6 0 5 5 6 10 3 6 -3 10 0 10 7 0
10 2 10 9 -1 5 -7 15 -10 22 -7z m66 -21 c0 -21 -2 -32 -5 -25 -2 6 -8 10 -13
6 -5 -3 -9 0 -9 5 0 6 6 11 13 12 10 0 10 2 0 6 -7 2 -13 9 -13 14 0 6 5 7 10
4 6 -3 10 -1 10 4 0 6 2 11 3 11 2 0 4 -17 4 -37z m90 0 c0 -21 -2 -32 -5 -25
-2 6 -8 10 -13 6 -5 -3 -9 0 -9 5 0 6 6 11 13 12 10 0 10 2 0 6 -7 2 -13 9
-13 14 0 6 5 7 10 4 6 -3 10 -1 10 4 0 6 2 11 3 11 2 0 4 -17 4 -37z m90 0 c0
-21 -2 -32 -5 -25 -2 6 -8 10 -13 6 -5 -3 -9 0 -9 5 0 6 6 11 13 12 10 0 10 2
0 6 -7 2 -13 9 -13 14 0 6 5 7 10 4 6 -3 10 -1 10 4 0 6 2 11 3 11 2 0 4 -17
4 -37z m90 0 c0 -21 -2 -32 -5 -25 -2 6 -8 10 -13 6 -5 -3 -9 0 -9 5 0 6 6 11
13 12 10 0 10 2 0 6 -7 2 -13 9 -13 14 0 6 5 7 10 4 6 -3 10 -1 10 4 0 6 2 11
3 11 2 0 4 -17 4 -37z m91 23 c-2 -8 6 -22 17 -31 11 -9 14 -13 6 -9 -7 3 -17
0 -22 -7 -7 -11 -9 -11 -9 -1 0 7 -4 10 -10 7 -5 -3 -10 -1 -10 4 0 6 6 11 13
12 10 0 10 2 0 6 -7 2 -13 9 -13 14 0 6 5 7 10 4 6 -3 10 -1 10 4 0 6 2 11 5
11 3 0 5 -6 3 -14z m87 -5 c-8 -14 -25 -14 -25 0 0 5 5 7 10 4 6 -3 10 -1 10
6 0 7 3 10 6 6 3 -3 3 -10 -1 -16z m92 -18 c0 -21 -2 -32 -5 -25 -2 6 -8 10
-13 6 -5 -3 -9 0 -9 5 0 6 6 11 13 12 10 0 10 2 0 6 -7 2 -13 9 -13 14 0 6 5
7 10 4 6 -3 10 -1 10 4 0 6 2 11 3 11 2 0 4 -17 4 -37z m90 0 c0 -21 -2 -32
-5 -25 -2 6 -8 10 -13 6 -5 -3 -9 0 -9 5 0 6 6 11 13 12 10 0 10 2 0 6 -7 2
-13 9 -13 14 0 6 5 7 10 4 6 -3 10 -1 10 4 0 6 2 11 3 11 2 0 4 -17 4 -37z
m90 0 c0 -21 -2 -32 -5 -25 -2 6 -8 10 -13 6 -5 -3 -9 0 -9 5 0 6 6 11 13 12
10 0 10 2 0 6 -7 2 -13 9 -13 14 0 6 5 7 10 4 6 -3 10 -1 10 4 0 6 2 11 3 11
2 0 4 -17 4 -37z m90 0 c0 -21 -2 -32 -5 -25 -2 6 -8 10 -13 6 -5 -3 -9 0 -9
5 0 6 6 11 13 12 10 0 10 2 0 6 -7 2 -13 9 -13 14 0 6 5 7 10 4 6 -3 10 -1 10
4 0 6 2 11 3 11 2 0 4 -17 4 -37z m90 0 c0 -21 -2 -32 -5 -25 -2 6 -8 10 -13
6 -5 -3 -9 0 -9 5 0 6 6 11 13 12 10 0 10 2 0 6 -7 2 -13 9 -13 14 0 6 5 7 10
4 6 -3 10 -1 10 4 0 6 2 11 3 11 2 0 4 -17 4 -37z m90 0 c0 -21 -2 -32 -5 -25
-2 6 -8 10 -13 6 -5 -3 -9 0 -9 5 0 6 6 11 13 12 10 0 10 2 0 6 -7 2 -13 9
-13 14 0 6 5 7 10 4 6 -3 10 -1 10 4 0 6 2 11 3 11 2 0 4 -17 4 -37z m90 0 c0
-21 -2 -32 -5 -25 -2 6 -8 10 -13 6 -5 -3 -9 0 -9 5 0 6 6 11 13 12 10 0 10 2
0 6 -7 2 -13 9 -13 14 0 6 5 7 10 4 6 -3 10 -1 10 4 0 6 2 11 3 11 2 0 4 -17
4 -37z m90 0 c0 -21 -2 -32 -5 -25 -2 6 -8 10 -13 6 -5 -3 -9 0 -9 5 0 6 6 11
13 12 10 0 10 2 0 6 -7 2 -13 9 -13 14 0 6 5 7 10 4 6 -3 10 -1 10 4 0 6 2 11
3 11 2 0 4 -17 4 -37z m114 21 c8 4 5 0 -6 -9 -11 -9 -19 -24 -18 -33 1 -10 0
-11 -3 -4 -3 6 -10 10 -15 6 -5 -3 -9 0 -9 5 0 6 6 11 13 12 10 0 10 2 0 6 -7
2 -13 9 -13 14 0 6 5 7 10 4 6 -3 10 0 10 7 0 10 2 10 9 -1 5 -7 15 -10 22 -7z
m66 -21 c0 -21 -2 -32 -5 -25 -2 6 -8 10 -13 6 -5 -3 -9 0 -9 5 0 6 6 11 13
12 10 0 10 2 0 6 -7 2 -13 9 -13 14 0 6 5 7 10 4 6 -3 10 -1 10 4 0 6 2 11 3
11 2 0 4 -17 4 -37z m90 0 c0 -21 -2 -32 -5 -25 -2 6 -8 10 -13 6 -5 -3 -9 0
-9 5 0 6 6 11 13 12 10 0 10 2 0 6 -7 2 -13 9 -13 14 0 6 5 7 10 4 6 -3 10 -1
10 4 0 6 2 11 3 11 2 0 4 -17 4 -37z m114 21 c8 4 6 1 -4 -8 -19 -15 -47 -12
-47 6 0 5 5 6 10 3 6 -3 10 0 10 7 0 10 2 10 9 -1 5 -7 15 -10 22 -7z m66 -21
c0 -21 -2 -32 -5 -25 -2 6 -8 10 -13 6 -5 -3 -9 0 -9 5 0 6 6 11 13 12 10 0
10 2 0 6 -7 2 -13 9 -13 14 0 6 5 7 10 4 6 -3 10 -1 10 4 0 6 2 11 3 11 2 0 4
-17 4 -37z m113 22 c8 5 11 4 7 -2 -8 -13 -57 -14 -57 -1 0 5 5 6 10 3 6 -3
10 0 10 7 0 10 2 10 9 -1 5 -8 14 -10 21 -6z m67 -22 c0 -21 -2 -32 -5 -25 -2
6 -8 10 -13 6 -5 -3 -9 0 -9 5 0 6 6 11 13 12 10 0 10 2 0 6 -7 2 -13 9 -13
14 0 6 5 7 10 4 6 -3 10 -1 10 4 0 6 2 11 3 11 2 0 4 -17 4 -37z m90 0 c0 -21
-2 -32 -5 -25 -2 6 -8 10 -13 6 -5 -3 -9 0 -9 5 0 6 6 11 13 12 10 0 10 2 0 6
-7 2 -13 9 -13 14 0 6 5 7 10 4 6 -3 10 -1 10 4 0 6 2 11 3 11 2 0 4 -17 4
-37z m90 0 c0 -21 -2 -32 -5 -25 -2 6 -8 10 -13 6 -5 -3 -9 0 -9 5 0 6 6 11
13 12 10 0 10 2 0 6 -7 2 -13 9 -13 14 0 6 5 7 10 4 6 -3 10 -1 10 4 0 6 2 11
3 11 2 0 4 -17 4 -37z m90 0 c0 -21 -2 -32 -5 -25 -2 6 -8 10 -13 6 -5 -3 -9
0 -9 5 0 6 6 11 13 12 10 0 10 2 0 6 -7 2 -13 9 -13 14 0 6 5 7 10 4 6 -3 10
-1 10 4 0 6 2 11 3 11 2 0 4 -17 4 -37z m90 0 c0 -21 -2 -32 -5 -25 -2 6 -8
10 -13 6 -5 -3 -9 0 -9 5 0 6 6 11 13 12 10 0 10 2 0 6 -7 2 -13 9 -13 14 0 6
5 7 10 4 6 -3 10 -1 10 4 0 6 2 11 3 11 2 0 4 -17 4 -37z m90 0 c0 -21 -2 -32
-5 -25 -2 6 -8 10 -13 6 -5 -3 -9 0 -9 5 0 6 6 11 13 12 10 0 10 2 0 6 -7 2
-13 9 -13 14 0 6 5 7 10 4 6 -3 10 -1 10 4 0 6 2 11 3 11 2 0 4 -17 4 -37z
m-1767 -19 c0 -3 -5 -2 -11 2 -6 3 -15 0 -20 -7 -7 -11 -9 -11 -9 -1 0 7 -4
10 -10 7 -5 -3 -10 -2 -10 4 0 14 23 19 43 9 9 -5 17 -11 17 -14z m1260 0 c0
-3 -5 -2 -11 2 -6 3 -15 0 -20 -7 -7 -11 -9 -11 -9 -1 0 7 -4 10 -10 7 -5 -3
-10 -2 -10 4 0 14 23 19 43 9 9 -5 17 -11 17 -14z m-3063 3 c4 -6 1 -7 -7 -2
-7 4 -16 2 -21 -6 -7 -11 -9 -11 -9 -1 0 7 -4 10 -10 7 -5 -3 -10 -2 -10 3 0
13 49 12 57 -1z m59 -5 c1 -7 0 -8 -3 -2 -2 5 -9 8 -14 4 -5 -3 -9 0 -9 6 0
15 23 7 26 -8z m1170 0 c1 -7 0 -8 -3 -2 -2 5 -9 8 -14 4 -5 -3 -9 0 -9 6 0
15 23 7 26 -8z m1651 5 c4 -6 1 -7 -7 -2 -7 4 -16 2 -21 -6 -7 -11 -9 -11 -9
-1 0 7 -4 10 -10 7 -5 -3 -10 -2 -10 3 0 13 49 12 57 -1z m-1817 -157 c0 -5
-4 -10 -10 -10 -5 0 -10 5 -10 10 0 6 5 10 10 10 6 0 10 -4 10 -10z m1980 -44
c0 -34 5 -56 13 -59 6 -3 -4 -5 -23 -5 -19 0 -29 2 -22 5 7 3 12 24 12 53 0
29 -5 50 -12 53 -7 3 -3 6 10 6 20 1 22 -3 22 -53z m290 -7 c0 -33 -4 -58 -8
-55 -5 3 -7 19 -4 36 4 25 1 30 -16 30 -29 0 -40 -39 -16 -57 16 -12 16 -13 1
-13 -21 0 -33 45 -17 65 7 8 21 15 31 15 12 0 19 7 19 20 0 11 2 20 5 20 3 0
5 -27 5 -61z m-3784 36 c4 -8 1 -21 -4 -28 -7 -8 -7 -18 -2 -27 6 -8 10 -22 9
-30 0 -8 -7 -3 -15 13 -8 15 -19 27 -24 27 -5 0 -11 -12 -13 -27 -2 -16 -5 -2
-6 30 -1 55 0 57 24 57 14 0 28 -7 31 -15z m1437 8 c-20 -4 -23 -11 -25 -56
l-2 -52 -3 52 c-3 38 -8 53 -21 56 -9 3 3 5 28 4 25 0 35 -2 23 -4z m1805 -25
c3 -22 -2 -29 -22 -34 -15 -3 -27 -15 -29 -27 -2 -12 -5 4 -6 36 -1 58 -1 58
27 55 21 -2 28 -9 30 -30z m-3150 -20 c3 -14 -3 -18 -27 -18 -23 0 -29 -4 -25
-15 4 -8 18 -16 33 -16 24 -2 24 -2 3 -6 -42 -8 -69 36 -40 65 17 17 52 11 56
-10z m65 15 c-30 -6 -29 -17 3 -32 33 -14 26 -35 -12 -38 -18 -1 -21 0 -9 4
34 9 39 22 11 29 -40 10 -33 45 8 43 19 -2 19 -2 -1 -6z m115 -30 c3 -27 -1
-33 -22 -39 -14 -3 -27 -13 -29 -22 -3 -10 -5 8 -6 39 -1 55 0 56 27 55 23 -1
27 -6 30 -33z m87 -3 c0 -38 -24 -52 -50 -30 -31 25 -9 73 30 68 16 -2 20 -11
20 -38z m92 -5 l1 -40 -6 35 c-4 22 -13 35 -22 35 -9 0 -17 -13 -21 -35 l-6
-35 -2 41 c-1 39 1 41 27 40 24 -1 27 -5 29 -41z m66 38 c-30 -6 -29 -17 3
-32 33 -14 26 -35 -12 -38 -18 -1 -21 0 -9 4 34 9 39 22 11 29 -40 10 -33 45
8 43 19 -2 19 -2 -1 -6z m115 -15 c3 -14 -3 -18 -27 -18 -23 0 -29 -4 -25 -15
4 -8 18 -16 33 -16 24 -2 24 -2 3 -6 -42 -8 -69 36 -40 65 17 17 52 11 56 -10z
m882 -12 c0 -19 6 -37 13 -39 6 -3 -4 -5 -23 -5 -19 0 -29 2 -22 5 6 2 12 17
12 33 0 16 -6 31 -12 33 -7 3 -3 6 10 6 19 1 22 -4 22 -33z m84 26 c2 -4 1
-23 -4 -42 l-8 -35 -1 40 c-1 44 -17 38 -24 -10 -3 -25 -4 -23 -6 10 -1 34 2
41 19 42 11 1 22 -1 24 -5z m34 -35 c2 -20 -1 -37 -6 -37 -6 0 -12 18 -14 40
-2 25 0 39 7 37 5 -2 11 -20 13 -40z m80 21 c3 -14 -3 -18 -27 -18 -23 0 -29
-4 -25 -15 4 -8 18 -16 33 -16 24 -2 24 -2 3 -6 -42 -8 -69 36 -40 65 17 17
52 11 56 -10z m1620 -18 c3 -33 1 -36 -26 -38 -51 -4 -49 39 3 50 18 5 18 6
-5 16 l-25 12 25 -3 c21 -2 25 -8 28 -37z m46 8 l13 -33 16 35 c8 19 16 28 16
20 1 -22 -42 -93 -59 -98 -10 -3 -9 0 3 10 18 13 18 16 3 52 -17 42 -18 46
-11 46 3 0 11 -15 19 -32z m221 -8 c0 -38 -24 -52 -50 -30 -31 25 -9 73 30 68
16 -2 20 -11 20 -38z m93 0 c3 -33 1 -36 -26 -38 -51 -4 -49 39 3 50 18 5 18
6 -5 16 l-25 12 25 -3 c21 -2 25 -8 28 -37z m-4081 -157 c0 -21 -2 -32 -5 -25
-2 6 -8 10 -13 6 -5 -3 -9 0 -9 5 0 6 6 11 13 12 10 0 10 2 0 6 -7 2 -13 9
-13 14 0 6 5 7 10 4 6 -3 10 -1 10 4 0 6 2 11 3 11 2 0 4 -17 4 -37z m90 0 c0
-21 -2 -32 -5 -25 -2 6 -8 10 -13 6 -5 -3 -9 0 -9 5 0 6 6 11 13 12 10 0 10 2
0 6 -7 2 -13 9 -13 14 0 6 5 7 10 4 6 -3 10 -1 10 4 0 6 2 11 3 11 2 0 4 -17
4 -37z m114 21 c8 4 6 1 -3 -6 -15 -13 -15 -15 0 -26 9 -7 11 -10 3 -6 -7 4
-17 0 -22 -7 -7 -11 -9 -11 -9 -1 0 7 -4 10 -10 7 -5 -3 -10 -1 -10 4 0 6 6
11 13 12 10 0 10 2 0 6 -7 2 -13 9 -13 14 0 6 5 7 10 4 6 -3 10 0 10 7 0 10 2
10 9 -1 5 -7 15 -10 22 -7z m66 -21 c1 -21 -1 -32 -4 -25 -2 6 -9 10 -14 6 -5
-3 -9 0 -9 5 0 6 6 11 13 12 10 0 10 2 0 6 -7 2 -13 9 -13 14 0 6 5 7 10 4 6
-3 10 -1 10 4 0 6 2 11 3 11 2 0 4 -17 4 -37z m90 0 c0 -21 -2 -32 -5 -25 -2
6 -8 10 -13 6 -5 -3 -9 0 -9 5 0 6 6 11 13 12 10 0 10 2 0 6 -7 2 -13 9 -13
14 0 6 5 7 10 4 6 -3 10 -1 10 4 0 6 2 11 3 11 2 0 4 -17 4 -37z m90 0 c0 -21
-2 -32 -5 -25 -2 6 -8 10 -13 6 -5 -3 -9 0 -9 5 0 6 6 11 13 12 10 0 10 2 0 6
-7 2 -13 9 -13 14 0 6 5 7 10 4 6 -3 10 -1 10 4 0 6 2 11 3 11 2 0 4 -17 4
-37z m90 0 c0 -21 -2 -32 -5 -25 -2 6 -8 10 -13 6 -5 -3 -9 0 -9 5 0 6 6 11
13 12 10 0 10 2 0 6 -7 2 -13 9 -13 14 0 6 5 7 10 4 6 -3 10 -1 10 4 0 6 2 11
3 11 2 0 4 -17 4 -37z m90 0 c0 -21 -2 -32 -5 -25 -2 6 -8 10 -13 6 -5 -3 -9
0 -9 5 0 6 6 11 13 12 10 0 10 2 0 6 -7 2 -13 9 -13 14 0 6 5 7 10 4 6 -3 10
-1 10 4 0 6 2 11 3 11 2 0 4 -17 4 -37z m90 0 c0 -21 -2 -32 -5 -25 -2 6 -8
10 -13 6 -5 -3 -9 0 -9 5 0 6 6 11 13 12 10 0 10 2 0 6 -7 2 -13 9 -13 14 0 6
5 7 10 4 6 -3 10 -1 10 4 0 6 2 11 3 11 2 0 4 -17 4 -37z m90 0 c0 -21 -2 -32
-5 -25 -2 6 -8 10 -13 6 -5 -3 -9 0 -9 5 0 6 6 11 13 12 10 0 10 2 0 6 -7 2
-13 9 -13 14 0 6 5 7 10 4 6 -3 10 -1 10 4 0 6 2 11 3 11 2 0 4 -17 4 -37z
m90 0 c0 -21 -2 -32 -5 -25 -2 6 -8 10 -13 6 -5 -3 -9 0 -9 5 0 6 6 11 13 12
10 0 10 2 0 6 -7 2 -13 9 -13 14 0 6 5 7 10 4 6 -3 10 -1 10 4 0 6 2 11 3 11
2 0 4 -17 4 -37z m90 0 c0 -21 -2 -32 -5 -25 -2 6 -8 10 -13 6 -5 -3 -9 0 -9
5 0 6 6 11 13 12 10 0 10 2 0 6 -7 2 -13 9 -13 14 0 6 5 7 10 4 6 -3 10 -1 10
4 0 6 2 11 3 11 2 0 4 -17 4 -37z m90 0 c0 -21 -2 -32 -5 -25 -2 6 -8 10 -13
6 -5 -3 -9 0 -9 5 0 6 6 11 13 12 10 0 10 2 0 6 -7 2 -13 9 -13 14 0 6 5 7 10
4 6 -3 10 -1 10 4 0 6 2 11 3 11 2 0 4 -17 4 -37z m90 0 c0 -21 -2 -32 -5 -25
-2 6 -8 10 -13 6 -5 -3 -9 0 -9 5 0 6 6 11 13 12 10 0 10 2 0 6 -7 2 -13 9
-13 14 0 6 5 7 10 4 6 -3 10 -1 10 4 0 6 2 11 3 11 2 0 4 -17 4 -37z m90 0 c0
-21 -2 -32 -5 -25 -2 6 -8 10 -13 6 -5 -3 -9 0 -9 5 0 6 6 11 13 12 10 0 10 2
0 6 -7 2 -13 9 -13 14 0 6 5 7 10 4 6 -3 10 -1 10 4 0 6 2 11 3 11 2 0 4 -17
4 -37z m90 0 c0 -21 -2 -32 -5 -25 -2 6 -8 10 -13 6 -5 -3 -9 0 -9 5 0 6 6 11
13 12 10 0 10 2 0 6 -7 2 -13 9 -13 14 0 6 5 7 10 4 6 -3 10 -1 10 4 0 6 2 11
3 11 2 0 4 -17 4 -37z m90 0 c0 -21 -2 -32 -5 -25 -2 6 -8 10 -13 6 -5 -3 -9
0 -9 5 0 6 6 11 13 12 10 0 10 2 0 6 -7 2 -13 9 -13 14 0 6 5 7 10 4 6 -3 10
-1 10 4 0 6 2 11 3 11 2 0 4 -17 4 -37z m90 0 c0 -21 -2 -32 -5 -25 -2 6 -8
10 -13 6 -5 -3 -9 0 -9 5 0 6 6 11 13 12 10 0 10 2 0 6 -7 2 -13 9 -13 14 0 6
5 7 10 4 6 -3 10 -1 10 4 0 6 2 11 3 11 2 0 4 -17 4 -37z m90 0 c0 -21 -2 -32
-5 -25 -2 6 -8 10 -13 6 -5 -3 -9 0 -9 5 0 6 6 11 13 12 10 0 10 2 0 6 -7 2
-13 9 -13 14 0 6 5 7 10 4 6 -3 10 -1 10 4 0 6 2 11 3 11 2 0 4 -17 4 -37z
m90 0 c0 -21 -2 -32 -5 -25 -2 6 -8 10 -13 6 -5 -3 -9 0 -9 5 0 6 6 11 13 12
10 0 10 2 0 6 -7 2 -13 9 -13 14 0 6 5 7 10 4 6 -3 10 -1 10 4 0 6 2 11 3 11
2 0 4 -17 4 -37z m91 23 c-2 -8 6 -22 17 -31 11 -9 14 -13 6 -9 -7 3 -17 0
-22 -7 -7 -11 -9 -11 -9 -1 0 7 -4 10 -10 7 -5 -3 -10 -1 -10 4 0 6 6 11 13
12 10 0 10 2 0 6 -7 2 -13 9 -13 14 0 6 5 7 10 4 6 -3 10 -1 10 4 0 6 2 11 5
11 3 0 5 -6 3 -14z m113 -2 c8 4 6 1 -3 -6 -15 -13 -15 -15 0 -26 9 -7 11 -10
3 -6 -7 4 -17 0 -22 -7 -7 -11 -9 -11 -9 -1 0 7 -4 10 -10 7 -5 -3 -10 -1 -10
4 0 6 6 11 13 12 10 0 10 2 0 6 -7 2 -13 9 -13 14 0 6 5 7 10 4 6 -3 10 0 10
7 0 10 2 10 9 -1 5 -7 15 -10 22 -7z m66 -21 c0 -21 -2 -32 -5 -25 -2 6 -8 10
-13 6 -5 -3 -9 0 -9 5 0 6 6 11 13 12 10 0 10 2 0 6 -7 2 -13 9 -13 14 0 6 5
7 10 4 6 -3 10 -1 10 4 0 6 2 11 3 11 2 0 4 -17 4 -37z m90 0 c0 -21 -2 -32
-5 -25 -2 6 -8 10 -13 6 -5 -3 -9 0 -9 5 0 6 6 11 13 12 10 0 10 2 0 6 -7 2
-13 9 -13 14 0 6 5 7 10 4 6 -3 10 -1 10 4 0 6 2 11 3 11 2 0 4 -17 4 -37z
m90 0 c0 -21 -2 -32 -5 -25 -2 6 -8 10 -13 6 -5 -3 -9 0 -9 5 0 6 6 11 13 12
10 0 10 2 0 6 -7 2 -13 9 -13 14 0 6 5 7 10 4 6 -3 10 -1 10 4 0 6 2 11 3 11
2 0 4 -17 4 -37z m90 0 c0 -21 -2 -32 -5 -25 -2 6 -8 10 -13 6 -5 -3 -9 0 -9
5 0 6 6 11 13 12 10 0 10 2 0 6 -7 2 -13 9 -13 14 0 6 5 7 10 4 6 -3 10 -1 10
4 0 6 2 11 3 11 2 0 4 -17 4 -37z m90 0 c0 -21 -2 -32 -5 -25 -2 6 -8 10 -13
6 -5 -3 -9 0 -9 5 0 6 6 11 13 12 10 0 10 2 0 6 -7 2 -13 9 -13 14 0 6 5 7 10
4 6 -3 10 -1 10 4 0 6 2 11 3 11 2 0 4 -17 4 -37z m90 0 c0 -21 -2 -32 -5 -25
-2 6 -8 10 -13 6 -5 -3 -9 0 -9 5 0 6 6 11 13 12 10 0 10 2 0 6 -7 2 -13 9
-13 14 0 6 5 7 10 4 6 -3 10 -1 10 4 0 6 2 11 3 11 2 0 4 -17 4 -37z m92 0 c0
-21 -3 -32 -6 -25 -2 6 -9 10 -14 6 -5 -3 -9 0 -9 5 0 6 6 11 13 12 10 0 10 2
0 6 -7 2 -13 9 -13 14 0 6 5 7 10 4 6 -3 10 -1 10 4 0 6 2 11 5 11 3 0 5 -17
4 -37z m88 0 c0 -21 -2 -32 -5 -25 -2 6 -8 10 -13 6 -5 -3 -9 0 -9 5 0 6 6 11
13 12 10 0 10 2 0 6 -7 2 -13 9 -13 14 0 6 5 7 10 4 6 -3 10 -1 10 4 0 6 2 11
3 11 2 0 4 -17 4 -37z m90 0 c0 -21 -2 -32 -5 -25 -2 6 -8 10 -13 6 -5 -3 -9
0 -9 5 0 6 6 11 13 12 10 0 10 2 0 6 -7 2 -13 9 -13 14 0 6 5 7 10 4 6 -3 10
-1 10 4 0 6 2 11 3 11 2 0 4 -17 4 -37z m90 0 c0 -21 -2 -32 -5 -25 -2 6 -8
10 -13 6 -5 -3 -9 0 -9 5 0 6 6 11 13 12 10 0 10 2 0 6 -7 2 -13 9 -13 14 0 6
5 7 10 4 6 -3 10 -1 10 4 0 6 2 11 3 11 2 0 4 -17 4 -37z m90 0 c0 -21 -2 -32
-5 -25 -2 6 -8 10 -13 6 -5 -3 -9 0 -9 5 0 6 6 11 13 12 10 0 10 2 0 6 -7 2
-13 9 -13 14 0 6 5 7 10 4 6 -3 10 -1 10 4 0 6 2 11 3 11 2 0 4 -17 4 -37z
m90 0 c0 -21 -2 -32 -5 -25 -2 6 -8 10 -13 6 -5 -3 -9 0 -9 5 0 6 6 11 13 12
10 0 10 2 0 6 -7 2 -13 9 -13 14 0 6 5 7 10 4 6 -3 10 -1 10 4 0 6 2 11 3 11
2 0 4 -17 4 -37z m90 0 c0 -21 -2 -32 -5 -25 -2 6 -8 10 -13 6 -5 -3 -9 0 -9
5 0 6 6 11 13 12 10 0 10 2 0 6 -7 2 -13 9 -13 14 0 6 5 7 10 4 6 -3 10 -1 10
4 0 6 2 11 3 11 2 0 4 -17 4 -37z m90 0 c0 -21 -2 -32 -5 -25 -2 6 -8 10 -13
6 -5 -3 -9 0 -9 5 0 6 6 11 13 12 10 0 10 2 0 6 -7 2 -13 9 -13 14 0 6 5 7 10
4 6 -3 10 -1 10 4 0 6 2 11 3 11 2 0 4 -17 4 -37z m90 0 c0 -21 -2 -32 -5 -25
-2 6 -8 10 -13 6 -5 -3 -9 0 -9 5 0 6 6 11 13 12 10 0 10 2 0 6 -7 2 -13 9
-13 14 0 6 5 7 10 4 6 -3 10 -1 10 4 0 6 2 11 3 11 2 0 4 -17 4 -37z m90 0 c0
-21 -2 -32 -5 -25 -2 6 -8 10 -13 6 -5 -3 -9 0 -9 5 0 6 6 11 13 12 10 0 10 2
0 6 -7 2 -13 9 -13 14 0 6 5 7 10 4 6 -3 10 -1 10 4 0 6 2 11 3 11 2 0 4 -17
4 -37z m90 0 c0 -21 -2 -32 -5 -25 -2 6 -8 10 -13 6 -5 -3 -9 0 -9 5 0 6 6 11
13 12 10 0 10 2 0 6 -7 2 -13 9 -13 14 0 6 5 7 10 4 6 -3 10 -1 10 4 0 6 2 11
3 11 2 0 4 -17 4 -37z m90 0 c0 -21 -2 -32 -5 -25 -2 6 -8 10 -13 6 -5 -3 -9
0 -9 5 0 6 6 11 13 12 10 0 10 2 0 6 -7 2 -13 9 -13 14 0 6 5 7 10 4 6 -3 10
-1 10 4 0 6 2 11 3 11 2 0 4 -17 4 -37z m90 0 c0 -21 -2 -32 -5 -25 -2 6 -8
10 -13 6 -5 -3 -9 0 -9 5 0 6 6 11 13 12 10 0 10 2 0 6 -7 2 -13 9 -13 14 0 6
5 7 10 4 6 -3 10 -1 10 4 0 6 2 11 3 11 2 0 4 -17 4 -37z m90 0 c0 -21 -2 -32
-5 -25 -2 6 -8 10 -13 6 -5 -3 -9 0 -9 5 0 6 6 11 13 12 10 0 10 2 0 6 -7 2
-13 9 -13 14 0 6 5 7 10 4 6 -3 10 -1 10 4 0 6 2 11 3 11 2 0 4 -17 4 -37z
m90 0 c0 -21 -2 -32 -5 -25 -2 6 -8 10 -13 6 -5 -3 -9 0 -9 5 0 6 6 11 13 12
10 0 10 2 0 6 -7 2 -13 9 -13 14 0 6 5 7 10 4 6 -3 10 -1 10 4 0 6 2 11 3 11
2 0 4 -17 4 -37z m90 0 c0 -21 -2 -32 -5 -25 -2 6 -8 10 -13 6 -5 -3 -9 0 -9
5 0 6 6 11 13 12 10 0 10 2 0 6 -7 2 -13 9 -13 14 0 6 5 7 10 4 6 -3 10 -1 10
4 0 6 2 11 3 11 2 0 4 -17 4 -37z m90 0 c0 -21 -2 -32 -5 -25 -2 6 -8 10 -13
6 -5 -3 -9 0 -9 5 0 6 6 11 13 12 10 0 10 2 0 6 -7 2 -13 9 -13 14 0 6 5 7 10
4 6 -3 10 -1 10 4 0 6 2 11 3 11 2 0 4 -17 4 -37z m90 0 c0 -21 -2 -32 -5 -25
-2 6 -8 10 -13 6 -5 -3 -9 0 -9 5 0 6 6 11 13 12 10 0 10 2 0 6 -7 2 -13 9
-13 14 0 6 5 7 10 4 6 -3 10 -1 10 4 0 6 2 11 3 11 2 0 4 -17 4 -37z m90 0 c0
-21 -2 -32 -5 -25 -2 6 -8 10 -13 6 -5 -3 -9 0 -9 5 0 6 6 11 13 12 10 0 10 2
0 6 -7 2 -13 9 -13 14 0 6 5 7 10 4 6 -3 10 -1 10 4 0 6 2 11 3 11 2 0 4 -17
4 -37z m90 0 c0 -21 -2 -32 -5 -25 -2 6 -8 10 -13 6 -5 -3 -9 0 -9 5 0 6 6 11
13 12 10 0 10 2 0 6 -7 2 -13 9 -13 14 0 6 5 7 10 4 6 -3 10 -1 10 4 0 6 2 11
3 11 2 0 4 -17 4 -37z m90 0 c0 -21 -2 -32 -5 -25 -2 6 -8 10 -13 6 -5 -3 -9
0 -9 5 0 6 6 11 13 12 10 0 10 2 0 6 -7 2 -13 9 -13 14 0 6 5 7 10 4 6 -3 10
-1 10 4 0 6 2 11 3 11 2 0 4 -17 4 -37z m90 0 c0 -21 -2 -32 -5 -25 -2 6 -8
10 -13 6 -5 -3 -9 0 -9 5 0 6 6 11 13 12 10 0 10 2 0 6 -7 2 -13 9 -13 14 0 6
5 7 10 4 6 -3 10 -1 10 4 0 6 2 11 3 11 2 0 4 -17 4 -37z m-4399 -170 c-15 -4
-18 -16 -18 -68 0 -52 3 -64 18 -68 13 -4 11 -5 -5 -6 -22 -1 -23 3 -23 74 0
71 1 75 23 74 16 -1 18 -2 5 -6z m182 -68 c0 -65 -2 -75 -17 -74 -11 0 -13 3
-5 6 8 3 12 27 12 68 0 41 -4 65 -12 68 -8 3 -6 6 5 6 15 1 17 -9 17 -74z
m3580 55 c0 -11 -4 -20 -10 -20 -5 0 -10 9 -10 20 0 11 5 20 10 20 6 0 10 -9
10 -20z m27 -12 c-3 -7 -5 -2 -5 12 0 14 2 19 5 13 2 -7 2 -19 0 -25z m70 -35
c-2 -16 -4 -5 -4 22 0 28 2 40 4 28 2 -13 2 -35 0 -50z m283 57 c0 -5 -4 -10
-10 -10 -5 0 -10 5 -10 10 0 6 5 10 10 10 6 0 10 -4 10 -10z m180 0 c0 -5 -4
-10 -10 -10 -5 0 -10 5 -10 10 0 6 5 10 10 10 6 0 10 -4 10 -10z m520 -10 c0
-11 -4 -20 -10 -20 -5 0 -10 9 -10 20 0 11 5 20 10 20 6 0 10 -9 10 -20z m27
-12 c-3 -7 -5 -2 -5 12 0 14 2 19 5 13 2 -7 2 -19 0 -25z m-4517 9 c-18 -9
-25 -21 -25 -42 0 -21 7 -33 25 -42 24 -12 24 -13 3 -13 -39 0 -58 64 -27 94
8 9 23 16 32 16 12 0 9 -4 -8 -13z m1540 -36 c0 -30 5 -51 13 -54 6 -3 -4 -5
-23 -5 -19 0 -29 2 -22 5 7 2 12 22 12 45 0 34 -3 39 -17 34 -15 -5 -15 -4 1
9 31 23 36 19 36 -34z m110 37 c-1 -14 -49 -107 -50 -96 0 3 9 27 19 52 l20
45 -32 4 c-31 4 -31 4 6 5 24 1 37 -2 37 -10z m153 5 c-31 -6 -29 -29 2 -37
43 -11 26 -67 -19 -65 -18 1 -17 2 4 8 32 9 34 45 3 49 -17 3 -23 10 -23 28 0
20 5 24 28 23 23 -2 24 -2 5 -6z m117 -5 c-1 -14 -49 -107 -50 -96 0 3 9 27
19 52 l20 45 -32 4 c-31 4 -31 4 6 5 24 1 37 -2 37 -10z m168 -1 c7 -8 7 -18
2 -27 -6 -9 -5 -17 3 -22 18 -11 -5 -43 -34 -45 l-24 -2 24 7 c33 10 38 30 9
41 -17 7 -18 10 -5 10 26 1 22 39 -5 44 -22 4 -22 4 -2 6 12 0 26 -5 32 -12z
m98 -2 c4 -8 1 -22 -6 -30 -9 -11 -10 -15 -1 -15 22 0 7 -45 -15 -48 -26 -4
-52 24 -36 40 6 6 8 17 5 24 -8 23 5 44 27 44 11 0 23 -7 26 -15z m1697 -16
c22 -2 22 -2 0 -6 -17 -3 -23 -11 -23 -29 0 -16 8 -28 23 -34 22 -10 22 -10
-3 -7 -20 1 -26 8 -28 32 -2 16 -9 33 -15 37 -9 6 -9 8 1 8 6 0 13 8 13 18 1
16 2 16 6 0 2 -10 14 -19 26 -19z m-4130 -30 c22 -2 22 -2 0 -6 -13 -2 -24
-12 -24 -21 -1 -15 -2 -15 -6 1 -2 9 -12 18 -21 18 -15 1 -15 2 1 6 9 2 18 12
18 21 1 15 2 15 6 0 2 -10 14 -19 26 -19z m1967 21 c0 -5 -4 -10 -10 -10 -5 0
-10 5 -10 10 0 6 5 10 10 10 6 0 10 -4 10 -10z m270 0 c0 -5 -4 -10 -10 -10
-5 0 -10 5 -10 10 0 6 5 10 10 10 6 0 10 -4 10 -10z m1728 -15 c-7 -17 -19
-25 -35 -25 -14 0 -21 -4 -18 -10 3 -5 17 -10 30 -10 13 0 26 -4 29 -9 9 -14
-21 -33 -46 -29 -20 3 -23 8 -22 40 2 56 10 68 43 68 29 0 30 -1 19 -25z m72
-9 c0 -19 6 -37 13 -39 6 -3 -4 -5 -23 -5 -19 0 -29 2 -22 5 6 2 12 17 12 33
0 16 -6 31 -12 33 -7 3 -3 6 10 6 19 1 22 -4 22 -33z m180 0 c0 -19 6 -37 13
-39 6 -3 -4 -5 -23 -5 -19 0 -29 2 -22 5 6 2 12 17 12 33 0 16 -6 31 -12 33
-7 3 -3 6 10 6 19 1 22 -4 22 -33z m108 9 c-7 -17 -19 -25 -35 -25 -14 0 -21
-4 -18 -10 3 -5 17 -10 30 -10 13 0 26 -4 29 -9 9 -14 -21 -33 -46 -29 -20 3
-23 8 -22 40 2 56 10 68 43 68 29 0 30 -1 19 -25z m89 -20 l1 -40 -6 35 c-4
22 -13 35 -22 35 -9 0 -17 -13 -21 -35 l-6 -35 -2 41 c-1 39 1 41 27 40 24 -1
27 -5 29 -41z m88 5 c0 -38 -24 -52 -50 -30 -31 25 -9 73 30 68 16 -2 20 -11
20 -38z m95 23 c0 -14 -2 -15 -9 -4 -14 22 -39 5 -44 -31 -4 -31 -4 -30 -5 7
-2 38 0 41 28 43 23 2 30 -2 30 -15z m88 -5 c3 -14 -3 -18 -27 -18 -23 0 -29
-4 -25 -15 4 -8 18 -16 33 -16 24 -2 24 -2 3 -6 -42 -8 -69 36 -40 65 17 17
52 11 56 -10z m-4330 -5 c-10 -2 -28 -2 -40 0 -13 2 -5 4 17 4 22 1 32 -1 23
-4z m0 -30 c-10 -2 -28 -2 -40 0 -13 2 -5 4 17 4 22 1 32 -1 23 -4z m1612 -13
c0 -5 -4 -10 -10 -10 -5 0 -10 5 -10 10 0 6 5 10 10 10 6 0 10 -4 10 -10z
m270 0 c0 -5 -4 -10 -10 -10 -5 0 -10 5 -10 10 0 6 5 10 10 10 6 0 10 -4 10
-10z m1530 0 c0 -5 -4 -10 -10 -10 -5 0 -10 5 -10 10 0 6 5 10 10 10 6 0 10
-4 10 -10z m90 0 c0 -5 -4 -10 -10 -10 -5 0 -10 5 -10 10 0 6 5 10 10 10 6 0
10 -4 10 -10z m-3962 -97 c-15 -4 -18 -16 -18 -68 0 -52 3 -64 18 -68 13 -4
11 -5 -5 -6 -22 -1 -23 3 -23 74 0 71 1 75 23 74 16 -1 18 -2 5 -6z m182 -68
c0 -65 -2 -75 -17 -74 -11 0 -13 3 -5 6 8 3 12 27 12 68 0 41 -4 65 -12 68 -8
3 -6 6 5 6 15 1 17 -9 17 -74z m3580 55 c0 -11 -4 -20 -10 -20 -5 0 -10 9 -10
20 0 11 5 20 10 20 6 0 10 -9 10 -20z m27 -12 c-3 -7 -5 -2 -5 12 0 14 2 19 5
13 2 -7 2 -19 0 -25z m70 -35 c-2 -16 -4 -5 -4 22 0 28 2 40 4 28 2 -13 2 -35
0 -50z m188 22 c16 0 20 -7 22 -40 l1 -40 -6 35 c-4 22 -13 35 -22 35 -9 0
-17 -13 -21 -35 -5 -26 -6 -18 -7 30 0 38 3 54 7 40 4 -16 13 -25 26 -25z
m705 25 c0 -11 -4 -20 -10 -20 -5 0 -10 9 -10 20 0 11 5 20 10 20 6 0 10 -9
10 -20z m27 -12 c-3 -7 -5 -2 -5 12 0 14 2 19 5 13 2 -7 2 -19 0 -25z m-4427
9 c-18 -9 -25 -21 -25 -42 0 -21 7 -33 25 -42 24 -12 24 -13 3 -13 -39 0 -58
64 -27 94 8 9 23 16 32 16 12 0 9 -4 -8 -13z m1540 -36 c0 -30 5 -51 13 -54 6
-3 -4 -5 -23 -5 -19 0 -29 2 -22 5 7 2 12 22 12 45 0 34 -3 39 -17 34 -15 -5
-15 -4 1 9 31 23 36 19 36 -34z m110 37 c-1 -14 -49 -107 -50 -96 0 3 9 27 19
52 l20 45 -32 4 c-31 4 -31 4 6 5 24 1 37 -2 37 -10z m153 5 c-31 -6 -29 -29
2 -37 43 -11 26 -67 -19 -65 -18 1 -17 2 4 8 32 9 34 45 3 49 -17 3 -23 10
-23 28 0 20 5 24 28 23 23 -2 24 -2 5 -6z m117 -5 c-1 -14 -49 -107 -50 -96 0
3 9 27 19 52 l20 45 -32 4 c-31 4 -31 4 6 5 24 1 37 -2 37 -10z m168 -1 c7 -8
7 -18 2 -27 -6 -9 -5 -17 3 -22 18 -11 -5 -43 -34 -45 l-24 -2 24 7 c33 10 38
30 9 41 -17 7 -18 10 -5 10 26 1 22 39 -5 44 -22 4 -22 4 -2 6 12 0 26 -5 32
-12z m90 1 c29 -29 3 -98 -36 -98 -12 0 -10 4 7 13 34 17 36 33 4 32 -31 0
-43 26 -23 50 15 18 32 19 48 3z m1615 -19 c22 -2 22 -2 0 -6 -17 -3 -23 -11
-23 -29 0 -16 8 -28 23 -34 22 -10 22 -10 -3 -7 -20 1 -26 8 -28 32 -2 16 -9
33 -15 37 -9 6 -9 8 1 8 6 0 13 8 13 18 1 16 2 16 6 0 2 -10 14 -19 26 -19z
m-4040 -30 c22 -2 22 -2 0 -6 -13 -2 -24 -12 -24 -21 -1 -15 -2 -15 -6 1 -2 9
-12 18 -21 18 -15 1 -15 2 1 6 9 2 18 12 18 21 1 15 2 15 6 0 2 -10 14 -19 26
-19z m1967 21 c0 -5 -4 -10 -10 -10 -5 0 -10 5 -10 10 0 6 5 10 10 10 6 0 10
-4 10 -10z m270 0 c0 -5 -4 -10 -10 -10 -5 0 -10 5 -10 10 0 6 5 10 10 10 6 0
10 -4 10 -10z m1908 -30 c3 -33 1 -36 -26 -38 -51 -4 -49 39 3 50 18 5 18 6
-5 16 l-25 12 25 -3 c21 -2 25 -8 28 -37z m65 30 c-14 -6 -23 -18 -23 -30 0
-12 10 -25 23 -30 22 -10 22 -10 -3 -7 -19 1 -26 8 -28 31 -4 29 10 46 38 45
8 0 5 -4 -7 -9z m90 0 c-14 -6 -23 -18 -23 -30 0 -12 10 -25 23 -30 22 -10 22
-10 -3 -7 -19 1 -26 8 -28 31 -4 29 10 46 38 45 8 0 5 -4 -7 -9z m115 -12 c3
-14 -3 -18 -27 -18 -23 0 -29 -4 -25 -15 4 -8 18 -16 33 -16 24 -2 24 -2 3 -6
-42 -8 -69 36 -40 65 17 17 52 11 56 -10z m65 15 c-30 -6 -29 -17 3 -32 33
-14 26 -35 -12 -38 -18 -1 -21 0 -9 4 34 9 39 22 11 29 -40 10 -33 45 8 43 19
-2 19 -2 -1 -6z m90 0 c-30 -6 -29 -17 3 -32 33 -14 26 -35 -12 -38 -18 -1
-21 0 -9 4 34 9 39 22 11 29 -40 10 -33 45 8 43 19 -2 19 -2 -1 -6z m-4215
-20 c-10 -2 -28 -2 -40 0 -13 2 -5 4 17 4 22 1 32 -1 23 -4z m0 -30 c-10 -2
-28 -2 -40 0 -13 2 -5 4 17 4 22 1 32 -1 23 -4z m1612 -13 c0 -5 -4 -10 -10
-10 -5 0 -10 5 -10 10 0 6 5 10 10 10 6 0 10 -4 10 -10z m270 0 c0 -5 -4 -10
-10 -10 -5 0 -10 5 -10 10 0 6 5 10 10 10 6 0 10 -4 10 -10z m1530 0 c0 -5 -4
-10 -10 -10 -5 0 -10 5 -10 10 0 6 5 10 10 10 6 0 10 -4 10 -10z m90 0 c0 -5
-4 -10 -10 -10 -5 0 -10 5 -10 10 0 6 5 10 10 10 6 0 10 -4 10 -10z m-3962
-97 c-15 -4 -18 -16 -18 -68 0 -52 3 -64 18 -68 13 -4 11 -5 -5 -6 -22 -1 -23
3 -23 74 0 71 1 75 23 74 16 -1 18 -2 5 -6z m182 -68 c0 -65 -2 -75 -17 -74
-11 0 -13 3 -5 6 8 3 12 27 12 68 0 41 -4 65 -12 68 -8 3 -6 6 5 6 15 1 17 -9
17 -74z m3580 55 c0 -11 -4 -20 -10 -20 -5 0 -10 9 -10 20 0 11 5 20 10 20 6
0 10 -9 10 -20z m27 -12 c-3 -7 -5 -2 -5 12 0 14 2 19 5 13 2 -7 2 -19 0 -25z
m70 -35 c-2 -16 -4 -5 -4 22 0 28 2 40 4 28 2 -13 2 -35 0 -50z m188 22 c16 0
20 -7 22 -40 l1 -40 -6 35 c-4 22 -13 35 -22 35 -9 0 -17 -13 -21 -35 -5 -26
-6 -18 -7 30 0 38 3 54 7 40 4 -16 13 -25 26 -25z m655 -16 c0 -33 -4 -58 -8
-55 -5 3 -7 19 -4 36 4 25 1 30 -16 30 -29 0 -40 -39 -16 -57 16 -12 16 -13 1
-13 -21 0 -33 45 -17 65 7 8 21 15 31 15 12 0 19 7 19 20 0 11 2 20 5 20 3 0
5 -27 5 -61z m50 41 c0 -11 -4 -20 -10 -20 -5 0 -10 9 -10 20 0 11 5 20 10 20
6 0 10 -9 10 -20z m27 -12 c-3 -7 -5 -2 -5 12 0 14 2 19 5 13 2 -7 2 -19 0
-25z m-4427 9 c-18 -9 -25 -21 -25 -42 0 -21 7 -33 25 -42 24 -12 24 -13 3
-13 -39 0 -58 64 -27 94 8 9 23 16 32 16 12 0 9 -4 -8 -13z m1540 -36 c0 -30
5 -51 13 -54 6 -3 -4 -5 -23 -5 -19 0 -29 2 -22 5 7 2 12 22 12 45 0 34 -3 39
-17 34 -15 -5 -15 -4 1 9 31 23 36 19 36 -34z m110 37 c-1 -14 -49 -107 -50
-96 0 3 9 27 19 52 l20 45 -32 4 c-31 4 -31 4 6 5 24 1 37 -2 37 -10z m153 5
c-31 -6 -29 -29 2 -37 43 -11 26 -67 -19 -65 -18 1 -17 2 4 8 32 9 34 45 3 49
-17 3 -23 10 -23 28 0 20 5 24 28 23 23 -2 24 -2 5 -6z m117 -5 c-1 -14 -49
-107 -50 -96 0 3 9 27 19 52 l20 45 -32 4 c-31 4 -31 4 6 5 24 1 37 -2 37 -10z
m170 -27 c0 -22 4 -41 9 -43 5 -1 3 -9 -5 -16 -8 -7 -14 -8 -14 -2 0 5 -11 10
-25 10 -30 0 -31 9 -4 54 27 47 39 45 39 -3z m99 16 c20 -53 -18 -107 -54 -77
-18 15 -20 71 -3 88 19 19 48 14 57 -11z m1604 -8 c22 -2 22 -2 0 -6 -17 -3
-23 -11 -23 -29 0 -16 8 -28 23 -34 22 -10 22 -10 -3 -7 -20 1 -26 8 -28 32
-2 16 -9 33 -15 37 -9 6 -9 8 1 8 6 0 13 8 13 18 1 16 2 16 6 0 2 -10 14 -19
26 -19z m-4040 -30 c22 -2 22 -2 0 -6 -13 -2 -24 -12 -24 -21 -1 -15 -2 -15
-6 1 -2 9 -12 18 -21 18 -15 1 -15 2 1 6 9 2 18 12 18 21 1 15 2 15 6 0 2 -10
14 -19 26 -19z m1967 21 c0 -5 -4 -10 -10 -10 -5 0 -10 5 -10 10 0 6 5 10 10
10 6 0 10 -4 10 -10z m270 0 c0 -5 -4 -10 -10 -10 -5 0 -10 5 -10 10 0 6 5 10
10 10 6 0 10 -4 10 -10z m1908 -27 c3 -27 -1 -33 -22 -39 -14 -3 -27 -13 -29
-22 -3 -10 -5 8 -6 39 -1 55 0 56 27 55 23 -1 27 -6 30 -33z m90 -3 c3 -33 1
-36 -26 -38 -51 -4 -49 39 3 50 18 5 18 6 -5 16 l-25 12 25 -3 c21 -2 25 -8
28 -37z m65 33 c-30 -6 -29 -17 3 -32 33 -14 26 -35 -12 -38 -18 -1 -21 0 -9
4 34 9 39 22 11 29 -40 10 -33 45 8 43 19 -2 19 -2 -1 -6z m90 0 c-30 -6 -29
-17 3 -32 33 -14 26 -35 -12 -38 -18 -1 -21 0 -9 4 34 9 39 22 11 29 -40 10
-33 45 8 43 19 -2 19 -2 -1 -6z m68 -48 c5 4 9 2 9 -4 0 -5 -4 -12 -9 -15 -12
-8 -21 19 -19 52 1 23 2 22 5 -6 2 -18 9 -30 14 -27z m56 33 c-3 -8 -6 -5 -6
6 -1 11 2 17 5 13 3 -3 4 -12 1 -19z m-4159 -5 c-10 -2 -28 -2 -40 0 -13 2 -5
4 17 4 22 1 32 -1 23 -4z m4132 -14 c0 -6 -4 -7 -10 -4 -5 3 -10 11 -10 16 0
6 5 7 10 4 6 -3 10 -11 10 -16z m16 -36 c-11 -11 -17 4 -9 23 7 18 8 18 11 1
2 -10 1 -21 -2 -24z m-4148 20 c-10 -2 -28 -2 -40 0 -13 2 -5 4 17 4 22 1 32
-1 23 -4z m1612 -13 c0 -5 -4 -10 -10 -10 -5 0 -10 5 -10 10 0 6 5 10 10 10 6
0 10 -4 10 -10z m270 0 c0 -5 -4 -10 -10 -10 -5 0 -10 5 -10 10 0 6 5 10 10
10 6 0 10 -4 10 -10z m1530 0 c0 -5 -4 -10 -10 -10 -5 0 -10 5 -10 10 0 6 5
10 10 10 6 0 10 -4 10 -10z m90 0 c0 -5 -4 -10 -10 -10 -5 0 -10 5 -10 10 0 6
5 10 10 10 6 0 10 -4 10 -10z m-3962 -97 c-15 -4 -18 -16 -18 -68 0 -52 3 -64
18 -68 13 -4 11 -5 -5 -6 -22 -1 -23 3 -23 74 0 71 1 75 23 74 16 -1 18 -2 5
-6z m182 -68 c0 -65 -2 -75 -17 -74 -11 0 -13 3 -5 6 8 3 12 27 12 68 0 41 -4
65 -12 68 -8 3 -6 6 5 6 15 1 17 -9 17 -74z m3580 55 c0 -11 -4 -20 -10 -20
-5 0 -10 9 -10 20 0 11 5 20 10 20 6 0 10 -9 10 -20z m27 -12 c-3 -7 -5 -2 -5
12 0 14 2 19 5 13 2 -7 2 -19 0 -25z m70 12 c5 -19 6 -19 25 3 l20 22 -18 -30
c-32 -55 -64 -100 -64 -90 0 6 9 21 20 35 25 32 25 39 0 33 -16 -4 -20 0 -20
21 0 31 29 36 37 6z m206 13 c-28 -5 -32 -42 -5 -44 16 -1 16 -2 0 -6 -12 -3
-19 -15 -20 -36 l-1 -32 -4 33 c-3 21 -10 32 -21 33 -15 1 -15 2 1 6 9 2 17
12 17 22 0 23 9 31 34 30 19 -2 19 -2 -1 -6z m70 -55 c-13 -35 -29 -67 -34
-73 -6 -5 -3 7 5 28 9 20 23 53 30 72 8 19 17 35 20 35 2 0 -7 -28 -21 -62z
m77 42 c0 -11 -4 -20 -10 -20 -5 0 -10 9 -10 20 0 11 5 20 10 20 6 0 10 -9 10
-20z m27 -12 c-3 -7 -5 -2 -5 12 0 14 2 19 5 13 2 -7 2 -19 0 -25z m-3887 9
c-18 -9 -25 -21 -25 -42 0 -21 7 -33 25 -42 24 -12 24 -13 3 -13 -39 0 -58 64
-27 94 8 9 23 16 32 16 12 0 9 -4 -8 -13z m1540 -36 c0 -30 5 -51 13 -54 6 -3
-4 -5 -23 -5 -19 0 -29 2 -22 5 7 2 12 22 12 45 0 34 -3 39 -17 34 -15 -5 -15
-4 1 9 31 23 36 19 36 -34z m110 37 c-1 -14 -49 -107 -50 -96 0 3 9 27 19 52
l20 45 -32 4 c-31 4 -31 4 6 5 24 1 37 -2 37 -10z m153 5 c-31 -6 -29 -29 2
-37 43 -11 26 -67 -19 -65 -18 1 -17 2 4 8 32 9 34 45 3 49 -17 3 -23 10 -23
28 0 20 5 24 28 23 23 -2 24 -2 5 -6z m117 -5 c-1 -14 -49 -107 -50 -96 0 3 9
27 19 52 l20 45 -32 4 c-31 4 -31 4 6 5 24 1 37 -2 37 -10z m170 -27 c0 -22 4
-41 9 -43 5 -1 3 -9 -5 -16 -8 -7 -14 -8 -14 -2 0 5 -11 10 -25 10 -30 0 -31
9 -4 54 27 47 39 45 39 -3z m80 -10 c0 -30 5 -51 13 -54 6 -3 -4 -5 -23 -5
-19 0 -29 2 -22 5 7 2 12 22 12 45 0 34 -3 39 -17 34 -15 -5 -15 -4 1 9 31 23
36 19 36 -34z m1448 36 c7 -8 7 -18 2 -27 -6 -9 -5 -17 3 -22 18 -11 -5 -43
-34 -45 l-24 -2 24 7 c33 10 38 30 9 41 -17 7 -18 10 -5 10 26 1 22 39 -5 44
-22 4 -22 4 -2 6 12 0 26 -5 32 -12z m-3865 -48 c22 -2 22 -2 0 -6 -13 -2 -24
-12 -24 -21 -1 -15 -2 -15 -6 1 -2 9 -12 18 -21 18 -15 1 -15 2 1 6 9 2 18 12
18 21 1 15 2 15 6 0 2 -10 14 -19 26 -19z m1967 21 c0 -5 -4 -10 -10 -10 -5 0
-10 5 -10 10 0 6 5 10 10 10 6 0 10 -4 10 -10z m270 0 c0 -5 -4 -10 -10 -10
-5 0 -10 5 -10 10 0 6 5 10 10 10 6 0 10 -4 10 -10z m-1882 -17 c-10 -2 -28
-2 -40 0 -13 2 -5 4 17 4 22 1 32 -1 23 -4z m3439 -19 c8 -21 -13 -42 -28 -27
-13 13 -5 43 11 43 6 0 13 -7 17 -16z m-3439 -11 c-10 -2 -28 -2 -40 0 -13 2
-5 4 17 4 22 1 32 -1 23 -4z m1612 -13 c0 -5 -4 -10 -10 -10 -5 0 -10 5 -10
10 0 6 5 10 10 10 6 0 10 -4 10 -10z m270 0 c0 -5 -4 -10 -10 -10 -5 0 -10 5
-10 10 0 6 5 10 10 10 6 0 10 -4 10 -10z m-2342 -97 c-15 -4 -18 -16 -18 -68
0 -52 3 -64 18 -68 13 -4 11 -5 -5 -6 -22 -1 -23 3 -23 74 0 71 1 75 23 74 16
-1 18 -2 5 -6z m182 -68 c0 -65 -2 -75 -17 -74 -11 0 -13 3 -5 6 8 3 12 27 12
68 0 41 -4 65 -12 68 -8 3 -6 6 5 6 15 1 17 -9 17 -74z m3580 55 c0 -11 -4
-20 -10 -20 -5 0 -10 9 -10 20 0 11 5 20 10 20 6 0 10 -9 10 -20z m27 -12 c-3
-7 -5 -2 -5 12 0 14 2 19 5 13 2 -7 2 -19 0 -25z m70 12 c5 -19 6 -19 25 3
l20 22 -18 -30 c-32 -55 -64 -100 -64 -90 0 6 9 21 20 35 25 32 25 39 0 33
-16 -4 -20 0 -20 21 0 31 29 36 37 6z m360 0 c5 -19 6 -19 25 3 l20 22 -18
-30 c-32 -55 -64 -100 -64 -90 0 6 9 21 20 35 25 32 25 39 0 33 -16 -4 -20 0
-20 21 0 31 29 36 37 6z m83 0 c0 -11 -4 -20 -10 -20 -5 0 -10 9 -10 20 0 11
5 20 10 20 6 0 10 -9 10 -20z m27 -12 c-3 -7 -5 -2 -5 12 0 14 2 19 5 13 2 -7
2 -19 0 -25z m-3977 9 c-18 -9 -25 -21 -25 -42 0 -21 7 -33 25 -42 24 -12 24
-13 3 -13 -39 0 -58 64 -27 94 8 9 23 16 32 16 12 0 9 -4 -8 -13z m1540 -36
c0 -30 5 -51 13 -54 6 -3 -4 -5 -23 -5 -19 0 -29 2 -22 5 7 2 12 22 12 45 0
34 -3 39 -17 34 -15 -5 -15 -4 1 9 31 23 36 19 36 -34z m110 37 c-1 -14 -49
-107 -50 -96 0 3 9 27 19 52 l20 45 -32 4 c-31 4 -31 4 6 5 24 1 37 -2 37 -10z
m153 5 c-31 -6 -29 -29 2 -37 43 -11 26 -67 -19 -65 -18 1 -17 2 4 8 32 9 34
45 3 49 -17 3 -23 10 -23 28 0 20 5 24 28 23 23 -2 24 -2 5 -6z m117 -5 c-1
-14 -49 -107 -50 -96 0 3 9 27 19 52 l20 45 -32 4 c-31 4 -31 4 6 5 24 1 37
-2 37 -10z m170 -27 c0 -22 4 -41 9 -43 5 -1 3 -9 -5 -16 -8 -7 -14 -8 -14 -2
0 5 -11 10 -25 10 -30 0 -31 9 -4 54 27 47 39 45 39 -3z m80 -10 c0 -30 5 -51
13 -54 6 -3 -4 -5 -23 -5 -19 0 -29 2 -22 5 7 2 12 22 12 45 0 34 -3 39 -17
34 -15 -5 -15 -4 1 9 31 23 36 19 36 -34z m1438 42 c-20 -3 -28 -10 -28 -24 0
-14 7 -19 28 -20 l27 -2 -27 -4 c-19 -3 -28 -10 -28 -23 0 -13 9 -20 28 -23
25 -4 25 -4 -5 -6 l-33 -1 0 55 0 55 33 -1 c30 -2 30 -2 5 -6z m92 -13 c6 11
15 20 20 20 5 0 2 -13 -7 -29 -16 -27 -16 -30 0 -55 10 -14 14 -26 10 -26 -5
0 -14 9 -21 21 l-13 20 -19 -23 c-23 -28 -26 -17 -4 17 14 22 14 26 -1 52
l-17 28 20 -23 c21 -23 21 -23 32 -2z m103 13 c-20 -4 -23 -11 -25 -56 l-2
-52 -3 52 c-3 38 -8 53 -21 56 -9 3 3 5 28 4 25 0 35 -2 23 -4z m-4050 -54
c22 -2 22 -2 0 -6 -13 -2 -24 -12 -24 -21 -1 -15 -2 -15 -6 1 -2 9 -12 18 -21
18 -15 1 -15 2 1 6 9 2 18 12 18 21 1 15 2 15 6 0 2 -10 14 -19 26 -19z m1967
21 c0 -5 -4 -10 -10 -10 -5 0 -10 5 -10 10 0 6 5 10 10 10 6 0 10 -4 10 -10z
m270 0 c0 -5 -4 -10 -10 -10 -5 0 -10 5 -10 10 0 6 5 10 10 10 6 0 10 -4 10
-10z m-1882 -17 c-10 -2 -28 -2 -40 0 -13 2 -5 4 17 4 22 1 32 -1 23 -4z
m3439 -19 c8 -21 -13 -42 -28 -27 -13 13 -5 43 11 43 6 0 13 -7 17 -16z m360
0 c8 -21 -13 -42 -28 -27 -13 13 -5 43 11 43 6 0 13 -7 17 -16z m-3799 -11
c-10 -2 -28 -2 -40 0 -13 2 -5 4 17 4 22 1 32 -1 23 -4z m1612 -13 c0 -5 -4
-10 -10 -10 -5 0 -10 5 -10 10 0 6 5 10 10 10 6 0 10 -4 10 -10z m270 0 c0 -5
-4 -10 -10 -10 -5 0 -10 5 -10 10 0 6 5 10 10 10 6 0 10 -4 10 -10z m-2342
-97 c-15 -4 -18 -16 -18 -68 0 -52 3 -64 18 -68 13 -4 11 -5 -5 -6 -22 -1 -23
3 -23 74 0 71 1 75 23 74 16 -1 18 -2 5 -6z m182 -68 c0 -65 -2 -75 -17 -74
-11 0 -13 3 -5 6 17 7 17 129 0 136 -8 3 -6 6 5 6 15 1 17 -9 17 -74z m3580
55 c0 -11 -4 -20 -10 -20 -5 0 -10 9 -10 20 0 11 5 20 10 20 6 0 10 -9 10 -20z
m27 -12 c-3 -7 -5 -2 -5 12 0 14 2 19 5 13 2 -7 2 -19 0 -25z m70 12 c5 -19 6
-19 25 3 l20 22 -18 -30 c-32 -55 -64 -100 -64 -90 0 6 9 21 20 35 25 32 25
39 0 33 -16 -4 -20 0 -20 21 0 31 29 36 37 6z m116 13 c-28 -5 -32 -42 -5 -44
16 -1 16 -2 0 -6 -12 -3 -19 -15 -20 -36 l-1 -32 -4 33 c-3 21 -10 32 -21 33
-15 1 -15 2 1 6 9 2 17 12 17 22 0 23 9 31 34 30 19 -2 19 -2 -1 -6z m90 0
c-28 -5 -32 -42 -5 -44 16 -1 16 -2 0 -6 -12 -3 -19 -15 -20 -36 l-1 -32 -4
33 c-3 21 -10 32 -21 33 -15 1 -15 2 1 6 9 2 17 12 17 22 0 23 9 31 34 30 19
-2 19 -2 -1 -6z m70 -55 c-13 -35 -29 -67 -34 -73 -6 -5 -3 7 5 28 9 20 23 53
30 72 8 19 17 35 20 35 2 0 -7 -28 -21 -62z m77 42 c0 -11 -4 -20 -10 -20 -5
0 -10 9 -10 20 0 11 5 20 10 20 6 0 10 -9 10 -20z m27 -12 c-3 -7 -5 -2 -5 12
0 14 2 19 5 13 2 -7 2 -19 0 -25z m-3887 9 c-18 -9 -25 -21 -25 -42 0 -21 7
-33 25 -42 24 -12 24 -13 3 -13 -39 0 -58 64 -27 94 8 9 23 16 32 16 12 0 9
-4 -8 -13z m1540 -36 c0 -30 5 -51 13 -54 6 -3 -4 -5 -23 -5 -19 0 -29 2 -22
5 7 2 12 22 12 45 0 34 -3 39 -17 34 -15 -5 -15 -4 1 9 31 23 36 19 36 -34z
m110 37 c-1 -14 -49 -107 -50 -96 0 3 9 27 19 52 l20 45 -32 4 c-31 4 -31 4 6
5 24 1 37 -2 37 -10z m153 5 c-31 -6 -29 -29 2 -37 43 -11 26 -67 -19 -65 -18
1 -17 2 4 8 32 9 34 45 3 49 -17 3 -23 10 -23 28 0 20 5 24 28 23 23 -2 24 -2
5 -6z m117 -5 c-1 -14 -49 -107 -50 -96 0 3 9 27 19 52 l20 45 -32 4 c-31 4
-31 4 6 5 24 1 37 -2 37 -10z m170 -27 c0 -22 4 -41 9 -43 5 -1 3 -9 -5 -16
-8 -7 -14 -8 -14 -2 0 5 -11 10 -25 10 -30 0 -31 9 -4 54 27 47 39 45 39 -3z
m93 18 c8 -12 5 -24 -12 -47 l-21 -31 22 -4 c14 -3 7 -5 -16 -6 l-40 -1 27 28
c33 34 37 77 7 69 -11 -3 -17 -1 -14 4 8 14 35 7 47 -12z m-2430 -40 c22 -2
22 -2 0 -6 -13 -2 -24 -12 -24 -21 -1 -15 -2 -15 -6 1 -2 9 -12 18 -21 18 -15
1 -15 2 1 6 9 2 18 12 18 21 1 15 2 15 6 0 2 -10 14 -19 26 -19z m1967 21 c0
-5 -4 -10 -10 -10 -5 0 -10 5 -10 10 0 6 5 10 10 10 6 0 10 -4 10 -10z m270 0
c0 -5 -4 -10 -10 -10 -5 0 -10 5 -10 10 0 6 5 10 10 10 6 0 10 -4 10 -10z
m-1882 -17 c-10 -2 -28 -2 -40 0 -13 2 -5 4 17 4 22 1 32 -1 23 -4z m3439 -19
c8 -21 -13 -42 -28 -27 -13 13 -5 43 11 43 6 0 13 -7 17 -16z m-3439 -11 c-10
-2 -28 -2 -40 0 -13 2 -5 4 17 4 22 1 32 -1 23 -4z m1612 -13 c0 -5 -4 -10
-10 -10 -5 0 -10 5 -10 10 0 6 5 10 10 10 6 0 10 -4 10 -10z m270 0 c0 -5 -4
-10 -10 -10 -5 0 -10 5 -10 10 0 6 5 10 10 10 6 0 10 -4 10 -10z m-2342 -97
c-15 -4 -18 -16 -18 -68 0 -52 3 -64 18 -68 13 -4 11 -5 -5 -6 -22 -1 -23 3
-23 74 0 71 1 75 23 74 16 -1 18 -2 5 -6z m182 -68 c0 -65 -2 -75 -17 -74 -11
0 -13 3 -5 6 8 3 12 27 12 68 0 41 -4 65 -12 68 -8 3 -6 6 5 6 15 1 17 -9 17
-74z m3580 55 c0 -11 -4 -20 -10 -20 -5 0 -10 9 -10 20 0 11 5 20 10 20 6 0
10 -9 10 -20z m27 -12 c-3 -7 -5 -2 -5 12 0 14 2 19 5 13 2 -7 2 -19 0 -25z
m333 12 c0 -11 -4 -20 -10 -20 -5 0 -10 9 -10 20 0 11 5 20 10 20 6 0 10 -9
10 -20z m27 -12 c-3 -7 -5 -2 -5 12 0 14 2 19 5 13 2 -7 2 -19 0 -25z m-3797
9 c-18 -9 -25 -21 -25 -42 0 -21 7 -33 25 -42 24 -12 24 -13 3 -13 -39 0 -58
64 -27 94 8 9 23 16 32 16 12 0 9 -4 -8 -13z m1540 -36 c0 -30 5 -51 13 -54 6
-3 -4 -5 -23 -5 -19 0 -29 2 -22 5 7 2 12 22 12 45 0 34 -3 39 -17 34 -15 -5
-15 -4 1 9 31 23 36 19 36 -34z m110 37 c-1 -14 -49 -107 -50 -96 0 3 9 27 19
52 l20 45 -32 4 c-31 4 -31 4 6 5 24 1 37 -2 37 -10z m153 5 c-31 -6 -29 -29
2 -37 43 -11 26 -67 -19 -65 -18 1 -17 2 4 8 32 9 34 45 3 49 -17 3 -23 10
-23 28 0 20 5 24 28 23 23 -2 24 -2 5 -6z m117 -5 c-1 -14 -49 -107 -50 -96 0
3 9 27 19 52 l20 45 -32 4 c-31 4 -31 4 6 5 24 1 37 -2 37 -10z m170 -27 c0
-22 4 -41 9 -43 5 -1 3 -9 -5 -16 -8 -7 -14 -8 -14 -2 0 5 -11 10 -25 10 -30
0 -31 9 -4 54 27 47 39 45 39 -3z m88 26 c7 -8 7 -18 2 -27 -6 -9 -5 -17 3
-22 18 -11 -5 -43 -34 -45 l-24 -2 24 7 c33 10 38 30 9 41 -17 7 -18 10 -5 10
26 1 22 39 -5 44 -22 4 -22 4 -2 6 12 0 26 -5 32 -12z m1452 1 c-1 -14 -49
-107 -50 -96 0 3 9 27 19 52 l20 45 -32 4 c-31 4 -31 4 6 5 24 1 37 -2 37 -10z
m-3877 -49 c22 -2 22 -2 0 -6 -13 -2 -24 -12 -24 -21 -1 -15 -2 -15 -6 1 -2 9
-12 18 -21 18 -15 1 -15 2 1 6 9 2 18 12 18 21 1 15 2 15 6 0 2 -10 14 -19 26
-19z m1967 21 c0 -5 -4 -10 -10 -10 -5 0 -10 5 -10 10 0 6 5 10 10 10 6 0 10
-4 10 -10z m270 0 c0 -5 -4 -10 -10 -10 -5 0 -10 5 -10 10 0 6 5 10 10 10 6 0
10 -4 10 -10z m1706 -24 l-26 -35 27 -4 c26 -4 26 -4 -4 -6 -39 -1 -40 2 -12
37 l21 27 -24 6 c-19 6 -18 7 11 8 l33 1 -26 -34z m-3588 7 c-10 -2 -28 -2
-40 0 -13 2 -5 4 17 4 22 1 32 -1 23 -4z m0 -30 c-10 -2 -28 -2 -40 0 -13 2
-5 4 17 4 22 1 32 -1 23 -4z m1612 -13 c0 -5 -4 -10 -10 -10 -5 0 -10 5 -10
10 0 6 5 10 10 10 6 0 10 -4 10 -10z m270 0 c0 -5 -4 -10 -10 -10 -5 0 -10 5
-10 10 0 6 5 10 10 10 6 0 10 -4 10 -10z m1530 0 c0 -5 -4 -10 -10 -10 -5 0
-10 5 -10 10 0 6 5 10 10 10 6 0 10 -4 10 -10z m-3872 -97 c-15 -4 -18 -16
-18 -68 0 -52 3 -64 18 -68 13 -4 11 -5 -5 -6 -22 -1 -23 3 -23 74 0 71 1 75
23 74 16 -1 18 -2 5 -6z m182 -68 c0 -65 -2 -75 -17 -74 -11 0 -13 3 -5 6 8 3
12 27 12 68 0 41 -4 65 -12 68 -8 3 -6 6 5 6 15 1 17 -9 17 -74z m3580 55 c0
-11 -4 -20 -10 -20 -5 0 -10 9 -10 20 0 11 5 20 10 20 6 0 10 -9 10 -20z m27
-12 c-3 -7 -5 -2 -5 12 0 14 2 19 5 13 2 -7 2 -19 0 -25z m443 -22 c0 -34 5
-56 13 -59 6 -3 -4 -5 -23 -5 -19 0 -29 2 -22 5 7 3 12 24 12 53 0 29 -5 50
-12 53 -7 3 -3 6 10 6 20 1 22 -3 22 -53z m340 34 c0 -11 -4 -20 -10 -20 -5 0
-10 9 -10 20 0 11 5 20 10 20 6 0 10 -9 10 -20z m27 -12 c-3 -7 -5 -2 -5 12 0
14 2 19 5 13 2 -7 2 -19 0 -25z m-4247 9 c-18 -9 -25 -21 -25 -42 0 -21 7 -33
25 -42 24 -12 24 -13 3 -13 -39 0 -58 64 -27 94 8 9 23 16 32 16 12 0 9 -4 -8
-13z m1540 -36 c0 -30 5 -51 13 -54 6 -3 -4 -5 -23 -5 -19 0 -29 2 -22 5 7 2
12 22 12 45 0 34 -3 39 -17 34 -15 -5 -15 -4 1 9 31 23 36 19 36 -34z m110 37
c-1 -14 -49 -107 -50 -96 0 3 9 27 19 52 l20 45 -32 4 c-31 4 -31 4 6 5 24 1
37 -2 37 -10z m153 5 c-31 -6 -29 -29 2 -37 43 -11 26 -67 -19 -65 -18 1 -17
2 4 8 32 9 34 45 3 49 -17 3 -23 10 -23 28 0 20 5 24 28 23 23 -2 24 -2 5 -6z
m117 -5 c-1 -14 -49 -107 -50 -96 0 3 9 27 19 52 l20 45 -32 4 c-31 4 -31 4 6
5 24 1 37 -2 37 -10z m170 -27 c0 -22 4 -41 9 -43 5 -1 3 -9 -5 -16 -8 -7 -14
-8 -14 -2 0 5 -11 10 -25 10 -30 0 -31 9 -4 54 27 47 39 45 39 -3z m90 0 c0
-22 4 -41 9 -43 5 -1 3 -9 -5 -16 -8 -7 -14 -8 -14 -2 0 5 -11 10 -25 10 -30
0 -31 9 -4 54 27 47 39 45 39 -3z m1439 -2 c7 -23 15 -48 18 -58 4 -14 3 -14
-10 2 -16 20 -53 23 -60 5 -2 -7 -3 -2 -1 12 4 35 22 80 32 80 5 0 14 -18 21
-41z m455 25 c9 -8 16 -23 16 -32 0 -29 -30 -62 -56 -62 -23 0 -24 3 -24 55 0
52 2 55 24 55 14 0 32 -7 40 -16z m91 -39 c0 -47 -2 -50 -27 -53 -28 -3 -28
-3 -28 53 0 56 0 56 28 53 25 -3 27 -6 27 -53z m-4412 -6 c22 -2 22 -2 0 -6
-13 -2 -24 -12 -24 -21 -1 -15 -2 -15 -6 1 -2 9 -12 18 -21 18 -15 1 -15 2 1
6 9 2 18 12 18 21 1 15 2 15 6 0 2 -10 14 -19 26 -19z m1967 21 c0 -5 -4 -10
-10 -10 -5 0 -10 5 -10 10 0 6 5 10 10 10 6 0 10 -4 10 -10z m270 0 c0 -5 -4
-10 -10 -10 -5 0 -10 5 -10 10 0 6 5 10 10 10 6 0 10 -4 10 -10z m1728 -27 c3
-27 -1 -33 -22 -39 -14 -3 -27 -13 -29 -22 -3 -10 -5 8 -6 39 -1 55 0 56 27
55 23 -1 27 -6 30 -33z m90 0 c3 -27 -1 -33 -22 -39 -14 -3 -27 -13 -29 -22
-3 -10 -5 8 -6 39 -1 55 0 56 27 55 23 -1 27 -6 30 -33z m180 15 c3 -14 -3
-18 -27 -18 -23 0 -29 -4 -25 -15 4 -8 18 -16 33 -16 24 -2 24 -2 3 -6 -42 -8
-69 36 -40 65 17 17 52 11 56 -10z m-3880 -5 c-10 -2 -28 -2 -40 0 -13 2 -5 4
17 4 22 1 32 -1 23 -4z m0 -30 c-10 -2 -28 -2 -40 0 -13 2 -5 4 17 4 22 1 32
-1 23 -4z m1612 -13 c0 -5 -4 -10 -10 -10 -5 0 -10 5 -10 10 0 6 5 10 10 10 6
0 10 -4 10 -10z m270 0 c0 -5 -4 -10 -10 -10 -5 0 -10 5 -10 10 0 6 5 10 10
10 6 0 10 -4 10 -10z m1530 0 c0 -5 -4 -10 -10 -10 -5 0 -10 5 -10 10 0 6 5
10 10 10 6 0 10 -4 10 -10z m-3872 -97 c-15 -4 -18 -16 -18 -68 0 -52 3 -64
18 -68 13 -4 11 -5 -5 -6 -22 -1 -23 3 -23 74 0 71 1 75 23 74 16 -1 18 -2 5
-6z m182 -68 c0 -65 -2 -75 -17 -74 -11 0 -13 3 -5 6 8 3 12 27 12 68 0 41 -4
65 -12 68 -8 3 -6 6 5 6 15 1 17 -9 17 -74z m3580 55 c0 -11 -4 -20 -10 -20
-5 0 -10 9 -10 20 0 11 5 20 10 20 6 0 10 -9 10 -20z m27 -12 c-3 -7 -5 -2 -5
12 0 14 2 19 5 13 2 -7 2 -19 0 -25z m443 -22 c0 -34 5 -56 13 -59 6 -3 -4 -5
-23 -5 -19 0 -29 2 -22 5 7 3 12 24 12 53 0 29 -5 50 -12 53 -7 3 -3 6 10 6
20 1 22 -3 22 -53z m439 -3 c7 10 18 17 24 17 5 0 2 -9 -7 -19 -17 -18 -17
-20 3 -40 12 -12 17 -21 13 -21 -5 0 -17 9 -28 21 l-19 21 -6 -24 c-4 -13 -7
5 -7 42 1 53 2 58 7 26 5 -35 7 -38 20 -23z m351 37 c0 -11 -4 -20 -10 -20 -5
0 -10 9 -10 20 0 11 5 20 10 20 6 0 10 -9 10 -20z m27 -12 c-3 -7 -5 -2 -5 12
0 14 2 19 5 13 2 -7 2 -19 0 -25z m-4697 9 c-18 -9 -25 -21 -25 -42 0 -21 7
-33 25 -42 24 -12 24 -13 3 -13 -39 0 -58 64 -27 94 8 9 23 16 32 16 12 0 9
-4 -8 -13z m1540 -36 c0 -30 5 -51 13 -54 6 -3 -4 -5 -23 -5 -19 0 -29 2 -22
5 7 2 12 22 12 45 0 34 -3 39 -17 34 -15 -5 -15 -4 1 9 31 23 36 19 36 -34z
m110 37 c-1 -14 -49 -107 -50 -96 0 3 9 27 19 52 l20 45 -32 4 c-31 4 -31 4 6
5 24 1 37 -2 37 -10z m153 5 c-31 -6 -29 -29 2 -37 43 -11 26 -67 -19 -65 -18
1 -17 2 4 8 32 9 34 45 3 49 -17 3 -23 10 -23 28 0 20 5 24 28 23 23 -2 24 -2
5 -6z m117 -5 c-1 -14 -49 -107 -50 -96 0 3 9 27 19 52 l20 45 -32 4 c-31 4
-31 4 6 5 24 1 37 -2 37 -10z m170 -27 c0 -22 4 -41 9 -43 5 -1 3 -9 -5 -16
-8 -7 -14 -8 -14 -2 0 5 -11 10 -25 10 -30 0 -31 9 -4 54 27 47 39 45 39 -3z
m73 32 c-31 -6 -29 -29 2 -37 43 -11 26 -67 -19 -65 -18 1 -17 2 4 8 32 9 34
45 3 49 -17 3 -23 10 -23 28 0 20 5 24 28 23 23 -2 24 -2 5 -6z m1456 -34 c7
-23 15 -48 18 -58 4 -14 3 -14 -10 2 -16 20 -53 23 -60 5 -2 -7 -3 -2 -1 12 4
35 22 80 32 80 5 0 14 -18 21 -41z m455 25 c9 -8 16 -23 16 -32 0 -29 -30 -62
-56 -62 -23 0 -24 3 -24 55 0 52 2 55 24 55 14 0 32 -7 40 -16z m349 -15 c22
-2 22 -2 0 -6 -17 -3 -23 -11 -23 -29 0 -16 8 -28 23 -34 22 -10 22 -10 -3 -7
-20 1 -26 8 -28 32 -2 16 -9 33 -15 37 -9 6 -9 8 1 8 6 0 13 8 13 18 1 16 2
16 6 0 2 -10 14 -19 26 -19z m-4670 -30 c22 -2 22 -2 0 -6 -13 -2 -24 -12 -24
-21 -1 -15 -2 -15 -6 1 -2 9 -12 18 -21 18 -15 1 -15 2 1 6 9 2 18 12 18 21 1
15 2 15 6 0 2 -10 14 -19 26 -19z m1967 21 c0 -5 -4 -10 -10 -10 -5 0 -10 5
-10 10 0 6 5 10 10 10 6 0 10 -4 10 -10z m270 0 c0 -5 -4 -10 -10 -10 -5 0
-10 5 -10 10 0 6 5 10 10 10 6 0 10 -4 10 -10z m1728 -27 c3 -27 -1 -33 -22
-39 -14 -3 -27 -13 -29 -22 -3 -10 -5 8 -6 39 -1 55 0 56 27 55 23 -1 27 -6
30 -33z m90 0 c3 -27 -1 -33 -22 -39 -14 -3 -27 -13 -29 -22 -3 -10 -5 8 -6
39 -1 55 0 56 27 55 23 -1 27 -6 30 -33z m180 15 c3 -14 -3 -18 -27 -18 -23 0
-29 -4 -25 -15 4 -8 18 -16 33 -16 24 -2 24 -2 3 -6 -42 -8 -69 36 -40 65 17
17 52 11 56 -10z m180 0 c3 -14 -3 -18 -27 -18 -23 0 -29 -4 -25 -15 4 -8 18
-16 33 -16 24 -2 24 -2 3 -6 -42 -8 -69 36 -40 65 17 17 52 11 56 -10z m65 15
c-30 -6 -29 -17 3 -32 33 -14 26 -35 -12 -38 -18 -1 -21 0 -9 4 34 9 39 22 11
29 -40 10 -33 45 8 43 19 -2 19 -2 -1 -6z m292 -33 c0 -38 -24 -52 -50 -30
-31 25 -9 73 30 68 16 -2 20 -11 20 -38z m93 3 c3 -27 -1 -33 -22 -39 -14 -3
-27 -13 -29 -22 -3 -10 -5 8 -6 39 -1 55 0 56 27 55 23 -1 27 -6 30 -33z
m-4510 10 c-10 -2 -28 -2 -40 0 -13 2 -5 4 17 4 22 1 32 -1 23 -4z m0 -30
c-10 -2 -28 -2 -40 0 -13 2 -5 4 17 4 22 1 32 -1 23 -4z m1612 -13 c0 -5 -4
-10 -10 -10 -5 0 -10 5 -10 10 0 6 5 10 10 10 6 0 10 -4 10 -10z m270 0 c0 -5
-4 -10 -10 -10 -5 0 -10 5 -10 10 0 6 5 10 10 10 6 0 10 -4 10 -10z m1530 0
c0 -5 -4 -10 -10 -10 -5 0 -10 5 -10 10 0 6 5 10 10 10 6 0 10 -4 10 -10z
m-3872 -97 c-15 -4 -18 -16 -18 -68 0 -52 3 -64 18 -68 13 -4 11 -5 -5 -6 -22
-1 -23 3 -23 74 0 71 1 75 23 74 16 -1 18 -2 5 -6z m182 -68 c0 -65 -2 -75
-17 -74 -11 0 -13 3 -5 6 17 7 17 129 0 136 -8 3 -6 6 5 6 15 1 17 -9 17 -74z
m3580 55 c0 -11 -4 -20 -10 -20 -5 0 -10 9 -10 20 0 11 5 20 10 20 6 0 10 -9
10 -20z m27 -12 c-3 -7 -5 -2 -5 12 0 14 2 19 5 13 2 -7 2 -19 0 -25z m443
-22 c0 -34 5 -56 13 -59 6 -3 -4 -5 -23 -5 -19 0 -29 2 -22 5 7 3 12 24 12 53
0 29 -5 50 -12 53 -7 3 -3 6 10 6 20 1 22 -3 22 -53z m445 9 c15 0 21 -8 23
-29 4 -30 -10 -46 -40 -46 -15 0 -18 9 -17 63 1 39 4 53 8 37 4 -16 13 -25 26
-25z m95 -9 c0 -34 5 -56 13 -59 6 -3 -4 -5 -23 -5 -19 0 -29 2 -22 5 7 3 12
24 12 53 0 29 -5 50 -12 53 -7 3 -3 6 10 6 20 1 22 -3 22 -53z m160 34 c0 -11
-4 -20 -10 -20 -5 0 -10 9 -10 20 0 11 5 20 10 20 6 0 10 -9 10 -20z m27 -12
c-3 -7 -5 -2 -5 12 0 14 2 19 5 13 2 -7 2 -19 0 -25z m-4607 9 c-18 -9 -25
-21 -25 -42 0 -21 7 -33 25 -42 24 -12 24 -13 3 -13 -39 0 -58 64 -27 94 8 9
23 16 32 16 12 0 9 -4 -8 -13z m1540 -36 c0 -30 5 -51 13 -54 6 -3 -4 -5 -23
-5 -19 0 -29 2 -22 5 7 2 12 22 12 45 0 34 -3 39 -17 34 -15 -5 -15 -4 1 9 31
23 36 19 36 -34z m110 37 c-1 -14 -49 -107 -50 -96 0 3 9 27 19 52 l20 45 -32
4 c-31 4 -31 4 6 5 24 1 37 -2 37 -10z m153 5 c-31 -6 -29 -29 2 -37 43 -11
26 -67 -19 -65 -18 1 -17 2 4 8 32 9 34 45 3 49 -17 3 -23 10 -23 28 0 20 5
24 28 23 23 -2 24 -2 5 -6z m117 -5 c-1 -14 -49 -107 -50 -96 0 3 9 27 19 52
l20 45 -32 4 c-31 4 -31 4 6 5 24 1 37 -2 37 -10z m170 -27 c0 -22 4 -41 9
-43 5 -1 3 -9 -5 -16 -8 -7 -14 -8 -14 -2 0 5 -11 10 -25 10 -30 0 -31 9 -4
54 27 47 39 45 39 -3z m73 32 c-31 -6 -29 -29 2 -37 43 -11 26 -67 -19 -65
-18 1 -17 2 4 8 32 9 34 45 3 49 -17 3 -23 10 -23 28 0 20 5 24 28 23 23 -2
24 -2 5 -6z m1456 -34 c7 -23 15 -48 18 -58 4 -14 3 -14 -10 2 -16 20 -53 23
-60 5 -2 -7 -3 -2 -1 12 4 35 22 80 32 80 5 0 14 -18 21 -41z m455 25 c9 -8
16 -23 16 -32 0 -29 -30 -62 -56 -62 -23 0 -24 3 -24 55 0 52 2 55 24 55 14 0
32 -7 40 -16z m-4321 -45 c22 -2 22 -2 0 -6 -13 -2 -24 -12 -24 -21 -1 -15 -2
-15 -6 1 -2 9 -12 18 -21 18 -15 1 -15 2 1 6 9 2 18 12 18 21 1 15 2 15 6 0 2
-10 14 -19 26 -19z m1967 21 c0 -5 -4 -10 -10 -10 -5 0 -10 5 -10 10 0 6 5 10
10 10 6 0 10 -4 10 -10z m270 0 c0 -5 -4 -10 -10 -10 -5 0 -10 5 -10 10 0 6 5
10 10 10 6 0 10 -4 10 -10z m1728 -27 c3 -27 -1 -33 -22 -39 -14 -3 -27 -13
-29 -22 -3 -10 -5 8 -6 39 -1 55 0 56 27 55 23 -1 27 -6 30 -33z m90 0 c3 -27
-1 -33 -22 -39 -14 -3 -27 -13 -29 -22 -3 -10 -5 8 -6 39 -1 55 0 56 27 55 23
-1 27 -6 30 -33z m180 15 c3 -14 -3 -18 -27 -18 -23 0 -29 -4 -25 -15 4 -8 18
-16 33 -16 24 -2 24 -2 3 -6 -42 -8 -69 36 -40 65 17 17 52 11 56 -10z m177
-18 c0 -38 -24 -52 -50 -30 -31 25 -9 73 30 68 16 -2 20 -11 20 -38z m63 -28
c11 2 19 17 23 38 l6 35 2 -40 c1 -38 -1 -41 -29 -43 -29 -2 -30 -1 -28 40 l1
43 4 -38 c3 -29 8 -37 21 -35z m300 46 c3 -14 -3 -18 -27 -18 -23 0 -29 -4
-25 -15 4 -8 18 -16 33 -16 24 -2 24 -2 3 -6 -42 -8 -69 36 -40 65 17 17 52
11 56 -10z m-4420 -5 c-10 -2 -28 -2 -40 0 -13 2 -5 4 17 4 22 1 32 -1 23 -4z
m0 -30 c-10 -2 -28 -2 -40 0 -13 2 -5 4 17 4 22 1 32 -1 23 -4z m1612 -13 c0
-5 -4 -10 -10 -10 -5 0 -10 5 -10 10 0 6 5 10 10 10 6 0 10 -4 10 -10z m270 0
c0 -5 -4 -10 -10 -10 -5 0 -10 5 -10 10 0 6 5 10 10 10 6 0 10 -4 10 -10z
m1530 0 c0 -5 -4 -10 -10 -10 -5 0 -10 5 -10 10 0 6 5 10 10 10 6 0 10 -4 10
-10z m-3872 -297 c-15 -4 -18 -16 -18 -68 0 -52 3 -64 18 -68 13 -4 11 -5 -5
-6 -22 -1 -23 3 -23 74 0 71 1 75 23 74 16 -1 18 -2 5 -6z m79 -60 c-2 -16 -4
-5 -4 22 0 28 2 40 4 28 2 -13 2 -35 0 -50z m103 -8 c0 -65 -2 -75 -17 -74
-11 0 -13 3 -5 6 8 3 12 27 12 68 0 41 -4 65 -12 68 -8 3 -6 6 5 6 15 1 17 -9
17 -74z m-90 -35 c0 -5 -4 -10 -10 -10 -5 0 -10 5 -10 10 0 6 5 10 10 10 6 0
10 -4 10 -10z m180 0 c0 -5 -4 -10 -10 -10 -5 0 -10 5 -10 10 0 6 5 10 10 10
6 0 10 -4 10 -10z m90 0 c0 -5 -4 -10 -10 -10 -5 0 -10 5 -10 10 0 6 5 10 10
10 6 0 10 -4 10 -10z m90 0 c0 -5 -4 -10 -10 -10 -5 0 -10 5 -10 10 0 6 5 10
10 10 6 0 10 -4 10 -10z"/>
<path d="M360 3104 c0 -9 7 -14 17 -12 25 5 28 28 4 28 -12 0 -21 -6 -21 -16z"/>
<path d="M540 3135 c0 -10 7 -15 18 -13 21 4 19 22 -2 26 -10 2 -16 -3 -16
-13z"/>
<path d="M530 3070 c0 -5 11 -10 25 -10 14 0 25 5 25 10 0 6 -11 10 -25 10
-14 0 -25 -4 -25 -10z"/>
<path d="M625 3140 c-4 -6 5 -10 19 -10 14 0 26 5 26 10 0 6 -9 10 -19 10 -11
0 -23 -4 -26 -10z"/>
<path d="M1267 3143 c-4 -3 -7 -17 -7 -30 0 -35 34 -26 38 10 3 26 -14 37 -31
20z"/>
<path d="M1627 3143 c-4 -3 -7 -17 -7 -30 0 -35 34 -26 38 10 3 26 -14 37 -31
20z"/>
<path d="M2064 3136 c-9 -24 4 -48 23 -44 12 2 18 12 18 28 0 29 -32 41 -41
16z"/>
<path d="M2244 3136 c-9 -24 4 -48 23 -44 12 2 18 12 18 28 0 29 -32 41 -41
16z"/>
<path d="M2340 3135 c0 -10 7 -15 18 -13 21 4 19 22 -2 26 -10 2 -16 -3 -16
-13z"/>
<path d="M2330 3070 c0 -5 11 -10 25 -10 14 0 25 5 25 10 0 6 -11 10 -25 10
-14 0 -25 -4 -25 -10z"/>
<path d="M3150 3104 c0 -9 7 -14 17 -12 25 5 28 28 4 28 -12 0 -21 -6 -21 -16z"/>
<path d="M3414 3136 c-9 -24 4 -48 23 -44 12 2 18 12 18 28 0 29 -32 41 -41
16z"/>
<path d="M450 2760 c0 -15 5 -20 18 -18 9 2 17 10 17 18 0 8 -8 16 -17 18 -13
2 -18 -3 -18 -18z"/>
<path d="M3690 2755 c0 -20 4 -26 18 -23 9 2 17 12 17 23 0 11 -8 21 -17 23
-14 3 -18 -3 -18 -23z"/>
<path d="M535 2740 c-4 -6 5 -10 19 -10 14 0 26 5 26 10 0 6 -9 10 -19 10 -11
0 -23 -4 -26 -10z"/>
<path d="M727 2743 c-4 -3 -7 -17 -7 -30 0 -35 34 -26 38 10 3 26 -14 37 -31
20z"/>
<path d="M804 2736 c-9 -24 4 -48 23 -44 12 2 18 12 18 28 0 29 -32 41 -41 16z"/>
<path d="M1075 2740 c-4 -6 5 -10 19 -10 14 0 26 5 26 10 0 6 -9 10 -19 10
-11 0 -23 -4 -26 -10z"/>
<path d="M2155 2740 c-4 -6 5 -10 19 -10 14 0 26 5 26 10 0 6 -9 10 -19 10
-11 0 -23 -4 -26 -10z"/>
<path d="M3780 2704 c0 -9 7 -14 17 -12 25 5 28 28 4 28 -12 0 -21 -6 -21 -16z"/>
<path d="M4044 2736 c-9 -24 4 -48 23 -44 12 2 18 12 18 28 0 29 -32 41 -41
16z"/>
<path d="M4140 2704 c0 -9 7 -14 17 -12 25 5 28 28 4 28 -12 0 -21 -6 -21 -16z"/>
<path d="M2612 2363 c2 -10 10 -18 18 -18 8 0 16 8 18 18 2 12 -3 17 -18 17
-15 0 -20 -5 -18 -17z"/>
<path d="M2612 2317 c-14 -16 -6 -27 20 -27 13 0 18 6 16 17 -4 22 -22 27 -36
10z"/>
<path d="M4140 2335 c0 -10 7 -15 18 -13 21 4 19 22 -2 26 -10 2 -16 -3 -16
-13z"/>
<path d="M4130 2270 c0 -5 11 -10 25 -10 14 0 25 5 25 10 0 6 -11 10 -25 10
-14 0 -25 -4 -25 -10z"/>
<path d="M4500 2335 c0 -10 7 -15 18 -13 21 4 19 22 -2 26 -10 2 -16 -3 -16
-13z"/>
<path d="M4490 2270 c0 -5 11 -10 25 -10 14 0 25 5 25 10 0 6 -11 10 -25 10
-14 0 -25 -4 -25 -10z"/>
<path d="M4674 2336 c-9 -24 4 -48 23 -44 12 2 18 12 18 28 0 29 -32 41 -41
16z"/>
<path d="M4855 2340 c-4 -6 5 -10 19 -10 14 0 26 5 26 10 0 6 -9 10 -19 10
-11 0 -23 -4 -26 -10z"/>
<path d="M2604 2165 c-4 -9 -2 -21 4 -27 15 -15 44 -1 40 19 -4 23 -36 29 -44
8z"/>
<path d="M4320 2104 c0 -9 7 -14 17 -12 25 5 28 28 4 28 -12 0 -21 -6 -21 -16z"/>
<path d="M4585 2140 c-4 -6 5 -10 19 -10 14 0 26 5 26 10 0 6 -9 10 -19 10
-11 0 -23 -4 -26 -10z"/>
<path d="M2525 1940 c-15 -29 -15 -30 5 -30 16 0 20 7 20 30 0 17 -2 30 -5 30
-2 0 -11 -13 -20 -30z"/>
<path d="M2605 1961 c-9 -30 5 -73 24 -69 23 5 23 81 -1 86 -9 2 -19 -5 -23
-17z m35 -15 c0 -2 -8 -10 -17 -17 -16 -13 -17 -12 -4 4 13 16 21 21 21 13z"/>
<path d="M4327 1943 c-4 -3 -7 -17 -7 -30 0 -35 34 -26 38 10 3 26 -14 37 -31
20z"/>
<path d="M4410 1904 c0 -9 7 -14 17 -12 25 5 28 28 4 28 -12 0 -21 -6 -21 -16z"/>
<path d="M3950 1775 c0 -8 5 -15 10 -15 6 0 10 7 10 15 0 8 -4 15 -10 15 -5 0
-10 -7 -10 -15z"/>
<path d="M2525 1740 c-15 -29 -15 -30 5 -30 16 0 20 7 20 30 0 17 -2 30 -5 30
-2 0 -11 -13 -20 -30z"/>
<path d="M3990 1705 c0 -8 5 -15 10 -15 6 0 10 7 10 15 0 8 -4 15 -10 15 -5 0
-10 -7 -10 -15z"/>
<path d="M3950 1575 c0 -8 5 -15 10 -15 6 0 10 7 10 15 0 8 -4 15 -10 15 -5 0
-10 -7 -10 -15z"/>
<path d="M4310 1575 c0 -8 5 -15 10 -15 6 0 10 7 10 15 0 8 -4 15 -10 15 -5 0
-10 -7 -10 -15z"/>
<path d="M2525 1540 c-15 -29 -15 -30 5 -30 16 0 20 7 20 30 0 17 -2 30 -5 30
-2 0 -11 -13 -20 -30z"/>
<path d="M3990 1505 c0 -8 5 -15 10 -15 6 0 10 7 10 15 0 8 -4 15 -10 15 -5 0
-10 -7 -10 -15z"/>
<path d="M4350 1505 c0 -8 5 -15 10 -15 6 0 10 7 10 15 0 8 -4 15 -10 15 -5 0
-10 -7 -10 -15z"/>
<path d="M3950 1375 c0 -8 5 -15 10 -15 6 0 10 7 10 15 0 8 -4 15 -10 15 -5 0
-10 -7 -10 -15z"/>
<path d="M2525 1340 c-15 -29 -15 -30 5 -30 16 0 20 7 20 30 0 17 -2 30 -5 30
-2 0 -11 -13 -20 -30z"/>
<path d="M3990 1305 c0 -8 5 -15 10 -15 6 0 10 7 10 15 0 8 -4 15 -10 15 -5 0
-10 -7 -10 -15z"/>
<path d="M2525 1140 c-15 -29 -15 -30 5 -30 16 0 20 7 20 30 0 17 -2 30 -5 30
-2 0 -11 -13 -20 -30z"/>
<path d="M2525 940 c-15 -29 -15 -30 5 -30 16 0 20 7 20 30 0 17 -2 30 -5 30
-2 0 -11 -13 -20 -30z"/>
<path d="M2615 940 c-15 -29 -15 -30 5 -30 16 0 20 7 20 30 0 17 -2 30 -5 30
-2 0 -11 -13 -20 -30z"/>
<path d="M4056 956 c-8 -32 -4 -39 17 -34 13 2 13 8 3 33 l-13 30 -7 -29z"/>
<path d="M4490 935 c0 -42 2 -46 23 -43 19 3 22 9 22 43 0 34 -3 40 -22 43
-21 3 -23 -1 -23 -43z"/>
<path d="M4590 960 c0 -15 5 -20 18 -18 9 2 17 10 17 18 0 8 -8 16 -17 18 -13
2 -18 -3 -18 -18z"/>
<path d="M4590 910 c0 -15 5 -20 18 -18 9 2 17 10 17 18 0 8 -8 16 -17 18 -13
2 -18 -3 -18 -18z"/>
<path d="M4147 943 c-4 -3 -7 -17 -7 -30 0 -35 34 -26 38 10 3 26 -14 37 -31
20z"/>
<path d="M4237 943 c-4 -3 -7 -17 -7 -30 0 -35 34 -26 38 10 3 26 -14 37 -31
20z"/>
<path d="M4405 940 c-4 -6 5 -10 19 -10 14 0 26 5 26 10 0 6 -9 10 -19 10 -11
0 -23 -4 -26 -10z"/>
<path d="M2525 740 c-15 -29 -15 -30 5 -30 16 0 20 7 20 30 0 17 -2 30 -5 30
-2 0 -11 -13 -20 -30z"/>
<path d="M4056 756 c-8 -32 -4 -39 17 -34 13 2 13 8 3 33 l-13 30 -7 -29z"/>
<path d="M4490 735 c0 -42 2 -46 23 -43 19 3 22 9 22 43 0 34 -3 40 -22 43
-21 3 -23 -1 -23 -43z"/>
<path d="M4147 743 c-4 -3 -7 -17 -7 -30 0 -35 34 -26 38 10 3 26 -14 37 -31
20z"/>
<path d="M4237 743 c-4 -3 -7 -17 -7 -30 0 -35 34 -26 38 10 3 26 -14 37 -31
20z"/>
<path d="M4405 740 c-4 -6 5 -10 19 -10 14 0 26 5 26 10 0 6 -9 10 -19 10 -11
0 -23 -4 -26 -10z"/>
<path d="M4585 740 c-4 -6 5 -10 19 -10 14 0 26 5 26 10 0 6 -9 10 -19 10 -11
0 -23 -4 -26 -10z"/>
<path d="M4944 736 c-9 -24 4 -48 23 -44 12 2 18 12 18 28 0 29 -32 41 -41 16z"/>
<path d="M5047 743 c-4 -3 -7 -17 -7 -30 0 -35 34 -26 38 10 3 26 -14 37 -31
20z"/>
<path d="M4777 543 c-4 -3 -7 -17 -7 -30 0 -35 34 -26 38 10 3 26 -14 37 -31
20z"/>
<path d="M2525 540 c-15 -29 -15 -30 5 -30 16 0 20 7 20 30 0 17 -2 30 -5 30
-2 0 -11 -13 -20 -30z"/>
<path d="M4056 556 c-8 -32 -4 -39 17 -34 13 2 13 8 3 33 l-13 30 -7 -29z"/>
<path d="M4490 535 c0 -42 2 -46 23 -43 19 3 22 9 22 43 0 34 -3 40 -22 43
-21 3 -23 -1 -23 -43z"/>
<path d="M4147 543 c-4 -3 -7 -17 -7 -30 0 -35 34 -26 38 10 3 26 -14 37 -31
20z"/>
<path d="M4237 543 c-4 -3 -7 -17 -7 -30 0 -35 34 -26 38 10 3 26 -14 37 -31
20z"/>
<path d="M4405 540 c-4 -6 5 -10 19 -10 14 0 26 5 26 10 0 6 -9 10 -19 10 -11
0 -23 -4 -26 -10z"/>
<path d="M4584 536 c-9 -24 4 -48 23 -44 12 2 18 12 18 28 0 29 -32 41 -41 16z"/>
<path d="M4945 540 c-4 -6 5 -10 19 -10 14 0 26 5 26 10 0 6 -9 10 -19 10 -11
0 -23 -4 -26 -10z"/>
</g>
</svg>
