<?xml version="1.0" standalone="no"?>
<!DOCTYPE svg PUBLIC "-//W3C//DTD SVG 20010904//EN"
 "http://www.w3.org/TR/2001/REC-SVG-20010904/DTD/svg10.dtd">
<svg version="1.0" xmlns="http://www.w3.org/2000/svg"
 width="641.000000pt" height="257.000000pt" viewBox="0 0 641.000000 257.000000"
 preserveAspectRatio="xMidYMid meet">

<g transform="translate(0.000000,257.000000) scale(0.100000,-0.100000)"
fill="#000000" stroke="none">
<path d="M0 1285 l0 -1285 3205 0 3205 0 0 1285 0 1285 -3205 0 -3205 0 0
-1285z m660 1220 c0 -18 -5 -25 -20 -25 -22 0 -27 -15 -7 -23 6 -3 3 -6 -8 -6
-17 -1 -20 5 -20 39 0 37 2 40 28 40 22 0 27 -4 27 -25z m140 17 c-23 -4 -24
-5 -5 -13 17 -6 17 -8 3 -8 -11 -1 -18 -9 -18 -20 0 -11 8 -22 18 -24 9 -3 1
-5 -18 -5 -19 0 -29 2 -22 5 17 7 15 43 -3 43 -16 0 -48 -54 -38 -64 4 -3 -5
-6 -18 -6 -17 0 -20 3 -11 9 12 7 11 14 -2 40 -15 28 -15 31 -1 31 9 0 14 -4
11 -8 -2 -4 0 -14 5 -22 7 -12 10 -11 15 8 4 15 14 22 30 22 13 0 24 5 24 10
0 6 12 9 28 9 27 -2 27 -2 2 -7z m783 1 c-7 -2 -13 -22 -13 -43 0 -21 6 -41
13 -43 7 -3 5 -6 -5 -6 -15 -1 -18 8 -18 49 0 41 3 50 18 49 10 0 12 -3 5 -6z
m127 -2 c0 -5 8 -11 19 -14 10 -2 20 -16 23 -31 5 -24 3 -26 -31 -26 -35 0
-36 1 -36 40 0 25 5 40 13 40 6 0 12 -4 12 -9z m100 -41 c0 -33 -4 -50 -12
-50 -9 0 -13 17 -13 50 0 33 4 50 13 50 8 0 12 -17 12 -50z m163 43 c-7 -2
-13 -22 -13 -43 0 -21 6 -41 13 -43 7 -3 5 -6 -5 -6 -15 -1 -18 8 -18 49 0 41
3 50 18 49 10 0 12 -3 5 -6z m327 -3 c0 -5 -7 -7 -15 -4 -11 5 -15 -1 -15 -24
0 -17 6 -33 13 -35 6 -3 -1 -5 -18 -5 -16 0 -24 2 -17 5 6 2 12 18 12 34 0 21
-4 27 -15 23 -8 -4 -15 -1 -15 5 0 6 16 11 35 11 19 0 35 -4 35 -10z m616 -15
c1 -11 2 -26 3 -32 1 -7 8 -13 16 -13 19 0 21 56 3 63 -7 3 -2 6 12 6 24 1 26
-2 22 -34 -3 -21 0 -35 7 -35 6 0 11 5 11 10 0 6 5 10 10 10 6 0 10 -7 10 -15
0 -11 -12 -15 -49 -15 -34 0 -51 4 -55 15 -3 8 -10 15 -17 15 -6 0 -9 -7 -5
-15 3 -8 0 -15 -7 -15 -9 0 -12 11 -9 35 3 21 0 35 -7 35 -6 0 -11 -9 -11 -19
0 -34 -12 -51 -35 -51 -25 0 -35 17 -35 56 0 24 2 25 68 22 59 -3 67 -5 68
-23z m144 -25 c0 -33 -4 -50 -12 -50 -9 0 -13 17 -13 50 0 33 4 50 13 50 8 0
12 -17 12 -50z m163 43 c-7 -2 -13 -22 -13 -43 0 -21 6 -41 13 -43 7 -3 5 -6
-5 -6 -15 -1 -18 8 -18 49 0 41 3 50 18 49 10 0 12 -3 5 -6z m362 -10 c6 -17
7 -17 16 0 17 29 35 20 31 -15 -3 -31 -1 -33 27 -35 21 -2 31 2 31 12 0 8 -9
15 -20 15 -13 0 -20 7 -20 20 0 16 7 20 30 20 17 0 30 -5 30 -10 0 -6 -11 -8
-25 -4 -15 4 -25 2 -25 -5 0 -6 9 -11 19 -11 24 0 33 -13 25 -34 -4 -12 -20
-16 -55 -16 -36 0 -47 3 -43 13 3 8 -2 14 -11 14 -9 0 -14 -6 -11 -14 7 -17
-75 -18 -92 -1 -31 31 -5 68 49 68 26 0 39 -5 44 -17z m175 -33 c0 -41 -3 -50
-17 -49 -11 0 -13 3 -5 6 6 2 12 22 12 43 0 21 -6 41 -12 43 -8 3 -6 6 5 6 14
1 17 -8 17 -49z m165 0 c0 -33 -4 -50 -12 -50 -9 0 -13 17 -13 50 0 33 4 50
13 50 8 0 12 -17 12 -50z m278 28 c-3 -17 -2 -19 5 -9 5 7 15 10 21 7 6 -4 11
-3 11 3 0 5 -6 12 -12 14 -7 3 -3 6 8 6 18 1 20 -4 17 -26 -8 -51 -12 -56 -27
-44 -11 9 -15 9 -19 -1 -6 -19 -13 -8 -21 35 -5 29 -4 37 8 37 9 0 13 -7 9
-22z m287 -13 c0 -19 5 -35 11 -35 7 0 10 14 7 35 -4 32 -2 35 22 34 14 0 19
-3 13 -6 -15 -6 -18 -63 -3 -63 6 0 10 5 10 10 0 6 5 10 10 10 6 0 10 -7 10
-15 0 -13 -13 -15 -72 -13 -70 3 -73 4 -73 28 0 18 6 26 23 28 12 2 20 8 17
13 -4 5 1 9 9 9 12 0 16 -10 16 -35z m360 -15 c0 -41 -3 -50 -17 -49 -11 0
-13 3 -5 6 6 2 12 22 12 43 0 21 -6 41 -12 43 -8 3 -6 6 5 6 14 1 17 -8 17
-49z m173 43 c-7 -2 -13 -22 -13 -43 0 -21 6 -41 13 -43 7 -3 5 -6 -5 -6 -15
-1 -18 8 -18 49 0 41 3 50 18 49 10 0 12 -3 5 -6z m152 -3 l-20 -9 20 -1 c17
-2 17 -3 3 -7 -10 -2 -18 -13 -18 -23 0 -10 8 -21 18 -23 9 -3 4 -5 -13 -6
-27 -1 -30 2 -29 27 1 38 11 52 37 51 21 0 21 -1 2 -9z m175 1 c0 -5 -9 -7
-20 -4 -12 3 -20 0 -20 -6 0 -7 5 -9 10 -6 6 3 10 -1 10 -10 0 -9 -4 -13 -10
-10 -5 3 -10 0 -10 -9 0 -8 6 -17 13 -19 6 -3 1 -6 -13 -6 -23 -1 -25 3 -25
39 0 38 1 40 33 40 17 0 32 -4 32 -9z m130 -25 c0 -19 6 -37 13 -39 6 -3 -4
-5 -23 -5 -19 0 -29 2 -22 5 6 2 12 17 12 33 0 16 -6 31 -12 33 -7 3 -3 6 10
6 19 1 22 -4 22 -33z m310 -16 c0 -41 -3 -50 -17 -49 -11 0 -13 3 -5 6 6 2 12
22 12 43 0 21 -6 41 -12 43 -8 3 -6 6 5 6 14 1 17 -8 17 -49z m-3122 22 c-10
-2 -18 -12 -18 -23 0 -16 4 -19 21 -14 15 5 19 4 15 -4 -4 -6 -16 -11 -27 -11
-14 0 -19 7 -19 25 0 14 -6 25 -12 25 -10 0 -9 3 1 9 7 5 23 6 35 3 18 -5 18
-7 4 -10z m2110 0 c-10 -2 -18 -12 -18 -23 0 -16 4 -19 21 -14 15 5 19 4 15
-4 -4 -6 -16 -11 -27 -11 -14 0 -19 7 -19 25 0 14 -6 25 -12 25 -10 0 -9 3 1
9 7 5 23 6 35 3 18 -5 18 -7 4 -10z m784 0 c-15 -2 -22 -9 -20 -20 2 -10 11
-16 22 -14 11 2 15 -1 11 -7 -3 -6 -15 -11 -26 -11 -14 0 -19 7 -19 25 0 14
-6 25 -12 25 -10 0 -10 2 0 9 7 4 25 5 40 2 26 -5 26 -6 4 -9z m-5492 -18 c0
-15 4 -23 11 -18 6 3 9 15 6 25 -3 11 0 19 8 19 7 0 15 -14 17 -31 4 -28 3
-30 -25 -27 -24 2 -32 9 -38 31 -5 20 -4 27 7 27 8 0 14 -10 14 -26z m117 -1
c-2 -22 -8 -29 -30 -31 -15 -2 -27 1 -27 6 0 6 9 8 20 5 11 -3 20 0 20 6 0 6
-9 11 -20 11 -20 0 -26 11 -13 23 3 4 17 7 29 7 19 0 22 -5 21 -27z m75 -3 c4
-27 2 -30 -22 -30 -34 0 -38 5 -32 35 7 39 48 35 54 -5z m80 -10 c-4 -36 -7
-40 -31 -39 l-26 1 25 8 c24 8 24 8 2 9 -46 2 -41 61 5 61 27 0 28 -2 25 -40z
m78 25 c11 -13 8 -15 -14 -15 -34 0 -34 -18 2 -23 25 -4 24 -4 -6 -6 -21 0
-35 4 -38 14 -9 23 3 45 24 45 11 0 25 -7 32 -15z m60 5 c0 -5 -4 -10 -10 -10
-5 0 -10 5 -10 10 0 6 5 10 10 10 6 0 10 -4 10 -10z m370 -15 c0 -28 17 -34
27 -9 3 9 0 20 -8 25 -11 7 -11 9 2 9 11 0 18 -11 21 -31 4 -28 3 -30 -26 -27
-25 2 -32 8 -34 31 -2 15 1 27 7 27 6 0 11 -11 11 -25z m105 -2 c-16 -23 -16
-25 -1 -20 9 4 16 2 16 -3 0 -6 -14 -10 -32 -10 l-31 0 24 26 24 26 -22 -6
c-14 -5 -23 -3 -23 3 0 6 14 11 31 11 l31 0 -17 -27z m74 1 l-24 -26 23 6 c13
5 22 3 22 -3 0 -6 -13 -11 -30 -11 -34 0 -37 6 -13 32 16 18 16 18 0 12 -10
-3 -17 -1 -17 5 0 6 14 11 32 11 l31 0 -24 -26z m99 9 c2 -8 -6 -13 -22 -13
-35 0 -33 -18 2 -23 26 -4 25 -4 -5 -6 -24 -1 -33 4 -38 19 -3 11 -3 25 0 30
9 15 57 8 63 -7z m82 7 c0 -5 -3 -9 -7 -9 -34 6 -48 -26 -15 -34 9 -3 1 -5
-18 -5 -19 0 -29 2 -22 5 6 2 12 13 12 23 0 10 -6 21 -12 23 -7 3 4 6 25 6 20
1 37 -3 37 -9z m149 -4 c17 -21 2 -46 -28 -46 -20 0 -23 -2 -11 -10 12 -8 12
-10 -5 -10 -17 0 -20 7 -20 40 0 37 2 40 26 40 15 0 32 -6 38 -14z m45 -8 c5
-19 8 -20 15 -8 5 8 7 18 5 22 -3 4 2 8 10 8 12 0 12 -5 -2 -40 -12 -28 -23
-40 -37 -40 -17 0 -17 2 -5 10 13 8 13 13 -2 40 -13 23 -14 30 -4 30 8 0 16
-10 20 -22z m696 -3 c0 -28 17 -34 27 -9 3 9 0 20 -8 25 -11 7 -11 9 2 9 11 0
18 -11 21 -31 4 -28 3 -30 -26 -27 -25 2 -32 8 -34 31 -2 15 1 27 7 27 6 0 11
-11 11 -25z m271 -7 c7 -26 5 -28 -21 -28 -34 0 -41 9 -33 39 8 32 45 24 54
-11z m89 22 c0 -5 -3 -9 -7 -9 -34 6 -48 -26 -15 -34 9 -3 1 -5 -18 -5 -19 0
-29 2 -22 5 6 2 12 13 12 23 0 10 -6 21 -12 23 -7 3 4 6 25 6 20 1 37 -3 37
-9z m71 -27 c-5 -31 -11 -38 -31 -40 -21 -2 -22 -1 -6 5 19 8 19 9 -2 14 -13
4 -22 14 -22 25 0 26 8 33 40 33 25 0 27 -2 21 -37z m77 20 c2 -8 -6 -13 -24
-13 -30 0 -23 -15 11 -23 15 -3 13 -5 -8 -6 -29 -1 -43 18 -33 45 7 18 47 15
54 -3z m792 6 c0 -7 -10 -9 -25 -5 -21 5 -25 3 -25 -15 0 -18 4 -20 26 -15 17
5 23 3 19 -4 -10 -15 -55 -12 -61 5 -11 27 4 45 36 45 16 0 30 -5 30 -11z
m650 1 c0 -5 7 -10 16 -10 8 0 12 5 9 10 -3 6 3 10 14 10 17 0 18 -3 8 -30
-12 -30 -27 -40 -27 -17 0 8 -3 7 -10 -3 -10 -16 -12 -15 -28 23 -10 22 -9 27
3 27 8 0 15 -4 15 -10z m278 -22 c3 -24 0 -28 -23 -28 -27 0 -41 20 -31 46 10
27 51 13 54 -18z m82 21 c0 -5 -5 -7 -10 -4 -6 3 -13 -1 -17 -10 -3 -10 0 -21
8 -26 10 -6 3 -9 -21 -9 -24 0 -31 3 -21 9 8 5 12 18 8 30 -4 18 -1 21 24 21
16 0 29 -5 29 -11z m210 -13 c0 -15 7 -26 18 -29 9 -3 -1 -5 -23 -5 -22 0 -32
2 -22 5 20 5 23 39 5 46 -8 3 -6 6 5 6 12 1 17 -7 17 -23z m97 -3 c-2 -22 -8
-29 -30 -31 -15 -2 -27 2 -27 8 0 7 8 9 20 5 11 -3 20 -2 20 3 0 5 -9 12 -21
15 -27 7 -15 27 16 27 20 0 23 -5 22 -27z m683 3 c0 -15 7 -26 18 -29 9 -3 -1
-5 -23 -5 -22 0 -32 2 -22 5 20 5 23 39 5 46 -8 3 -6 6 5 6 12 1 17 -7 17 -23z
m258 7 c2 -8 -6 -13 -24 -13 -30 0 -23 -15 11 -23 16 -4 14 -5 -6 -6 -31 -1
-52 20 -43 43 8 20 55 18 62 -1z m82 7 c0 -5 -3 -9 -7 -9 -34 6 -48 -26 -15
-34 9 -3 1 -5 -18 -5 -19 0 -29 2 -22 5 6 2 12 13 12 23 0 10 -6 21 -12 23 -7
3 4 6 25 6 20 1 37 -3 37 -9z m-4072 -17 c-10 -2 -28 -2 -40 0 -13 2 -5 4 17
4 22 1 32 -1 23 -4z m390 0 c-10 -2 -28 -2 -40 0 -13 2 -5 4 17 4 22 1 32 -1
23 -4z m1250 0 c-10 -2 -28 -2 -40 0 -13 2 -5 4 17 4 22 1 32 -1 23 -4z m700
0 c-10 -2 -26 -2 -35 0 -10 3 -2 5 17 5 19 0 27 -2 18 -5z m1090 0 c-10 -2
-26 -2 -35 0 -10 3 -2 5 17 5 19 0 27 -2 18 -5z m-4618 -23 c0 -5 -4 -10 -10
-10 -5 0 -10 5 -10 10 0 6 5 10 10 10 6 0 10 -4 10 -10z m790 0 c0 -5 -7 -10
-15 -10 -8 0 -15 5 -15 10 0 6 7 10 15 10 8 0 15 -4 15 -10z m313 -87 c-7 -2
-13 -22 -13 -43 0 -21 6 -41 13 -43 7 -3 5 -6 -5 -6 -15 -1 -18 8 -18 49 0 41
3 50 18 49 10 0 12 -3 5 -6z m312 -43 c0 -33 -4 -50 -12 -50 -9 0 -13 17 -13
50 0 33 4 50 13 50 8 0 12 -17 12 -50z m50 40 c-3 -5 -2 -17 3 -26 8 -15 10
-15 16 1 3 9 4 21 0 26 -3 5 4 9 15 9 19 0 19 0 0 -40 -11 -22 -22 -40 -24
-40 -2 0 -13 18 -24 40 -19 40 -19 40 0 40 11 0 17 -4 14 -10z m175 -24 c0
-24 5 -36 18 -39 9 -3 -1 -5 -23 -5 -22 0 -32 2 -22 5 20 5 24 58 5 66 -8 3
-6 6 5 6 13 1 17 -7 17 -33z m403 27 c-7 -2 -13 -22 -13 -43 0 -21 6 -41 13
-43 7 -3 5 -6 -5 -6 -15 -1 -18 8 -18 49 0 41 3 50 18 49 10 0 12 -3 5 -6z
m46 0 c-1 -5 -1 -17 0 -28 2 -20 2 -20 16 -1 8 10 12 23 9 27 -3 5 1 9 10 9
12 0 12 -5 -1 -40 -9 -22 -20 -40 -25 -40 -4 0 -8 2 -8 4 0 2 -7 20 -15 40
-14 32 -14 36 0 36 8 0 14 -3 14 -7z m181 -27 c0 -19 6 -37 13 -39 6 -3 -4 -5
-23 -5 -19 0 -29 2 -22 5 6 2 12 17 12 33 0 16 -6 31 -12 33 -7 3 -3 6 10 6
19 1 22 -4 22 -33z m620 -16 c0 -41 -3 -50 -17 -49 -11 0 -13 3 -5 6 6 2 12
22 12 43 0 21 -6 41 -12 43 -8 3 -6 6 5 6 14 1 17 -8 17 -49z m80 0 c0 -33 -4
-50 -12 -50 -9 0 -13 17 -13 50 0 33 4 50 13 50 8 0 12 -17 12 -50z m80 0 c0
-45 -2 -50 -22 -49 -13 0 -17 3 -10 6 6 2 12 22 12 43 0 21 -6 41 -12 43 -7 3
-3 6 10 6 20 1 22 -4 22 -49z m-1788 0 c-9 -16 -19 -30 -22 -30 -3 0 -13 14
-22 30 l-17 30 39 0 39 0 -17 -30z m319 -2 c7 -27 5 -28 -27 -28 -36 0 -37 2
-28 38 9 33 45 26 55 -10z m119 6 c0 -15 4 -23 11 -18 6 3 9 15 6 25 -3 11 0
19 8 19 7 0 15 -14 17 -31 4 -28 3 -30 -25 -27 -24 2 -32 9 -38 31 -5 20 -4
27 7 27 8 0 14 -10 14 -26z m118 9 c2 -8 -6 -13 -24 -13 -30 0 -23 -15 11 -23
16 -4 14 -5 -6 -6 -31 -1 -52 20 -43 43 8 20 55 18 62 -1z m79 -10 c-2 -24 -7
-28 -35 -31 -18 -2 -32 1 -32 8 0 6 10 8 25 4 15 -4 25 -2 25 5 0 6 -9 11 -20
11 -11 0 -20 7 -20 15 0 10 10 15 29 15 26 0 30 -3 28 -27z m305 -3 c4 -27 2
-30 -22 -30 -34 0 -38 5 -32 35 7 39 48 35 54 -5z m118 5 c0 -28 17 -34 27 -9
3 9 0 20 -8 25 -11 7 -11 9 2 9 11 0 18 -11 21 -30 4 -27 2 -30 -23 -30 -22 0
-27 5 -31 30 -3 17 -1 30 4 30 4 0 8 -11 8 -25z m120 10 c11 -13 8 -15 -14
-15 -34 0 -34 -18 2 -23 25 -4 24 -4 -6 -6 -21 0 -35 4 -38 14 -9 23 3 45 24
45 11 0 25 -7 32 -15z m77 -12 c-2 -22 -8 -29 -30 -31 -15 -2 -27 2 -27 8 0 7
8 9 20 5 11 -3 20 -2 20 3 0 5 -9 12 -21 15 -27 7 -15 27 16 27 20 0 23 -5 22
-27z m-1329 0 c-10 -2 -28 -2 -40 0 -13 2 -5 4 17 4 22 1 32 -1 23 -4z m1472
-23 c0 -5 -7 -10 -15 -10 -8 0 -15 5 -15 10 0 6 7 10 15 10 8 0 15 -4 15 -10z
m80 0 c0 -5 -7 -10 -15 -10 -8 0 -15 5 -15 10 0 6 7 10 15 10 8 0 15 -4 15
-10z m80 0 c0 -5 -7 -10 -15 -10 -8 0 -15 5 -15 10 0 6 7 10 15 10 8 0 15 -4
15 -10z m-3190 -240 c0 -5 8 -10 19 -10 11 0 21 -9 25 -22 5 -19 8 -20 15 -8
5 8 7 18 5 22 -3 4 2 8 10 8 12 0 12 -5 -2 -40 -12 -28 -23 -40 -37 -40 -16 0
-17 2 -6 9 12 8 13 14 3 35 -11 26 -32 36 -32 16 0 -5 -9 -10 -20 -10 -25 0
-26 -17 -2 -23 11 -3 9 -5 -8 -6 -23 -1 -25 3 -25 39 0 37 2 40 28 40 15 0 27
-4 27 -10z m176 -4 c8 -8 14 -24 14 -35 0 -25 18 -28 27 -5 3 9 0 20 -8 25
-11 7 -11 9 2 9 11 0 18 -11 21 -30 4 -27 2 -30 -24 -30 -23 0 -28 4 -28 25 0
14 -8 29 -19 35 -25 13 -41 13 -41 0 0 -5 7 -7 15 -4 10 4 15 0 15 -11 0 -11
-5 -15 -15 -11 -9 3 -15 0 -15 -8 0 -8 6 -17 13 -19 6 -3 3 -6 -8 -6 -17 -1
-20 5 -20 39 0 37 2 40 28 40 16 0 35 -6 43 -14z m609 -26 c0 -32 -3 -35 -30
-38 -29 -3 -30 -1 -30 38 0 39 1 41 30 38 27 -3 30 -6 30 -38z m655 30 c0 -5
8 -10 19 -10 13 0 20 -9 23 -30 3 -19 0 -30 -7 -30 -8 0 -10 10 -7 26 4 20 1
25 -9 22 -8 -3 -14 -15 -13 -27 0 -11 -4 -21 -10 -21 -6 0 -11 18 -11 40 0 22
3 40 8 40 4 0 7 -4 7 -10z m202 -30 c3 -39 3 -40 -28 -40 -20 0 -34 6 -38 16
-8 21 11 44 36 44 10 0 16 5 13 10 -3 6 -2 10 3 10 6 0 12 -18 14 -40z m80 0
c3 -39 3 -40 -28 -40 -20 0 -34 6 -38 16 -8 21 11 44 36 44 10 0 16 5 13 10
-3 6 -2 10 3 10 6 0 12 -18 14 -40z m298 32 c-23 -4 -24 -5 -5 -13 17 -6 17
-8 3 -8 -11 -1 -18 -9 -18 -20 0 -11 8 -22 18 -24 9 -3 1 -5 -18 -5 -19 0 -29
2 -22 5 15 6 16 43 2 43 -6 0 -5 6 2 15 7 8 24 14 38 13 l25 -1 -25 -5z m150
-26 c0 -19 6 -37 13 -39 6 -3 -4 -5 -23 -5 -19 0 -29 2 -22 5 6 2 12 17 12 33
0 16 -6 31 -12 33 -7 3 -3 6 10 6 19 1 22 -4 22 -33z m492 -6 c3 -39 3 -40
-28 -40 -33 0 -48 18 -38 45 4 8 15 15 26 15 10 0 16 5 13 10 -3 6 0 10 8 10
10 0 16 -13 19 -40z m148 5 c0 -28 4 -35 20 -35 22 0 28 35 8 43 -7 3 -3 6 10
6 17 1 22 -5 22 -23 0 -13 6 -27 13 -30 6 -3 -19 -4 -58 -3 -67 2 -70 3 -70
27 0 18 6 26 23 28 12 2 20 8 17 13 -4 5 -1 9 4 9 6 0 11 -16 11 -35z m1440
26 c0 -5 10 -11 23 -13 16 -2 22 -10 22 -28 0 -24 -2 -25 -65 -25 -63 0 -65 1
-65 25 0 20 5 25 24 25 13 0 26 -6 29 -12 2 -8 -6 -13 -23 -13 -15 0 -24 -4
-20 -10 3 -5 20 -10 37 -10 29 0 30 2 26 35 -2 19 0 35 4 35 4 0 8 -4 8 -9z
m830 -1 c0 -5 -7 -7 -15 -4 -11 5 -15 -1 -15 -24 0 -17 6 -33 13 -35 6 -3 -1
-5 -18 -5 -16 0 -24 2 -17 5 6 2 12 18 12 34 0 21 -4 27 -15 23 -8 -4 -15 -1
-15 5 0 6 16 11 35 11 19 0 35 -4 35 -10z m40 1 c0 -5 8 -11 19 -14 25 -6 35
-57 11 -57 -13 0 -16 6 -12 25 2 15 0 25 -7 25 -6 0 -11 -11 -11 -25 0 -14 -6
-25 -12 -25 -8 0 -13 15 -13 40 0 25 5 40 13 40 6 0 12 -4 12 -9z m-1935 -11
c17 -7 17 -9 3 -9 -11 -1 -18 -9 -18 -22 0 -16 4 -19 23 -14 17 6 19 4 11 -5
-18 -19 -47 -8 -55 22 -10 38 -2 44 36 28z m-2875 -7 c0 -3 -8 -15 -17 -26
-17 -19 -17 -20 0 -14 9 4 17 2 17 -3 0 -6 -14 -10 -32 -10 l-31 0 24 27 c18
20 20 25 7 20 -10 -4 -18 -2 -18 3 0 6 11 10 25 10 14 0 25 -3 25 -7z m65 -20
c-16 -23 -16 -25 -1 -20 9 4 16 2 16 -3 0 -6 -14 -10 -32 -10 l-31 0 24 26 24
26 -22 -6 c-14 -5 -23 -3 -23 3 0 6 14 11 31 11 l31 0 -17 -27z m93 10 c2 -8
-6 -13 -24 -13 -30 0 -23 -15 11 -23 15 -3 13 -5 -8 -6 -29 -1 -43 18 -33 45
7 18 47 15 54 -3z m82 6 c0 -5 -5 -7 -10 -4 -6 3 -13 -1 -17 -10 -3 -10 0 -21
8 -26 10 -6 3 -9 -21 -9 -24 0 -31 3 -21 9 8 5 12 18 8 30 -4 18 -1 21 24 21
16 0 29 -5 29 -11z m290 -13 c0 -13 6 -27 13 -29 6 -3 -4 -5 -23 -5 -19 0 -29
2 -22 5 6 2 12 13 12 23 0 10 -6 21 -12 23 -7 3 -3 6 10 6 17 1 22 -5 22 -23z
m97 -3 c-2 -22 -8 -29 -30 -31 -15 -2 -27 1 -27 6 0 6 9 8 20 5 11 -3 20 0 20
6 0 6 -9 11 -20 11 -20 0 -26 11 -13 23 3 4 17 7 29 7 19 0 22 -5 21 -27z m83
17 c0 -6 -11 -8 -25 -4 -21 5 -25 3 -25 -16 0 -19 4 -21 26 -16 17 5 23 3 19
-4 -8 -13 -52 -13 -60 0 -14 22 6 50 36 50 16 0 29 -5 29 -10z m145 -20 c-19
-37 -31 -38 -39 -5 -8 31 -24 33 -28 3 -4 -28 -55 -39 -64 -14 -13 35 2 44 75
45 l71 0 -15 -29z m83 13 c2 -8 -6 -13 -24 -13 -30 0 -23 -15 11 -23 15 -3 13
-5 -8 -6 -29 -1 -43 18 -33 45 7 18 47 15 54 -3z m82 6 c0 -5 -5 -7 -10 -4 -6
3 -13 -1 -17 -10 -3 -10 0 -21 8 -26 10 -6 3 -9 -21 -9 -24 0 -31 3 -21 9 8 5
12 18 8 30 -4 18 -1 21 24 21 16 0 29 -5 29 -11z m210 -13 c0 -15 7 -26 18
-29 9 -3 -1 -5 -23 -5 -22 0 -32 2 -22 5 20 5 23 39 5 46 -8 3 -6 6 5 6 12 1
17 -7 17 -23z m258 7 c2 -8 -6 -13 -24 -13 -30 0 -23 -15 11 -23 16 -4 14 -5
-6 -6 -31 -1 -52 20 -43 43 8 20 55 18 62 -1z m74 -13 c3 -19 0 -30 -7 -30 -8
0 -10 10 -7 26 4 20 1 25 -9 22 -8 -3 -14 -15 -13 -27 0 -11 -4 -21 -10 -21
-6 0 -11 14 -11 30 0 26 4 30 26 30 22 0 28 -5 31 -30z m218 6 c0 -13 6 -27
13 -29 6 -3 -4 -5 -23 -5 -19 0 -29 2 -22 5 6 2 12 13 12 23 0 10 -6 21 -12
23 -7 3 -3 6 10 6 17 1 22 -5 22 -23z m178 7 c2 -8 -6 -13 -22 -13 -35 0 -33
-18 2 -23 26 -4 25 -4 -5 -6 -24 -1 -33 4 -38 19 -3 11 -3 25 0 30 9 15 57 8
63 -7z m79 -10 c-2 -24 -7 -28 -35 -31 -18 -2 -32 1 -32 8 0 6 10 8 25 4 15
-4 25 -2 25 5 0 6 -9 11 -20 11 -11 0 -20 7 -20 15 0 10 10 15 29 15 26 0 30
-3 28 -27z m151 0 c2 -13 8 -23 14 -23 6 0 8 11 5 26 -4 23 -2 25 26 22 24 -2
32 -9 38 -30 l7 -28 -74 0 -74 0 0 31 c0 27 3 30 28 27 19 -2 28 -9 30 -25z
m472 17 c0 -5 -5 -9 -12 -7 -20 4 -21 -31 -1 -36 11 -3 6 -5 -12 -6 -27 -1
-30 2 -30 29 0 26 4 30 28 30 15 0 27 -4 27 -10z m78 -7 c2 -8 -6 -13 -24 -13
-30 0 -23 -15 11 -23 16 -4 14 -5 -6 -6 -31 -1 -52 20 -43 43 8 20 55 18 62
-1z m82 7 c0 -6 -11 -8 -25 -4 -21 5 -25 3 -25 -16 0 -19 4 -21 26 -16 17 5
23 3 19 -4 -8 -13 -52 -13 -60 0 -14 22 6 50 36 50 16 0 29 -5 29 -10z m154
-5 c9 -25 -5 -45 -30 -45 -14 0 -27 7 -30 15 -10 25 4 45 30 45 13 0 26 -7 30
-15z m76 5 c0 -5 -5 -9 -12 -7 -20 4 -21 -31 -1 -36 11 -3 6 -5 -12 -6 -27 -1
-30 2 -30 29 0 26 4 30 28 30 15 0 27 -4 27 -10z m60 -14 c0 -13 6 -27 13 -29
6 -3 -4 -5 -23 -5 -19 0 -29 2 -22 5 6 2 12 13 12 23 0 10 -6 21 -12 23 -7 3
-3 6 10 6 17 1 22 -5 22 -23z m98 7 c2 -8 -6 -13 -22 -13 -35 0 -33 -18 2 -23
26 -4 25 -4 -5 -6 -24 -1 -33 4 -38 19 -3 11 -3 25 0 30 9 15 57 8 63 -7z m79
-10 c-2 -24 -7 -28 -35 -31 -18 -2 -32 1 -32 8 0 6 10 8 25 4 15 -4 25 -2 25
5 0 6 -9 11 -20 11 -11 0 -20 7 -20 15 0 10 10 15 29 15 26 0 30 -3 28 -27z
m151 -5 c3 -24 0 -28 -23 -28 -27 0 -41 20 -31 46 10 27 51 13 54 -18z m83 0
c7 -27 6 -28 -29 -28 -35 0 -37 2 -37 30 0 28 3 31 29 28 23 -2 31 -9 37 -30z
m150 0 c7 -26 5 -28 -21 -28 -34 0 -41 9 -33 39 8 32 45 24 54 -11z m113 19
c-3 -8 3 -13 16 -13 13 0 19 5 16 13 -3 7 1 13 8 13 11 0 12 -7 7 -27 -10 -39
-52 -39 -62 0 -5 20 -4 27 7 27 7 0 11 -6 8 -13z m356 -17 c0 -27 -3 -30 -30
-30 -16 0 -30 5 -30 10 0 6 11 8 25 4 15 -4 25 -2 25 5 0 6 -9 11 -20 11 -11
0 -20 7 -20 15 0 9 9 15 25 15 21 0 25 -5 25 -30z m80 15 c11 -13 8 -15 -14
-15 -34 0 -34 -18 2 -23 25 -4 24 -4 -6 -6 -21 0 -35 4 -38 14 -9 23 3 45 24
45 11 0 25 -7 32 -15z m80 5 c0 -5 -5 -9 -12 -7 -20 4 -21 -31 -1 -36 11 -3 6
-5 -12 -6 -27 -1 -30 2 -30 29 0 26 4 30 28 30 15 0 27 -4 27 -10z m158 -7 c2
-8 -6 -13 -22 -13 -35 0 -33 -18 2 -23 26 -4 26 -4 -5 -6 -26 -1 -33 4 -41 27
l-9 27 -13 -27 c-17 -36 -25 -35 -44 2 l-15 30 71 -2 c46 -2 73 -7 76 -15z
m82 7 c0 -5 -3 -9 -7 -9 -34 6 -48 -26 -15 -34 9 -3 1 -5 -18 -5 -19 0 -29 2
-22 5 6 2 12 13 12 23 0 10 -6 21 -12 23 -7 3 4 6 25 6 20 1 37 -3 37 -9z
m388 -7 c2 -8 -6 -13 -22 -13 -35 0 -33 -18 2 -23 26 -4 25 -4 -5 -6 -24 -1
-33 4 -38 19 -3 11 -3 25 0 30 9 15 57 8 63 -7z m-4638 -30 c0 -14 -19 -38
-25 -32 -8 8 5 39 16 39 5 0 9 -3 9 -7z m4310 -3 c0 -5 -7 -10 -15 -10 -8 0
-15 5 -15 10 0 6 7 10 15 10 8 0 15 -4 15 -10z m-4700 -114 c0 -24 5 -36 18
-39 9 -3 -1 -5 -23 -5 -22 0 -32 2 -22 5 20 5 24 58 5 66 -8 3 -6 6 5 6 13 1
17 -7 17 -33z m1420 26 c-23 -4 -24 -5 -5 -13 17 -6 17 -8 3 -8 -11 -1 -18 -9
-18 -20 0 -11 8 -22 18 -24 9 -3 1 -5 -18 -5 -19 0 -29 2 -22 5 15 6 16 43 2
43 -6 0 -5 6 2 15 7 8 24 14 38 13 l25 -1 -25 -5z m252 -31 l3 -40 -75 0 -75
0 0 30 c0 27 3 30 30 27 22 -2 31 -9 36 -28 l6 -25 4 25 c3 17 11 26 27 28 12
2 20 8 17 13 -4 5 0 9 8 9 10 0 16 -13 19 -39z m288 5 c0 -19 6 -37 13 -39 6
-3 -4 -5 -23 -5 -19 0 -29 2 -22 5 6 2 12 17 12 33 0 16 -6 31 -12 33 -7 3 -3
6 10 6 19 1 22 -4 22 -33z m310 0 c0 -19 6 -37 13 -39 6 -3 -4 -5 -23 -5 -19
0 -29 2 -22 5 6 2 12 17 12 33 0 16 -6 31 -12 33 -7 3 -3 6 10 6 19 1 22 -4
22 -33z m760 24 c0 -5 8 -10 19 -10 13 0 20 -9 23 -30 3 -19 0 -30 -7 -30 -6
0 -11 8 -11 18 1 9 -3 18 -9 19 -5 1 -10 -7 -9 -17 0 -11 -5 -20 -13 -20 -9 0
-13 13 -13 40 0 22 5 40 10 40 6 0 10 -4 10 -10z m345 0 l-20 -9 20 -1 c17 -2
17 -3 3 -7 -21 -5 -24 -39 -5 -46 6 -3 -4 -6 -23 -6 -23 0 -30 2 -22 8 8 4 13
17 12 27 -4 37 0 44 28 43 24 0 25 -1 7 -9z m205 1 c0 -5 8 -11 19 -14 25 -6
35 -57 11 -57 -13 0 -16 6 -12 25 2 15 0 25 -7 25 -6 0 -11 -11 -11 -25 0 -14
-6 -25 -12 -25 -8 0 -13 15 -13 40 0 25 5 40 13 40 6 0 12 -4 12 -9z m850 0
c0 -5 10 -11 23 -13 16 -2 22 -10 22 -28 0 -24 -2 -25 -65 -25 -63 0 -65 1
-65 25 0 20 5 25 24 25 13 0 26 -6 29 -12 2 -8 -6 -13 -23 -13 -15 0 -24 -4
-20 -10 3 -5 20 -10 37 -10 29 0 30 2 26 35 -2 19 0 35 4 35 4 0 8 -4 8 -9z
m470 0 c0 -5 10 -11 23 -13 16 -2 22 -10 22 -28 0 -20 -5 -26 -30 -28 -29 -3
-30 -1 -30 38 0 22 3 40 8 40 4 0 7 -4 7 -9z m-4582 -19 c-10 -2 -18 -12 -18
-23 0 -16 4 -19 21 -14 15 5 19 4 15 -4 -4 -6 -16 -11 -27 -11 -14 0 -19 7
-19 25 0 14 -6 25 -12 25 -10 0 -9 3 1 9 7 5 23 6 35 3 18 -5 18 -7 4 -10z
m390 0 c-10 -2 -18 -12 -18 -23 0 -16 4 -19 21 -14 15 5 19 4 15 -4 -4 -6 -16
-11 -27 -11 -14 0 -19 7 -19 25 0 14 -6 25 -12 25 -10 0 -9 3 1 9 7 5 23 6 35
3 18 -5 18 -7 4 -10z m470 0 c-10 -2 -18 -12 -18 -23 0 -16 4 -19 21 -14 15 5
19 4 15 -4 -4 -6 -16 -11 -27 -11 -14 0 -19 7 -19 25 0 14 -6 25 -12 25 -10 0
-9 3 1 9 7 5 23 6 35 3 18 -5 18 -7 4 -10z m1250 0 c-10 -2 -18 -12 -18 -23 0
-16 4 -19 21 -14 15 5 19 4 15 -4 -4 -6 -16 -11 -27 -11 -14 0 -19 7 -19 25 0
14 -6 25 -12 25 -10 0 -9 3 1 9 7 5 23 6 35 3 18 -5 18 -7 4 -10z m547 8 c17
-7 17 -9 3 -9 -11 -1 -18 -9 -18 -22 0 -16 4 -19 23 -14 17 6 19 4 11 -5 -18
-19 -47 -8 -55 22 -10 38 -2 44 36 28z m547 -8 c-15 -2 -22 -9 -20 -20 2 -10
11 -16 22 -14 11 2 15 -1 11 -7 -3 -6 -15 -11 -26 -11 -14 0 -19 7 -19 25 0
14 -6 25 -12 25 -10 0 -10 2 0 9 7 4 25 5 40 2 26 -5 26 -6 4 -9z m1173 8 c17
-7 17 -9 3 -9 -11 -1 -18 -9 -18 -22 0 -16 4 -19 23 -14 17 6 19 4 11 -5 -18
-19 -47 -8 -55 22 -10 38 -2 44 36 28z m-4904 -32 c7 -27 5 -28 -27 -28 -31 0
-34 2 -34 31 0 27 3 30 27 27 19 -2 29 -10 34 -30z m77 0 c3 -25 0 -28 -25
-28 -22 0 -25 -2 -13 -10 12 -8 12 -10 -5 -10 -17 0 -20 7 -20 40 0 39 1 41
30 38 24 -2 31 -8 33 -30z m80 0 c3 -25 0 -28 -25 -28 -22 0 -25 -2 -13 -10
12 -8 12 -10 -5 -10 -17 0 -20 7 -20 40 0 39 1 41 30 38 24 -2 31 -8 33 -30z
m132 8 c0 -15 7 -26 18 -29 9 -3 -1 -5 -23 -5 -22 0 -32 2 -22 5 20 5 23 39 5
46 -8 3 -6 6 5 6 12 1 17 -7 17 -23z m100 14 c0 -5 -10 -9 -22 -7 -15 1 -23
-3 -23 -13 0 -10 9 -14 28 -13 15 1 25 -2 22 -8 -10 -15 -55 -10 -61 6 -10 25
4 45 31 45 14 0 25 -4 25 -10z m81 -22 c7 -27 5 -28 -27 -28 -31 0 -34 2 -34
31 0 27 3 30 27 27 19 -2 29 -10 34 -30z m129 8 c0 -15 7 -26 18 -29 9 -3 -1
-5 -23 -5 -22 0 -32 2 -22 5 20 5 23 39 5 46 -8 3 -6 6 5 6 12 1 17 -7 17 -23z
m104 9 c9 -25 -5 -45 -30 -45 -14 0 -27 7 -30 15 -10 25 4 45 30 45 13 0 26
-7 30 -15z m78 -15 c3 -19 0 -30 -7 -30 -6 0 -11 8 -11 18 1 9 -3 18 -9 19 -5
1 -10 -7 -9 -17 0 -11 -4 -20 -10 -20 -6 0 -11 14 -11 30 0 26 4 30 26 30 22
0 28 -5 31 -30z m238 20 c0 -5 -3 -9 -7 -9 -34 6 -48 -26 -15 -34 9 -3 1 -5
-18 -5 -19 0 -29 2 -22 5 6 2 12 13 12 23 0 10 -6 21 -12 23 -7 3 4 6 25 6 20
1 37 -3 37 -9z m50 -14 c0 -15 7 -26 18 -29 9 -3 -1 -5 -23 -5 -22 0 -32 2
-22 5 20 5 23 39 5 46 -8 3 -6 6 5 6 12 1 17 -7 17 -23z m100 9 c11 -13 8 -15
-14 -15 -34 0 -34 -18 2 -23 25 -4 24 -4 -6 -6 -21 0 -35 4 -38 14 -9 23 3 45
24 45 11 0 25 -7 32 -15z m77 -12 c-2 -22 -8 -29 -30 -31 -15 -2 -27 2 -27 8
0 7 8 9 20 5 11 -3 20 -2 20 3 0 5 -9 12 -21 15 -27 7 -15 27 16 27 20 0 23
-5 22 -27z m238 -3 c0 -20 -6 -26 -28 -28 -29 -4 -44 16 -33 44 4 10 15 14 33
12 22 -2 28 -8 28 -28z m215 6 c0 -13 6 -27 13 -29 6 -3 -4 -5 -23 -5 -19 0
-29 2 -22 5 6 2 12 13 12 23 0 10 -6 21 -12 23 -7 3 -3 6 10 6 17 1 22 -5 22
-23z m290 -1 c0 -28 17 -34 27 -9 3 9 0 20 -8 25 -11 7 -11 9 2 9 11 0 18 -11
21 -31 4 -28 3 -30 -26 -27 -25 2 -32 8 -34 31 -2 15 1 27 7 27 6 0 11 -11 11
-25z m120 15 c0 -5 -5 -9 -12 -7 -20 4 -21 -31 -1 -36 11 -3 6 -5 -12 -6 -27
-1 -30 2 -30 29 0 26 4 30 28 30 15 0 27 -4 27 -10z m240 0 c0 -5 -3 -9 -7 -9
-34 6 -48 -26 -15 -34 9 -3 1 -5 -18 -5 -19 0 -29 2 -22 5 6 2 12 13 12 23 0
10 -6 21 -12 23 -7 3 4 6 25 6 20 1 37 -3 37 -9z m70 -5 c11 -13 8 -15 -14
-15 -34 0 -34 -18 2 -23 25 -4 24 -4 -6 -6 -21 0 -35 4 -38 14 -9 23 3 45 24
45 11 0 25 -7 32 -15z m152 -15 c4 -27 2 -30 -22 -30 -34 0 -38 5 -32 35 7 39
48 35 54 -5z m138 6 c0 -15 7 -26 18 -29 9 -3 -1 -5 -23 -5 -22 0 -32 2 -22 5
20 5 23 39 5 46 -8 3 -6 6 5 6 12 1 17 -7 17 -23z m95 -6 c-16 -32 -35 -40
-35 -16 0 8 -7 22 -16 30 -14 15 -12 16 26 16 l41 0 -16 -30z m83 13 c2 -8 -6
-13 -24 -13 -30 0 -23 -15 11 -23 15 -3 13 -5 -8 -6 -29 -1 -43 18 -33 45 7
18 47 15 54 -3z m160 -15 c3 -25 0 -28 -25 -28 -22 0 -25 -2 -13 -10 12 -8 12
-10 -5 -10 -17 0 -20 7 -20 40 0 39 1 41 30 38 24 -2 31 -8 33 -30z m73 0 c7
-26 5 -28 -21 -28 -34 0 -41 9 -33 39 8 32 45 24 54 -11z m236 5 c-2 -22 -8
-29 -30 -31 -15 -2 -27 2 -27 8 0 7 8 9 20 5 11 -3 20 -2 20 3 0 5 -9 12 -21
15 -27 7 -15 27 16 27 20 0 23 -5 22 -27z m158 -3 c0 -20 -6 -26 -28 -28 -18
-2 -29 2 -33 12 -11 28 4 48 33 44 22 -2 28 -8 28 -28z m393 13 c2 -8 -6 -13
-24 -13 -30 0 -23 -15 11 -23 16 -4 14 -5 -6 -6 -31 -1 -52 20 -43 43 8 20 55
18 62 -1z m153 -20 c-5 -31 -11 -38 -31 -40 -21 -2 -22 -1 -6 5 19 8 19 9 -2
14 -13 4 -22 14 -22 25 0 26 8 33 40 33 25 0 27 -2 21 -37z m59 13 c0 -13 6
-27 13 -29 6 -3 -4 -5 -23 -5 -19 0 -29 2 -22 5 6 2 12 13 12 23 0 10 -6 21
-12 23 -7 3 -3 6 10 6 17 1 22 -5 22 -23z m92 -6 c-9 -16 -19 -30 -22 -30 -3
0 -13 14 -22 30 l-17 30 39 0 39 0 -17 -30z m86 13 c2 -8 -6 -13 -24 -13 -30
0 -23 -15 11 -23 16 -4 14 -5 -6 -6 -31 -1 -52 20 -43 43 8 20 55 18 62 -1z
m74 -13 c3 -19 0 -30 -7 -30 -8 0 -10 10 -7 26 4 20 1 25 -9 22 -8 -3 -14 -15
-13 -27 0 -11 -4 -21 -10 -21 -6 0 -11 14 -11 30 0 26 4 30 26 30 22 0 28 -5
31 -30z m114 21 c-3 -5 4 -11 15 -14 15 -4 19 -2 15 9 -3 8 1 14 10 14 13 0
15 -6 9 -27 -9 -36 -14 -41 -25 -23 -7 10 -10 11 -10 3 0 -24 -18 -13 -29 17
-8 25 -7 30 5 30 8 0 13 -4 10 -9z m281 -18 c-2 -24 -7 -28 -35 -31 -18 -2
-32 1 -32 8 0 6 10 8 25 4 15 -4 25 -2 25 5 0 6 -9 11 -20 11 -11 0 -20 7 -20
15 0 10 10 15 29 15 26 0 30 -3 28 -27z m53 3 c0 -15 7 -26 18 -29 9 -3 -1 -5
-23 -5 -22 0 -32 2 -22 5 20 5 23 39 5 46 -8 3 -6 6 5 6 12 1 17 -7 17 -23z
m178 7 c2 -8 -6 -13 -24 -13 -30 0 -23 -15 11 -23 15 -3 13 -5 -8 -6 -29 -1
-43 18 -33 45 7 18 47 15 54 -3z m198 9 c-2 -4 0 -14 5 -22 7 -12 10 -11 15 8
4 12 12 22 20 22 10 0 9 -8 -6 -32 -10 -17 -17 -35 -14 -40 3 -4 -5 -8 -18 -8
-17 0 -19 3 -10 9 12 7 11 14 -2 40 -15 28 -15 31 -1 31 9 0 14 -4 11 -8z
m194 -2 c0 -5 -10 -9 -22 -7 -15 1 -23 -3 -23 -13 0 -10 9 -14 28 -13 15 1 25
-2 22 -8 -10 -15 -55 -10 -61 6 -10 25 4 45 31 45 14 0 25 -4 25 -10z m235
-20 c0 -19 -6 -26 -24 -28 -19 -3 -21 -6 -10 -13 10 -6 6 -9 -14 -9 -16 0 -26
4 -22 10 4 6 -20 10 -65 10 -73 0 -90 10 -77 44 5 12 27 14 109 13 103 -2 103
-2 103 -27z m76 -2 c7 -27 5 -28 -27 -28 -36 0 -37 2 -28 38 9 33 45 26 55
-10z m89 23 c0 -5 -8 -8 -17 -7 -24 2 -29 -31 -6 -37 10 -3 2 -5 -17 -5 -19 0
-29 2 -22 5 6 2 12 13 12 23 0 10 -6 21 -12 23 -7 3 4 6 25 6 20 1 37 -3 37
-8z m50 -15 c0 -13 6 -27 13 -29 6 -3 -4 -5 -23 -5 -19 0 -29 2 -22 5 6 2 12
13 12 23 0 10 -6 21 -12 23 -7 3 -3 6 10 6 17 1 22 -5 22 -23z m101 -8 c7 -27
6 -28 -29 -28 -35 0 -37 2 -37 30 0 28 3 31 29 28 23 -2 31 -9 37 -30z m71 -8
c-4 -36 -7 -40 -31 -39 l-26 1 25 8 c24 8 24 8 2 9 -46 2 -41 61 5 61 27 0 28
-2 25 -40z m-5972 -99 c0 -5 8 -11 19 -14 25 -6 35 -57 11 -57 -13 0 -16 6
-12 25 2 15 0 25 -7 25 -6 0 -11 -11 -11 -25 0 -14 -6 -25 -12 -25 -8 0 -13
15 -13 40 0 25 5 40 13 40 6 0 12 -4 12 -9z m540 -1 c0 -5 8 -10 19 -10 13 0
20 -9 23 -30 3 -19 0 -30 -7 -30 -8 0 -10 10 -7 26 4 20 1 25 -9 22 -8 -3 -14
-15 -13 -27 0 -11 -4 -21 -10 -21 -6 0 -11 18 -11 40 0 22 3 40 8 40 4 0 7 -4
7 -10z m-598 -18 c-15 -2 -22 -9 -20 -20 2 -10 11 -16 22 -14 11 2 15 -1 11
-7 -3 -6 -15 -11 -26 -11 -14 0 -19 7 -19 25 0 14 -6 25 -12 25 -10 0 -10 2 0
9 7 4 25 5 40 2 26 -5 26 -6 4 -9z m546 0 c-10 -2 -18 -12 -18 -23 0 -16 4
-19 21 -14 15 5 19 4 15 -4 -4 -6 -16 -11 -27 -11 -14 0 -19 7 -19 25 0 14 -6
25 -12 25 -10 0 -9 3 1 9 7 5 23 6 35 3 18 -5 18 -7 4 -10z m1017 8 c17 -7 17
-9 3 -9 -11 -1 -18 -9 -18 -22 0 -16 4 -19 23 -14 17 6 19 4 11 -5 -18 -19
-47 -8 -55 22 -10 38 -2 44 36 28z m-1387 -17 c2 -8 -6 -13 -23 -13 -15 0 -24
-4 -20 -10 3 -5 18 -10 32 -10 22 0 25 4 21 25 -5 23 -2 25 32 25 34 0 38 -3
42 -30 l5 -30 -68 0 c-70 0 -95 13 -83 44 8 20 55 18 62 -1z m186 4 c-3 -8 3
-13 16 -13 13 0 19 5 16 13 -3 7 1 13 8 13 11 0 12 -7 7 -27 -10 -39 -52 -39
-62 0 -5 20 -4 27 7 27 7 0 11 -6 8 -13z m106 -11 c0 -13 6 -27 13 -29 6 -3
-4 -5 -23 -5 -19 0 -29 2 -22 5 6 2 12 13 12 23 0 10 -6 21 -12 23 -7 3 -3 6
10 6 17 1 22 -5 22 -23z m331 -8 c7 -27 5 -28 -27 -28 -36 0 -37 2 -28 38 9
33 45 26 55 -10z m160 -5 c-5 -31 -11 -38 -31 -40 -23 -2 -23 -2 -5 6 20 9 19
10 -1 10 -26 1 -39 28 -23 47 6 8 24 14 39 14 25 0 27 -2 21 -37z m49 13 c0
-15 7 -26 18 -29 9 -3 -1 -5 -23 -5 -22 0 -32 2 -22 5 20 5 23 39 5 46 -8 3
-6 6 5 6 12 1 17 -7 17 -23z m181 8 c9 -11 6 -14 -15 -14 -14 0 -26 -4 -26
-10 0 -5 14 -10 31 -10 28 0 31 3 26 26 -4 23 -2 25 26 22 24 -2 32 -9 38 -31
l7 -28 -71 3 c-66 3 -72 5 -75 26 -4 30 -20 28 -28 -3 -8 -33 -20 -32 -39 5
l-15 30 64 -1 c43 -1 69 -6 77 -15z m236 -11 c-2 -22 -8 -29 -30 -31 -15 -2
-27 1 -27 6 0 6 9 8 20 5 11 -3 20 0 20 6 0 6 -9 11 -20 11 -20 0 -26 11 -13
23 3 4 17 7 29 7 19 0 22 -5 21 -27z m81 10 c2 -8 -6 -13 -22 -13 -35 0 -33
-18 2 -23 26 -4 25 -4 -5 -6 -24 -1 -33 4 -38 19 -3 11 -3 25 0 30 9 15 57 8
63 -7z m132 -33 c0 -5 -4 -10 -10 -10 -5 0 -10 5 -10 10 0 6 5 10 10 10 6 0
10 -4 10 -10z m80 0 c0 -5 -4 -10 -10 -10 -5 0 -10 5 -10 10 0 6 5 10 10 10 6
0 10 -4 10 -10z m80 0 c0 -5 -7 -10 -15 -10 -8 0 -15 5 -15 10 0 6 7 10 15 10
8 0 15 -4 15 -10z m-1250 -264 c0 -19 6 -37 13 -39 6 -3 -4 -5 -23 -5 -19 0
-29 2 -22 5 6 2 12 17 12 33 0 16 -6 31 -12 33 -7 3 -3 6 10 6 19 1 22 -4 22
-33z m-392 6 c-10 -2 -18 -12 -18 -23 0 -16 4 -19 21 -14 15 5 19 4 15 -4 -4
-6 -16 -11 -27 -11 -14 0 -19 7 -19 25 0 14 -6 25 -12 25 -10 0 -9 3 1 9 7 5
23 6 35 3 18 -5 18 -7 4 -10z m1094 0 c-15 -2 -22 -9 -20 -20 2 -10 11 -16 22
-14 11 2 15 -1 11 -7 -3 -6 -15 -11 -26 -11 -14 0 -19 7 -19 25 0 14 -6 25
-12 25 -10 0 -10 2 0 9 7 4 25 5 40 2 26 -5 26 -6 4 -9z m-1234 -24 c3 -24 0
-28 -23 -28 -27 0 -41 20 -31 46 10 27 51 13 54 -18z m80 0 c3 -25 0 -28 -25
-28 -22 0 -25 -2 -13 -10 12 -8 12 -10 -5 -10 -17 0 -20 7 -20 40 0 39 1 41
30 38 24 -2 31 -8 33 -30z m132 8 c0 -15 7 -26 18 -29 9 -3 -1 -5 -23 -5 -22
0 -32 2 -22 5 20 5 23 39 5 46 -8 3 -6 6 5 6 12 1 17 -7 17 -23z m104 9 c9
-25 -5 -45 -30 -45 -26 0 -40 20 -30 45 3 8 16 15 30 15 13 0 26 -7 30 -15z
m77 -17 c7 -27 6 -28 -29 -28 -35 0 -37 2 -37 30 0 28 3 31 29 28 23 -2 31 -9
37 -30z m80 0 c7 -27 5 -28 -27 -28 -31 0 -34 2 -34 31 0 27 3 30 27 27 19 -2
29 -10 34 -30z m230 0 c7 -27 5 -28 -27 -28 -36 0 -37 2 -28 38 9 33 45 26 55
-10z m89 23 c0 -5 -8 -8 -17 -7 -24 2 -29 -31 -6 -37 10 -3 2 -5 -17 -5 -19 0
-29 2 -22 5 6 2 12 13 12 23 0 10 -6 21 -12 23 -7 3 4 6 25 6 20 1 37 -3 37
-8z m110 -17 c0 -15 4 -23 11 -18 6 3 9 15 6 25 -5 17 1 19 48 19 51 0 53 -1
57 -30 l5 -30 -74 0 c-71 0 -73 1 -73 25 0 37 -18 30 -22 -7 -2 -27 -8 -33
-28 -35 -21 -2 -22 -1 -6 5 19 8 19 9 -2 14 -21 6 -30 36 -15 51 3 4 26 7 50
7 39 0 43 -2 43 -26z m198 9 c2 -8 -6 -13 -22 -13 -35 0 -33 -18 2 -23 26 -4
25 -4 -5 -6 -24 -1 -33 4 -38 19 -3 11 -3 25 0 30 9 15 57 8 63 -7z m74 -13
c3 -19 0 -30 -7 -30 -6 0 -11 8 -11 18 1 9 -3 18 -9 19 -5 1 -10 -7 -9 -17 0
-11 -4 -20 -10 -20 -6 0 -11 14 -11 30 0 26 4 30 26 30 22 0 28 -5 31 -30z
m155 3 c-2 -22 -8 -29 -30 -31 -15 -2 -27 1 -27 6 0 6 9 8 20 5 11 -3 20 0 20
6 0 6 -9 11 -20 11 -20 0 -26 11 -13 23 3 4 17 7 29 7 19 0 22 -5 21 -27z m63
17 c0 -5 -7 -10 -15 -10 -8 0 -15 5 -15 10 0 6 7 10 15 10 8 0 15 -4 15 -10z
m0 -40 c0 -5 -7 -10 -15 -10 -8 0 -15 5 -15 10 0 6 7 10 15 10 8 0 15 -4 15
-10z m-1200 -90 c0 -5 8 -10 19 -10 13 0 20 -9 23 -30 3 -19 0 -30 -7 -30 -8
0 -10 10 -7 26 4 20 1 25 -9 22 -8 -3 -14 -15 -13 -27 0 -11 -4 -21 -10 -21
-6 0 -11 18 -11 40 0 22 3 40 8 40 4 0 7 -4 7 -10z m390 0 c0 -5 8 -10 19 -10
13 0 20 -9 23 -30 3 -19 0 -30 -7 -30 -8 0 -10 10 -7 26 4 20 1 25 -9 22 -8
-3 -14 -15 -13 -27 0 -11 -4 -21 -10 -21 -6 0 -11 18 -11 40 0 22 3 40 8 40 4
0 7 -4 7 -10z m180 -24 c0 -24 5 -36 18 -39 9 -3 -1 -5 -23 -5 -22 0 -32 2
-22 5 20 5 24 58 5 66 -8 3 -6 6 5 6 13 1 17 -7 17 -33z m1150 24 c0 -5 8 -10
19 -10 13 0 20 -9 23 -30 3 -19 0 -30 -7 -30 -6 0 -11 8 -11 18 1 9 -3 18 -9
19 -5 1 -10 -7 -9 -17 0 -11 -5 -20 -13 -20 -9 0 -13 13 -13 40 0 22 5 40 10
40 6 0 10 -4 10 -10z m390 0 c0 -5 8 -10 19 -10 13 0 20 -9 23 -30 3 -19 0
-30 -7 -30 -8 0 -10 10 -7 26 4 20 1 25 -9 22 -8 -3 -14 -15 -13 -27 0 -11 -4
-21 -10 -21 -6 0 -11 18 -11 40 0 22 3 40 8 40 4 0 7 -4 7 -10z m320 1 c0 -5
8 -11 19 -14 25 -6 35 -57 11 -57 -13 0 -16 6 -12 25 2 15 0 25 -7 25 -6 0
-11 -11 -11 -25 0 -14 -6 -25 -12 -25 -8 0 -13 15 -13 40 0 25 5 40 13 40 6 0
12 -4 12 -9z m170 -25 c0 -24 5 -36 18 -39 9 -3 -1 -5 -23 -5 -22 0 -32 2 -22
5 20 5 24 58 5 66 -8 3 -6 6 5 6 13 1 17 -7 17 -33z m1042 -6 c3 -39 3 -40
-28 -40 -33 0 -48 18 -38 45 4 8 15 15 26 15 10 0 16 5 13 10 -3 6 0 10 8 10
10 0 16 -13 19 -40z m-1587 20 c17 -7 17 -9 3 -9 -11 -1 -18 -9 -18 -22 0 -16
4 -19 23 -14 17 6 19 4 11 -5 -18 -19 -47 -8 -55 22 -10 38 -2 44 36 28z
m1957 -8 c-15 -2 -22 -9 -20 -20 2 -10 11 -16 22 -14 11 2 15 -1 11 -7 -3 -6
-15 -11 -26 -11 -14 0 -19 7 -19 25 0 14 -6 25 -12 25 -10 0 -10 2 0 9 7 4 25
5 40 2 26 -5 26 -6 4 -9z m-3502 -7 c11 -13 8 -15 -14 -15 -34 0 -34 -18 2
-23 25 -4 24 -4 -6 -6 -21 0 -35 4 -38 14 -9 23 3 45 24 45 11 0 25 -7 32 -15z
m159 1 c17 -21 2 -46 -28 -46 -20 0 -23 -2 -11 -10 12 -8 12 -10 -5 -10 -17 0
-20 7 -20 40 0 37 2 40 26 40 15 0 32 -6 38 -14z m1018 -13 c-2 -24 -7 -28
-35 -31 -18 -2 -32 1 -32 8 0 6 10 8 25 4 15 -4 25 -2 25 5 0 6 -9 11 -20 11
-11 0 -20 7 -20 15 0 10 10 15 29 15 26 0 30 -3 28 -27z m157 12 c9 -25 -5
-45 -30 -45 -14 0 -27 7 -30 15 -10 25 4 45 30 45 13 0 26 -7 30 -15z m30 2
c-3 -8 3 -13 16 -13 13 0 19 5 16 13 -3 7 1 13 8 13 11 0 12 -7 7 -27 -10 -39
-52 -39 -62 0 -5 20 -4 27 7 27 7 0 11 -6 8 -13z m336 -11 c0 -15 7 -26 18
-29 9 -3 -1 -5 -23 -5 -22 0 -32 2 -22 5 20 5 23 39 5 46 -8 3 -6 6 5 6 12 1
17 -7 17 -23z m97 -3 c-2 -22 -8 -29 -30 -31 -15 -2 -27 2 -27 8 0 7 8 9 20 5
11 -3 20 -2 20 3 0 5 -9 12 -21 15 -27 7 -15 27 16 27 20 0 23 -5 22 -27z
m241 10 c2 -8 -6 -13 -22 -13 -35 0 -33 -18 2 -23 26 -4 25 -4 -5 -6 -24 -1
-33 4 -38 19 -3 11 -3 25 0 30 9 15 57 8 63 -7z m151 3 c17 -21 2 -46 -28 -46
-20 0 -23 -2 -11 -10 12 -8 12 -10 -5 -10 -17 0 -20 7 -20 40 0 37 2 40 26 40
15 0 32 -6 38 -14z m163 -16 c4 -29 3 -30 -36 -30 -39 0 -41 2 -41 30 0 28 3
30 36 30 33 0 37 -3 41 -30z m76 13 c2 -8 -6 -13 -22 -13 -35 0 -33 -18 2 -23
26 -4 25 -4 -5 -6 -24 -1 -33 4 -38 19 -3 11 -3 25 0 30 9 15 57 8 63 -7z m72
-13 c0 -27 -3 -30 -30 -30 -16 0 -30 5 -30 10 0 6 11 8 25 4 15 -4 25 -2 25 5
0 6 -9 11 -20 11 -11 0 -20 7 -20 15 0 9 9 15 25 15 21 0 25 -5 25 -30z m80 0
c0 -27 -3 -30 -30 -30 -16 0 -30 5 -30 10 0 6 11 8 25 4 15 -4 25 -2 25 5 0 6
-9 11 -20 11 -11 0 -20 7 -20 15 0 9 9 15 25 15 21 0 25 -5 25 -30z m81 -2 c7
-27 5 -28 -27 -28 -31 0 -34 2 -34 31 0 27 3 30 27 27 19 -2 29 -10 34 -30z
m80 -5 c-5 -31 -11 -38 -31 -40 -23 -2 -23 -2 -5 6 20 9 19 10 -1 10 -26 1
-39 28 -23 47 6 8 24 14 39 14 25 0 27 -2 21 -37z m77 20 c2 -8 -6 -13 -22
-13 -35 0 -33 -18 2 -23 26 -4 25 -4 -5 -6 -24 -1 -33 4 -38 19 -3 11 -3 25 0
30 9 15 57 8 63 -7z m150 -10 c2 -13 8 -23 14 -23 6 0 8 11 5 26 -4 23 -2 25
26 22 24 -2 32 -9 38 -30 l7 -28 -74 0 c-41 0 -74 3 -74 8 0 4 3 17 6 30 9 31
48 26 52 -5z m320 10 c2 -8 -6 -13 -22 -13 -35 0 -33 -18 2 -23 26 -4 25 -4
-5 -6 -24 -1 -33 4 -38 19 -3 11 -3 25 0 30 9 15 57 8 63 -7z m43 5 c0 -10 2
-10 6 0 2 6 12 12 20 12 13 0 13 -3 3 -15 -10 -12 -10 -18 0 -30 10 -12 10
-15 -4 -15 -9 0 -16 6 -17 13 0 10 -2 10 -6 0 -2 -7 -12 -13 -20 -13 -13 0
-13 3 -3 15 10 12 10 18 0 30 -10 12 -10 15 4 15 9 0 16 -6 17 -12z m89 -12
c0 -13 6 -27 13 -29 6 -3 -4 -5 -23 -5 -19 0 -29 2 -22 5 6 2 12 13 12 23 0
10 -6 21 -12 23 -7 3 -3 6 10 6 17 1 22 -5 22 -23z m-3972 -3 c-10 -2 -26 -2
-35 0 -10 3 -2 5 17 5 19 0 27 -2 18 -5z m310 0 c-10 -2 -26 -2 -35 0 -10 3
-2 5 17 5 19 0 27 -2 18 -5z m80 0 c-10 -2 -26 -2 -35 0 -10 3 -2 5 17 5 19 0
27 -2 18 -5z m-248 -20 c0 -5 -4 -15 -10 -23 -11 -18 -25 -7 -17 15 6 15 27
21 27 8z m100 -94 c0 -5 -5 -7 -11 -3 -8 5 -10 -4 -7 -30 4 -33 2 -36 -22 -35
-14 0 -19 3 -12 6 6 2 12 18 12 34 0 21 -4 27 -15 23 -8 -4 -15 -1 -15 5 0 6
16 11 35 11 19 0 35 -5 35 -11z m619 -11 c-4 -28 7 -48 27 -48 18 0 19 56 2
63 -7 3 1 5 17 5 17 0 24 -2 18 -5 -18 -7 -17 -63 1 -63 8 0 17 6 19 13 3 7 6
5 6 -5 1 -26 -86 -26 -105 -1 -7 10 -16 14 -20 10 -5 -4 -2 -12 6 -17 12 -8
11 -10 -5 -10 -18 0 -20 5 -17 35 2 20 0 35 -6 35 -6 0 -12 -15 -14 -32 -2
-28 -7 -33 -28 -33 -21 0 -26 6 -31 38 l-6 37 69 0 c66 0 69 -1 67 -22z m611
-12 c0 -19 6 -37 13 -39 6 -3 -4 -5 -23 -5 -19 0 -29 2 -22 5 6 2 12 17 12 33
0 16 -6 31 -12 33 -7 3 -3 6 10 6 19 1 22 -4 22 -33z m180 24 c0 -5 -7 -7 -15
-4 -11 5 -15 -1 -15 -24 0 -17 6 -33 13 -35 6 -3 -1 -5 -18 -5 -16 0 -24 2
-17 5 6 2 12 18 12 34 0 21 -4 27 -15 23 -8 -4 -15 -1 -15 5 0 6 16 11 35 11
19 0 35 -4 35 -10z m616 -15 c1 -11 2 -26 3 -32 1 -7 8 -13 16 -13 19 0 21 56
3 63 -7 3 -2 6 12 6 24 1 26 -2 22 -34 -3 -21 0 -35 7 -35 6 0 11 5 11 10 0 6
5 10 10 10 6 0 10 -7 10 -15 0 -11 -12 -15 -49 -15 -34 0 -51 4 -55 15 -3 8
-10 15 -17 15 -6 0 -9 -7 -5 -15 3 -8 0 -15 -7 -15 -9 0 -12 11 -9 35 3 21 0
35 -7 35 -6 0 -11 -9 -11 -19 0 -34 -12 -51 -35 -51 -25 0 -35 17 -35 56 0 24
2 25 68 22 59 -3 67 -5 68 -23z m-1651 5 c17 -7 17 -9 3 -9 -11 -1 -18 -9 -18
-22 0 -16 4 -19 23 -14 17 6 19 4 11 -5 -18 -19 -47 -8 -55 22 -10 38 -2 44
36 28z m1403 -8 c-10 -2 -18 -12 -18 -23 0 -16 4 -19 21 -14 15 5 19 4 15 -4
-4 -6 -16 -11 -27 -11 -14 0 -19 7 -19 25 0 14 -6 25 -12 25 -10 0 -9 3 1 9 7
5 23 6 35 3 18 -5 18 -7 4 -10z m-1978 -17 c0 -28 17 -34 27 -9 3 9 0 20 -8
25 -11 7 -11 9 2 9 11 0 18 -11 21 -30 4 -27 2 -30 -23 -30 -22 0 -27 5 -31
30 -3 17 -1 30 4 30 4 0 8 -11 8 -25z m278 -2 c2 -13 10 -23 19 -23 11 0 14 7
11 25 -5 22 -2 25 23 25 16 0 29 -5 29 -11 0 -5 -5 -7 -10 -4 -6 3 -13 -1 -17
-10 -3 -10 0 -21 8 -26 9 -5 -11 -9 -53 -9 l-68 0 0 31 c0 27 3 30 28 27 19
-2 28 -9 30 -25z m154 -13 c-4 -36 -7 -40 -31 -39 l-26 1 25 8 c24 8 24 8 2 9
-46 2 -41 61 5 61 27 0 28 -2 25 -40z m78 25 c11 -13 8 -15 -14 -15 -34 0 -34
-18 2 -23 25 -4 24 -4 -6 -6 -21 0 -35 4 -38 14 -9 23 3 45 24 45 11 0 25 -7
32 -15z m740 -10 c0 -28 17 -34 27 -9 3 9 0 20 -8 25 -11 7 -11 9 2 9 11 0 18
-11 21 -30 4 -27 2 -30 -23 -30 -22 0 -27 5 -31 30 -3 17 -1 30 4 30 4 0 8
-11 8 -25z m130 16 c0 -5 -8 -8 -17 -7 -24 2 -29 -31 -6 -37 10 -3 2 -5 -17
-5 -19 0 -29 2 -22 5 6 2 12 13 12 23 0 10 -6 21 -12 23 -7 3 4 6 25 6 20 1
37 -3 37 -8z m301 -23 c7 -26 5 -28 -21 -28 -34 0 -41 9 -33 39 8 32 45 24 54
-11z m89 23 c0 -5 -8 -8 -17 -7 -24 2 -29 -31 -6 -37 10 -3 2 -5 -17 -5 -19 0
-29 2 -22 5 6 2 12 13 12 23 0 10 -6 21 -12 23 -7 3 4 6 25 6 20 1 37 -3 37
-8z m71 -28 c-5 -31 -11 -38 -31 -40 -21 -2 -22 -1 -6 5 19 8 19 9 -2 14 -13
4 -22 14 -22 25 0 26 8 33 40 33 25 0 27 -2 21 -37z m77 20 c2 -8 -6 -13 -24
-13 -30 0 -23 -15 11 -23 15 -3 13 -5 -8 -6 -29 -1 -43 18 -33 45 7 18 47 15
54 -3z m-1960 -10 c-10 -2 -26 -2 -35 0 -10 3 -2 5 17 5 19 0 27 -2 18 -5z
m1170 0 c-10 -2 -26 -2 -35 0 -10 3 -2 5 17 5 19 0 27 -2 18 -5z m80 0 c-10
-2 -26 -2 -35 0 -10 3 -2 5 17 5 19 0 27 -2 18 -5z m-248 -20 c0 -5 -4 -15
-10 -23 -11 -18 -25 -7 -17 15 6 15 27 21 27 8z m684 -98 c-4 -10 0 -15 11
-15 11 0 15 5 11 15 -3 8 0 15 7 15 7 0 12 -15 12 -40 0 -24 -5 -40 -12 -40
-6 0 -9 9 -6 20 4 14 0 20 -12 20 -12 0 -16 -6 -12 -20 3 -11 0 -20 -6 -20 -7
0 -12 16 -12 40 0 25 5 40 12 40 7 0 10 -7 7 -15z m856 5 c0 -5 8 -10 19 -10
13 0 20 -9 23 -30 3 -19 0 -30 -7 -30 -8 0 -10 10 -7 26 4 20 1 25 -9 22 -8
-3 -14 -15 -13 -27 0 -11 -4 -21 -10 -21 -6 0 -11 18 -11 40 0 22 3 40 8 40 4
0 7 -4 7 -10z m355 -25 c0 -20 6 -31 18 -33 13 -3 17 3 17 26 0 17 -6 33 -12
35 -7 3 1 5 17 5 17 0 24 -2 18 -5 -18 -7 -17 -63 1 -63 8 0 17 6 19 13 3 7 6
5 6 -5 1 -14 -7 -18 -41 -18 -25 0 -49 7 -61 18 -19 16 -20 16 -14 0 5 -13 1
-18 -11 -18 -15 0 -17 7 -14 35 2 20 0 35 -6 35 -6 0 -12 -15 -14 -32 -2 -28
-7 -33 -28 -33 -21 0 -26 6 -31 38 l-6 38 71 -3 71 -3 0 -30z m305 27 c-23 -4
-24 -5 -5 -13 17 -6 17 -8 3 -8 -11 -1 -18 -9 -18 -20 0 -11 8 -22 18 -24 9
-3 1 -5 -18 -5 -19 0 -29 2 -22 5 15 6 16 43 2 43 -6 0 -5 6 2 15 7 8 24 14
38 13 l25 -1 -25 -5z m200 -2 c0 -5 8 -10 19 -10 13 0 20 -9 23 -30 3 -19 0
-30 -7 -30 -8 0 -10 10 -7 26 4 20 1 25 -9 22 -8 -3 -14 -15 -13 -27 0 -11 -4
-21 -10 -21 -6 0 -11 18 -11 40 0 22 3 40 8 40 4 0 7 -4 7 -10z m310 1 c0 -5
10 -11 23 -13 16 -2 22 -10 22 -28 0 -20 -5 -26 -30 -28 -29 -3 -30 -1 -30 38
0 22 3 40 8 40 4 0 7 -4 7 -9z m-1222 -19 c-10 -2 -18 -12 -18 -23 0 -16 4
-19 21 -14 15 5 19 4 15 -4 -4 -6 -16 -11 -27 -11 -14 0 -19 7 -19 25 0 14 -6
25 -12 25 -10 0 -9 3 1 9 7 5 23 6 35 3 18 -5 18 -7 4 -10z m857 8 c17 -7 17
-9 3 -9 -11 -1 -18 -9 -18 -22 0 -16 4 -19 23 -14 17 6 19 4 11 -5 -18 -19
-47 -8 -55 22 -10 38 -2 44 36 28z m707 -8 c-15 -2 -22 -9 -20 -20 2 -10 11
-16 22 -14 11 2 15 -1 11 -7 -3 -6 -15 -11 -26 -11 -14 0 -19 7 -19 25 0 14
-6 25 -12 25 -10 0 -10 2 0 9 7 4 25 5 40 2 26 -5 26 -6 4 -9z m-2252 -7 c11
-13 8 -15 -14 -15 -34 0 -34 -18 2 -23 25 -4 24 -4 -6 -6 -21 0 -35 4 -38 14
-9 23 3 45 24 45 11 0 25 -7 32 -15z m90 6 c0 -5 -8 -8 -17 -7 -24 2 -29 -31
-6 -37 10 -3 2 -5 -17 -5 -19 0 -29 2 -22 5 6 2 12 13 12 23 0 10 -6 21 -12
23 -7 3 4 6 25 6 20 1 37 -3 37 -8z m68 -8 c2 -8 -6 -13 -24 -13 -30 0 -23
-15 11 -23 15 -3 13 -5 -8 -6 -29 -1 -43 18 -33 45 7 18 47 15 54 -3z m154
-23 c-4 -36 -7 -40 -31 -39 l-26 1 25 8 c24 8 24 8 2 9 -46 2 -41 61 5 61 27
0 28 -2 25 -40z m83 10 c0 -20 -6 -26 -28 -28 -29 -4 -44 16 -33 44 4 10 15
14 33 12 22 -2 28 -8 28 -28z m75 15 c11 -13 8 -15 -14 -15 -34 0 -34 -18 2
-23 25 -4 24 -4 -6 -6 -21 0 -35 4 -38 14 -9 23 3 45 24 45 11 0 25 -7 32 -15z
m77 -12 c-2 -22 -8 -29 -30 -31 -15 -2 -27 2 -27 8 0 7 8 9 20 5 11 -3 20 -2
20 3 0 5 -9 12 -21 15 -27 7 -15 27 16 27 20 0 23 -5 22 -27z m313 12 c11 -13
8 -15 -14 -15 -34 0 -34 -18 2 -23 25 -4 24 -4 -6 -6 -21 0 -35 4 -38 14 -9
23 3 45 24 45 11 0 25 -7 32 -15z m474 0 c9 -25 -5 -45 -30 -45 -26 0 -40 20
-30 45 3 8 16 15 30 15 13 0 26 -7 30 -15z m386 0 c11 -13 8 -15 -14 -15 -34
0 -34 -18 2 -23 25 -4 24 -4 -6 -6 -21 0 -35 4 -38 14 -9 23 3 45 24 45 11 0
25 -7 32 -15z m155 -15 c0 -20 -6 -26 -26 -28 -30 -4 -46 22 -28 45 20 23 54
12 54 -17z m145 -10 c0 -37 -2 -40 -27 -39 -24 2 -25 2 -5 6 17 3 22 11 22 33
0 22 -5 30 -22 33 -20 4 -19 4 5 6 25 1 27 -2 27 -39z m90 25 c11 -13 8 -15
-14 -15 -34 0 -34 -18 2 -23 25 -4 24 -4 -6 -6 -21 0 -35 4 -38 14 -9 23 3 45
24 45 11 0 25 -7 32 -15z m80 5 c0 -5 -10 -9 -22 -7 -15 1 -23 -3 -23 -13 0
-10 9 -14 28 -13 15 1 25 -2 22 -8 -10 -15 -55 -10 -61 6 -10 25 4 45 31 45
14 0 25 -4 25 -10z m140 -14 c0 -13 6 -27 13 -29 6 -3 -4 -5 -23 -5 -19 0 -29
2 -22 5 6 2 12 13 12 23 0 10 -6 21 -12 23 -7 3 -3 6 10 6 17 1 22 -5 22 -23z
m171 8 c9 -11 6 -14 -15 -14 -34 0 -34 -17 2 -23 20 -4 18 -4 -8 -3 -28 1 -36
5 -38 24 -4 30 -20 28 -28 -3 -8 -33 -20 -32 -39 5 l-15 30 64 -1 c43 -1 69
-6 77 -15z m-4022 -131 c9 -17 10 -17 16 0 12 31 31 19 27 -16 -4 -32 -2 -34
27 -35 36 -1 43 23 10 31 -12 3 -19 12 -17 19 6 16 58 24 58 8 0 -7 -8 -9 -20
-5 -11 3 -20 2 -20 -3 0 -5 9 -12 21 -15 13 -4 20 -12 17 -24 -3 -14 -14 -18
-58 -20 -30 -1 -49 0 -42 3 6 3 12 13 12 22 0 15 -2 15 -10 2 -9 -13 -11 -13
-21 0 -9 12 -10 11 -6 -6 4 -19 0 -22 -39 -22 -51 -1 -73 23 -54 58 14 27 84
28 99 3z m1876 0 c6 -17 7 -17 16 0 17 29 35 20 31 -15 -3 -31 -1 -33 27 -35
38 -3 41 14 5 27 -14 6 -24 16 -22 23 6 15 58 22 58 7 0 -7 -8 -9 -20 -5 -11
4 -20 2 -20 -4 0 -6 6 -11 13 -11 19 0 36 -20 30 -36 -3 -9 -22 -14 -54 -14
-36 0 -47 3 -43 13 3 8 -2 14 -11 14 -9 0 -14 -6 -11 -13 3 -8 -10 -12 -45
-12 -44 -1 -50 2 -55 24 -10 41 1 54 50 54 33 0 46 -4 51 -17z m315 8 c0 -5 8
-11 19 -14 25 -6 35 -57 11 -57 -13 0 -16 6 -12 25 2 15 0 25 -7 25 -6 0 -11
-11 -11 -25 0 -14 -6 -25 -12 -25 -8 0 -13 15 -13 40 0 25 5 40 13 40 6 0 12
-4 12 -9z m620 0 c0 -5 10 -11 23 -13 16 -2 22 -10 22 -28 0 -21 -5 -25 -35
-28 -35 -3 -35 -3 -35 38 0 25 5 40 13 40 6 0 12 -4 12 -9z m282 -31 l4 -41
-36 3 c-30 3 -35 7 -35 28 0 18 6 26 23 28 12 2 20 8 17 13 -4 5 0 9 8 9 10 0
16 -14 19 -40z m138 32 c-23 -4 -24 -5 -5 -13 17 -6 17 -8 3 -8 -11 -1 -18 -9
-18 -20 0 -11 8 -22 18 -24 9 -3 1 -5 -18 -5 -19 0 -29 2 -22 5 15 6 16 43 2
43 -6 0 -5 6 2 15 7 8 24 14 38 13 l25 -1 -25 -5z m230 -26 c0 -19 6 -37 13
-39 6 -3 -4 -5 -23 -5 -19 0 -29 2 -22 5 6 2 12 17 12 33 0 16 -6 31 -12 33
-7 3 -3 6 10 6 19 1 22 -4 22 -33z m-1332 6 c-10 -2 -18 -12 -18 -23 0 -16 4
-19 21 -14 15 5 19 4 15 -4 -4 -6 -16 -11 -27 -11 -14 0 -19 7 -19 25 0 14 -6
25 -12 25 -10 0 -9 3 1 9 7 5 23 6 35 3 18 -5 18 -7 4 -10z m237 8 c17 -7 17
-9 3 -9 -11 -1 -18 -9 -18 -22 0 -16 4 -19 23 -14 17 6 19 4 11 -5 -18 -19
-47 -8 -55 22 -10 38 -2 44 36 28z m1170 0 c17 -7 17 -9 3 -9 -11 -1 -18 -9
-18 -22 0 -16 4 -19 23 -14 17 6 19 4 11 -5 -18 -19 -47 -8 -55 22 -10 38 -2
44 36 28z m-3725 -10 c0 -6 -11 -8 -25 -4 -21 5 -25 3 -25 -16 0 -19 4 -21 26
-16 17 5 23 3 19 -4 -8 -13 -52 -13 -60 0 -14 22 6 50 36 50 16 0 29 -5 29
-10z m1637 -17 c-2 -24 -7 -28 -35 -31 -18 -2 -32 1 -32 8 0 6 10 8 25 4 15
-4 25 -2 25 5 0 6 -9 11 -20 11 -11 0 -20 7 -20 15 0 10 10 15 29 15 26 0 30
-3 28 -27z m83 16 c0 -7 -10 -9 -25 -5 -21 5 -25 3 -25 -15 0 -18 4 -20 26
-15 17 5 23 3 19 -4 -10 -15 -55 -12 -61 5 -11 27 4 45 36 45 16 0 30 -5 30
-11z m68 -16 c2 -13 8 -23 14 -23 6 0 8 11 5 26 -4 23 -2 25 26 22 24 -2 32
-9 38 -30 l7 -28 -74 0 c-41 0 -74 3 -74 8 0 4 3 17 6 30 9 31 48 26 52 -5z
m703 -5 c7 -26 5 -28 -21 -28 -34 0 -41 9 -33 39 8 32 45 24 54 -11z m237 5
c2 -13 10 -23 19 -23 11 0 14 7 11 25 -5 22 -2 25 23 25 16 0 29 -5 29 -11 0
-5 -5 -7 -10 -4 -6 3 -13 -1 -17 -10 -3 -10 0 -21 8 -26 9 -5 -11 -9 -53 -9
l-68 0 0 31 c0 27 3 30 28 27 19 -2 28 -9 30 -25z m160 10 c2 -8 -6 -13 -22
-13 -35 0 -33 -18 2 -23 26 -4 25 -4 -5 -6 -24 -1 -33 4 -38 19 -3 11 -3 25 0
30 9 15 57 8 63 -7z m196 3 c-3 -8 -1 -17 5 -21 10 -5 15 7 12 28 0 4 6 7 14
7 14 0 14 -3 0 -30 -9 -17 -13 -35 -10 -40 4 -6 -6 -10 -22 -10 -21 0 -24 3
-14 9 12 8 13 14 3 36 -15 33 -15 35 3 35 8 0 12 -6 9 -14z m274 -3 c2 -8 -6
-13 -22 -13 -35 0 -33 -18 2 -23 26 -4 25 -4 -5 -6 -24 -1 -33 4 -38 19 -3 11
-3 25 0 30 9 15 57 8 63 -7z m153 -15 c7 -27 5 -28 -27 -28 -31 0 -34 2 -34
31 0 27 3 30 27 27 19 -2 29 -10 34 -30z m39 6 c0 -15 4 -23 11 -18 6 3 9 15
6 25 -3 11 0 19 8 19 7 0 15 -13 17 -30 4 -28 2 -30 -28 -30 -28 0 -32 4 -36
30 -3 20 0 30 9 30 7 0 13 -11 13 -26z m-3642 -1 c-10 -2 -26 -2 -35 0 -10 3
-2 5 17 5 19 0 27 -2 18 -5z m195 -125 c-3 -17 -2 -19 5 -9 5 7 15 10 21 7 6
-4 11 -3 11 3 0 5 -6 12 -12 14 -7 3 -3 6 8 6 18 1 20 -4 17 -26 -8 -51 -12
-56 -27 -44 -11 9 -15 9 -19 -1 -6 -19 -13 -8 -21 35 -5 29 -4 37 8 37 9 0 13
-7 9 -22z m287 -13 c0 -19 5 -35 11 -35 7 0 10 14 7 35 -4 32 -2 35 22 34 14
0 19 -3 13 -6 -15 -6 -18 -63 -3 -63 6 0 10 5 10 10 0 6 5 10 10 10 6 0 10 -7
10 -15 0 -13 -13 -15 -72 -13 -70 3 -73 4 -73 28 0 18 6 26 23 28 12 2 20 8
17 13 -4 5 1 9 9 9 12 0 16 -10 16 -35z m1250 25 c0 -6 -10 -8 -24 -4 -26 6
-40 -14 -29 -42 4 -11 13 -14 30 -9 16 4 22 2 18 -5 -3 -5 -17 -10 -30 -10
-26 0 -43 35 -31 65 6 17 66 21 66 5z m780 -25 c0 -28 4 -35 20 -35 15 0 20 7
20 29 0 16 -6 32 -12 34 -8 3 -6 6 5 6 13 1 17 -7 17 -33 0 -24 5 -36 18 -39
9 -3 -15 -5 -54 -6 -55 -1 -73 2 -78 14 -8 23 4 45 26 45 10 0 16 5 13 10 -3
6 1 10 9 10 12 0 16 -10 16 -35z m-1742 7 c-10 -2 -18 -12 -18 -23 0 -16 4
-19 21 -14 15 5 19 4 15 -4 -4 -6 -16 -11 -27 -11 -14 0 -19 7 -19 25 0 14 -6
25 -12 25 -10 0 -9 3 1 9 7 5 23 6 35 3 18 -5 18 -7 4 -10z m1174 0 c-15 -2
-22 -9 -20 -20 2 -10 11 -16 22 -14 11 2 15 -1 11 -7 -3 -6 -15 -11 -26 -11
-14 0 -19 7 -19 25 0 14 -6 25 -12 25 -10 0 -10 2 0 9 7 4 25 5 40 2 26 -5 26
-6 4 -9z m860 0 c-15 -2 -22 -9 -20 -20 2 -10 11 -16 22 -14 11 2 15 -1 11 -7
-3 -6 -15 -11 -26 -11 -14 0 -19 7 -19 25 0 14 -6 25 -12 25 -10 0 -10 2 0 9
7 4 25 5 40 2 26 -5 26 -6 4 -9z m-2762 -2 c0 -5 7 -10 16 -10 8 0 12 5 9 10
-3 6 3 10 14 10 17 0 18 -3 8 -30 -12 -30 -27 -40 -27 -17 0 8 -3 7 -10 -3
-10 -16 -12 -15 -28 23 -10 22 -9 27 3 27 8 0 15 -4 15 -10z m278 -22 c3 -24
0 -28 -23 -28 -27 0 -41 20 -31 46 10 27 51 13 54 -18z m82 21 c0 -5 -5 -7
-10 -4 -6 3 -13 -1 -17 -10 -3 -10 0 -21 8 -26 10 -6 3 -9 -21 -9 -24 0 -31 3
-21 9 8 5 12 18 8 30 -4 18 -1 21 24 21 16 0 29 -5 29 -11z m210 -13 c0 -15 7
-26 18 -29 9 -3 -1 -5 -23 -5 -22 0 -32 2 -22 5 20 5 23 39 5 46 -8 3 -6 6 5
6 12 1 17 -7 17 -23z m97 -3 c-2 -22 -8 -29 -30 -31 -15 -2 -27 2 -27 8 0 7 8
9 20 5 11 -3 20 -2 20 3 0 5 -9 12 -21 15 -27 7 -15 27 16 27 20 0 23 -5 22
-27z m1053 2 c0 -28 17 -34 27 -9 3 9 0 20 -8 25 -11 7 -11 9 2 9 11 0 18 -11
21 -31 4 -28 3 -30 -26 -27 -25 2 -32 8 -34 31 -2 15 1 27 7 27 6 0 11 -11 11
-25z m120 -5 c0 -27 -3 -30 -30 -30 -16 0 -30 5 -30 10 0 6 11 8 25 4 15 -4
25 -2 25 5 0 6 -9 11 -20 11 -11 0 -20 7 -20 15 0 9 9 15 25 15 21 0 25 -5 25
-30z m242 0 l4 -30 -72 1 c-56 1 -74 4 -78 16 -11 28 13 41 78 42 63 1 64 1
68 -29z m104 21 c-3 -5 4 -11 15 -14 15 -4 19 -2 15 9 -3 8 1 14 10 14 13 0
15 -6 9 -27 -9 -36 -14 -41 -25 -23 -7 10 -10 11 -10 3 0 -24 -18 -13 -29 17
-8 25 -7 30 5 30 8 0 13 -4 10 -9z m122 -23 c3 -24 0 -28 -23 -28 -27 0 -41
20 -31 46 10 27 51 13 54 -18z m82 21 c0 -5 -5 -7 -10 -4 -6 3 -13 -1 -17 -10
-3 -10 0 -21 8 -26 10 -6 3 -9 -21 -9 -24 0 -31 3 -21 9 8 5 12 18 8 30 -4 18
-1 21 24 21 16 0 29 -5 29 -11z m210 -13 c0 -15 7 -26 18 -29 9 -3 -1 -5 -23
-5 -22 0 -32 2 -22 5 20 5 23 39 5 46 -8 3 -6 6 5 6 12 1 17 -7 17 -23z m97
-3 c-2 -22 -8 -29 -30 -31 -15 -2 -27 2 -27 8 0 7 8 9 20 5 11 -3 20 -2 20 3
0 5 -9 12 -21 15 -27 7 -15 27 16 27 20 0 23 -5 22 -27z m-2739 0 c-10 -2 -26
-2 -35 0 -10 3 -2 5 17 5 19 0 27 -2 18 -5z m77 -113 l-20 -9 20 -1 c17 -2 17
-3 3 -7 -21 -5 -24 -39 -5 -46 6 -3 -4 -6 -23 -6 -23 0 -30 2 -22 8 8 4 13 17
12 27 -4 37 0 44 28 43 24 0 25 -1 7 -9z m175 0 c0 -6 -11 -8 -25 -4 -15 4
-25 2 -25 -5 0 -6 7 -8 15 -5 10 4 15 0 15 -11 0 -11 -5 -15 -15 -11 -9 3 -15
0 -15 -9 0 -7 8 -16 18 -18 11 -3 9 -5 -8 -6 -23 -1 -25 3 -25 39 0 38 1 40
33 40 17 0 32 -5 32 -10z m130 -24 c0 -19 6 -37 13 -39 6 -3 -4 -5 -23 -5 -19
0 -29 2 -22 5 6 2 12 17 12 33 0 16 -6 31 -12 33 -7 3 -3 6 10 6 19 1 22 -4
22 -33z m630 26 c-23 -4 -24 -5 -5 -13 17 -6 17 -8 3 -8 -11 -1 -18 -9 -18
-20 0 -11 8 -22 18 -24 9 -3 1 -5 -18 -5 -19 0 -29 2 -22 5 15 6 16 43 2 43
-6 0 -5 6 2 15 7 8 24 14 38 13 l25 -1 -25 -5z m150 -26 c0 -19 6 -37 13 -39
6 -3 -4 -5 -23 -5 -19 0 -29 2 -22 5 6 2 12 17 12 33 0 16 -6 31 -12 33 -7 3
-3 6 10 6 19 1 22 -4 22 -33z m420 24 c0 -6 -11 -8 -25 -4 -15 4 -25 2 -25 -5
0 -6 7 -8 15 -5 10 4 15 0 15 -11 0 -11 -5 -15 -15 -11 -9 3 -15 0 -15 -9 0
-7 8 -16 18 -18 11 -3 9 -5 -8 -6 -23 -1 -25 3 -25 39 0 38 1 40 33 40 17 0
32 -5 32 -10z m120 -24 c0 -24 5 -36 18 -39 9 -3 -1 -5 -23 -5 -22 0 -32 2
-22 5 20 5 24 58 5 66 -8 3 -6 6 5 6 13 1 17 -7 17 -33z m-1245 14 c17 -7 17
-9 3 -9 -11 -1 -18 -9 -18 -22 0 -16 4 -19 23 -14 17 6 19 4 11 -5 -18 -19
-47 -8 -55 22 -10 38 -2 44 36 28z m783 -8 c-10 -2 -18 -12 -18 -23 0 -16 4
-19 21 -14 15 5 19 4 15 -4 -4 -6 -16 -11 -27 -11 -14 0 -19 7 -19 25 0 14 -6
25 -12 25 -10 0 -9 3 1 9 7 5 23 6 35 3 18 -5 18 -7 4 -10z m547 8 c17 -7 17
-9 3 -9 -11 -1 -18 -9 -18 -22 0 -16 4 -19 23 -14 17 6 19 4 11 -5 -18 -19
-47 -8 -55 22 -10 38 -2 44 36 28z m-1485 -24 c0 -13 6 -27 13 -29 6 -3 -4 -5
-23 -5 -19 0 -29 2 -22 5 6 2 12 13 12 23 0 10 -6 21 -12 23 -7 3 -3 6 10 6
17 1 22 -5 22 -23z m250 9 c11 -13 8 -15 -14 -15 -34 0 -34 -18 2 -23 25 -4
24 -4 -6 -6 -21 0 -35 4 -38 14 -9 23 3 45 24 45 11 0 25 -7 32 -15z m90 6 c0
-5 -8 -8 -17 -7 -24 2 -29 -31 -6 -37 10 -3 2 -5 -17 -5 -19 0 -29 2 -22 5 6
2 12 13 12 23 0 10 -6 21 -12 23 -7 3 4 6 25 6 20 1 37 -3 37 -8z m440 -15 c0
-13 6 -27 13 -29 6 -3 -4 -5 -23 -5 -19 0 -29 2 -22 5 6 2 12 13 12 23 0 10
-6 21 -12 23 -7 3 -3 6 10 6 17 1 22 -5 22 -23z m258 7 c2 -8 -6 -13 -22 -13
-35 0 -33 -18 2 -23 26 -4 25 -4 -5 -6 -24 -1 -33 4 -38 19 -3 11 -3 25 0 30
9 15 57 8 63 -7z m82 8 c0 -5 -8 -8 -17 -7 -24 2 -29 -31 -6 -37 10 -3 2 -5
-17 -5 -19 0 -29 2 -22 5 6 2 12 13 12 23 0 10 -6 21 -12 23 -7 3 4 6 25 6 20
1 37 -3 37 -8z m210 -15 c0 -13 6 -27 13 -29 6 -3 -4 -5 -23 -5 -19 0 -29 2
-22 5 6 2 12 13 12 23 0 10 -6 21 -12 23 -7 3 -3 6 10 6 17 1 22 -5 22 -23z
m250 9 c11 -13 8 -15 -14 -15 -34 0 -34 -18 2 -23 25 -4 24 -4 -6 -6 -21 0
-35 4 -38 14 -9 23 3 45 24 45 11 0 25 -7 32 -15z m80 5 c0 -5 -5 -9 -12 -7
-20 4 -21 -31 -1 -36 11 -3 6 -5 -12 -6 -27 -1 -30 2 -30 29 0 26 4 30 28 30
15 0 27 -4 27 -10z m-1962 -17 c-10 -2 -26 -2 -35 0 -10 3 -2 5 17 5 19 0 27
-2 18 -5z m860 0 c-10 -2 -28 -2 -40 0 -13 2 -5 4 17 4 22 1 32 -1 23 -4z m80
0 c-10 -2 -28 -2 -40 0 -13 2 -5 4 17 4 22 1 32 -1 23 -4z m-258 -33 c-6 -11
-13 -20 -15 -20 -3 0 -5 9 -5 20 0 11 7 20 15 20 13 0 14 -4 5 -20z m1050 -79
c0 -5 -9 -7 -20 -4 -12 3 -20 0 -20 -6 0 -7 5 -9 10 -6 6 3 10 -1 10 -10 0 -9
-4 -13 -10 -10 -5 3 -10 0 -10 -9 0 -8 6 -17 13 -19 6 -3 1 -6 -13 -6 -23 -1
-25 3 -25 39 0 38 1 40 33 40 17 0 32 -4 32 -9z m130 -25 c0 -24 5 -36 18 -39
9 -3 -1 -5 -23 -5 -22 0 -32 2 -22 5 20 5 24 58 5 66 -8 3 -6 6 5 6 13 1 17
-7 17 -33z m450 25 c0 -5 8 -11 19 -14 10 -2 20 -16 23 -31 l5 -26 -65 2 c-62
3 -66 4 -73 30 -9 33 1 41 33 29 17 -7 18 -10 6 -10 -11 -1 -18 -9 -18 -20 0
-14 7 -19 26 -17 23 1 25 5 22 34 -3 21 0 32 9 32 7 0 13 -4 13 -9z m860 0 c0
-5 8 -11 19 -14 10 -2 20 -16 23 -31 5 -24 3 -26 -31 -26 -35 0 -36 1 -36 40
0 25 5 40 13 40 6 0 12 -4 12 -9z m314 -6 c-4 -10 0 -15 11 -15 11 0 15 5 11
15 -3 8 0 15 7 15 7 0 12 -15 12 -40 0 -24 -5 -40 -12 -40 -6 0 -9 9 -6 20 4
14 0 20 -12 20 -12 0 -16 -6 -12 -20 3 -13 0 -20 -9 -20 -10 0 -14 12 -14 40
0 29 4 40 15 40 9 0 12 -6 9 -15z m198 -25 c3 -39 3 -40 -28 -40 -33 0 -48 18
-38 45 4 8 15 15 26 15 10 0 16 5 13 10 -3 6 0 10 8 10 10 0 16 -13 19 -40z
m390 0 c3 -39 3 -40 -28 -40 -20 0 -34 6 -38 16 -8 21 11 44 36 44 10 0 16 5
13 10 -3 6 -2 10 3 10 6 0 12 -18 14 -40z m628 30 c0 -6 -11 -8 -25 -4 -15 4
-25 2 -25 -5 0 -6 9 -11 19 -11 24 0 33 -13 25 -34 -7 -18 -64 -23 -64 -6 0 6
11 8 25 4 19 -5 25 -2 25 10 0 9 -8 16 -20 16 -13 0 -20 7 -20 20 0 16 7 20
30 20 17 0 30 -5 30 -10z m30 0 c0 -5 8 -10 19 -10 13 0 20 -9 23 -30 3 -19 0
-30 -7 -30 -6 0 -11 8 -11 18 1 9 -3 18 -9 19 -5 1 -10 -7 -9 -17 0 -11 -5
-20 -13 -20 -9 0 -13 13 -13 40 0 22 5 40 10 40 6 0 10 -4 10 -10z m512 -30
c3 -39 3 -40 -28 -40 -18 0 -35 6 -37 13 -4 9 -8 9 -15 -1 -5 -8 -20 -12 -33
-10 -18 2 -24 9 -24 28 0 19 6 26 24 28 13 2 27 -2 32 -10 6 -10 11 -10 21 0
6 6 20 12 31 12 10 0 15 5 12 10 -3 6 -2 10 3 10 6 0 12 -18 14 -40z m368 6
c0 -24 5 -36 18 -39 9 -3 -1 -5 -23 -5 -22 0 -32 2 -22 5 20 5 24 58 5 66 -8
3 -6 6 5 6 13 1 17 -7 17 -33z m-3668 6 c-15 -2 -22 -9 -20 -20 2 -10 11 -16
22 -14 11 2 15 -1 11 -7 -3 -6 -15 -11 -26 -11 -14 0 -19 7 -19 25 0 14 -6 25
-12 25 -10 0 -10 2 0 9 7 4 25 5 40 2 26 -5 26 -6 4 -9z m780 0 c-15 -2 -22
-9 -20 -20 2 -10 11 -16 22 -14 11 2 15 -1 11 -7 -3 -6 -15 -11 -26 -11 -14 0
-19 7 -19 25 0 14 -6 25 -12 25 -10 0 -10 2 0 9 7 4 25 5 40 2 26 -5 26 -6 4
-9z m233 8 c17 -7 17 -9 3 -9 -11 -1 -18 -9 -18 -22 0 -16 4 -19 23 -14 17 6
19 4 11 -5 -18 -19 -47 -8 -55 22 -10 38 -2 44 36 28z m-1175 -24 c0 -15 7
-26 18 -29 9 -3 -1 -5 -23 -5 -22 0 -32 2 -22 5 20 5 23 39 5 46 -8 3 -6 6 5
6 12 1 17 -7 17 -23z m258 7 c2 -8 -6 -13 -24 -13 -30 0 -23 -15 11 -23 16 -4
14 -5 -6 -6 -31 -1 -52 20 -43 43 8 20 55 18 62 -1z m82 7 c0 -5 -3 -9 -7 -9
-34 6 -48 -26 -15 -34 9 -3 1 -5 -18 -5 -19 0 -29 2 -22 5 6 2 12 13 12 23 0
10 -6 21 -12 23 -7 3 4 6 25 6 20 1 37 -3 37 -9z m308 -7 c2 -8 -6 -13 -24
-13 -30 0 -23 -15 11 -23 16 -4 14 -5 -6 -6 -31 -1 -52 20 -43 43 8 20 55 18
62 -1z m157 -13 c0 -20 -6 -26 -28 -28 -18 -2 -29 2 -33 12 -11 28 4 48 33 44
22 -2 28 -8 28 -28z m35 5 c0 -28 17 -34 27 -9 3 9 0 20 -8 25 -11 7 -11 9 2
9 11 0 18 -11 21 -31 4 -28 3 -30 -26 -27 -25 2 -32 8 -34 31 -2 15 1 27 7 27
6 0 11 -11 11 -25z m199 11 c17 -21 2 -46 -28 -46 -20 0 -23 -2 -11 -10 12 -8
12 -10 -5 -10 -17 0 -20 7 -20 40 0 37 2 40 26 40 15 0 32 -6 38 -14z m41 -12
c0 -15 4 -23 11 -18 6 3 9 15 6 25 -3 11 0 19 8 19 7 0 15 -13 17 -30 4 -28 2
-30 -28 -30 -28 0 -32 4 -36 30 -3 20 0 30 9 30 7 0 13 -11 13 -26z m430 16
c0 -5 -10 -9 -22 -7 -15 1 -23 -3 -23 -13 0 -10 8 -14 23 -13 13 2 21 -1 17
-7 -9 -15 -45 -12 -51 5 -10 25 4 45 31 45 14 0 25 -4 25 -10z m60 0 c0 -5 -7
-10 -15 -10 -8 0 -15 5 -15 10 0 6 7 10 15 10 8 0 15 -4 15 -10z m230 -14 c0
-13 6 -27 13 -29 6 -3 -4 -5 -23 -5 -19 0 -29 2 -22 5 6 2 12 13 12 23 0 10
-6 21 -12 23 -7 3 -3 6 10 6 17 1 22 -5 22 -23z m178 7 c2 -8 -6 -13 -24 -13
-30 0 -23 -15 11 -23 16 -4 14 -5 -6 -6 -31 -1 -52 20 -43 43 8 20 55 18 62
-1z m162 6 c0 -7 -10 -9 -25 -5 -21 5 -25 3 -25 -15 0 -18 4 -20 26 -15 17 5
23 3 19 -4 -10 -15 -55 -12 -61 5 -11 27 4 45 36 45 16 0 30 -5 30 -11z m68
-21 c3 -24 0 -28 -23 -28 -27 0 -41 20 -31 46 10 27 51 13 54 -18z m160 15 c2
-8 -6 -13 -24 -13 -30 0 -23 -15 11 -23 16 -4 14 -5 -6 -6 -31 -1 -52 20 -43
43 8 20 55 18 62 -1z m62 7 c0 -5 -7 -10 -15 -10 -8 0 -15 5 -15 10 0 6 7 10
15 10 8 0 15 -4 15 -10z m170 -20 c0 -27 -3 -30 -30 -30 -16 0 -30 5 -30 10 0
6 11 8 25 4 15 -4 25 -2 25 5 0 6 -9 11 -20 11 -11 0 -20 7 -20 15 0 9 9 15
25 15 21 0 25 -5 25 -30z m80 20 c0 -5 -10 -9 -22 -7 -15 1 -23 -3 -23 -13 0
-10 9 -14 28 -13 15 1 25 -2 22 -8 -10 -15 -55 -10 -61 6 -10 25 4 45 31 45
14 0 25 -4 25 -10z m60 0 c0 -5 -7 -10 -15 -10 -8 0 -15 5 -15 10 0 6 7 10 15
10 8 0 15 -4 15 -10z m328 -22 c3 -24 0 -28 -23 -28 -27 0 -41 20 -31 46 10
27 51 13 54 -18z m36 18 c-4 -11 0 -13 15 -9 11 3 18 9 15 14 -3 5 2 9 10 9
12 0 13 -5 5 -29 -7 -21 -17 -28 -35 -28 -13 0 -24 5 -24 12 0 8 -3 20 -6 29
-4 10 -1 16 10 16 9 0 13 -6 10 -14z m206 4 c0 -6 -11 -8 -25 -4 -21 5 -25 3
-25 -16 0 -19 4 -21 26 -16 17 5 23 3 19 -4 -8 -13 -52 -13 -60 0 -14 22 6 50
36 50 16 0 29 -5 29 -10z m228 -7 c2 -8 -6 -13 -24 -13 -30 0 -23 -15 11 -23
15 -3 13 -5 -8 -6 -29 -1 -43 18 -33 45 7 18 47 15 54 -3z m157 -13 c0 -20 -6
-26 -28 -28 -18 -2 -29 2 -33 12 -11 28 4 48 33 44 22 -2 28 -8 28 -28z m77 0
c3 -19 0 -30 -7 -30 -6 0 -11 8 -11 18 1 9 -3 18 -9 19 -5 1 -10 -7 -9 -17 0
-11 -4 -20 -10 -20 -6 0 -11 14 -11 30 0 26 4 30 26 30 22 0 28 -5 31 -30z
m122 16 c-3 -8 -1 -17 5 -21 10 -5 15 7 12 28 0 4 6 7 14 7 14 0 14 -3 0 -30
-9 -17 -13 -35 -10 -40 4 -6 -6 -10 -22 -10 -21 0 -24 3 -14 9 12 8 13 14 3
36 -15 33 -15 35 3 35 8 0 12 -6 9 -14z m-2644 -33 c0 -5 -4 -15 -10 -23 -11
-18 -25 -7 -17 15 6 15 27 21 27 8z m320 -3 c0 -5 -7 -10 -15 -10 -8 0 -15 5
-15 10 0 6 7 10 15 10 8 0 15 -4 15 -10z m850 -5 c-7 -8 -16 -15 -21 -15 -5 0
-6 7 -3 15 4 8 13 15 21 15 13 0 13 -3 3 -15z m320 5 c0 -5 -7 -10 -15 -10 -8
0 -15 5 -15 10 0 6 7 10 15 10 8 0 15 -4 15 -10z m-4295 -130 c0 -33 -4 -50
-12 -50 -9 0 -13 17 -13 50 0 33 4 50 13 50 8 0 12 -17 12 -50z m54 43 c-1 -5
-1 -17 0 -28 2 -20 2 -20 16 -1 8 10 12 23 9 27 -3 5 1 9 10 9 12 0 12 -5 -1
-40 -9 -22 -20 -40 -25 -40 -4 0 -8 2 -8 4 0 2 -7 20 -15 40 -14 32 -14 36 0
36 8 0 14 -3 14 -7z m171 -27 c0 -24 5 -36 18 -39 9 -3 -1 -5 -23 -5 -22 0
-32 2 -22 5 20 5 24 58 5 66 -8 3 -6 6 5 6 13 1 17 -7 17 -33z m403 27 c-7 -2
-13 -22 -13 -43 0 -21 6 -41 13 -43 7 -3 5 -6 -5 -6 -15 -1 -18 8 -18 49 0 41
3 50 18 49 10 0 12 -3 5 -6z m52 -3 c-3 -5 -2 -17 3 -26 8 -15 10 -15 16 1 3
9 4 21 0 26 -3 5 4 9 15 9 19 0 19 0 0 -40 -11 -22 -22 -40 -24 -40 -2 0 -13
18 -24 40 -19 40 -19 40 0 40 11 0 17 -4 14 -10z m175 -24 c0 -19 6 -37 13
-39 6 -3 -4 -5 -23 -5 -19 0 -29 2 -22 5 6 2 12 17 12 33 0 16 -6 31 -12 33
-7 3 -3 6 10 6 19 1 22 -4 22 -33z m620 -16 c0 -41 -3 -50 -17 -49 -11 0 -13
3 -5 6 6 2 12 22 12 43 0 21 -6 41 -12 43 -8 3 -6 6 5 6 14 1 17 -8 17 -49z
m80 0 c0 -41 -3 -50 -17 -49 -11 0 -13 3 -5 6 6 2 12 22 12 43 0 21 -6 41 -12
43 -8 3 -6 6 5 6 14 1 17 -8 17 -49z m550 16 c0 -19 6 -37 13 -39 6 -3 -4 -5
-23 -5 -19 0 -29 2 -22 5 6 2 12 17 12 33 0 16 -6 31 -12 33 -7 3 -3 6 10 6
19 1 22 -4 22 -33z m395 -16 c0 -33 -4 -50 -12 -50 -9 0 -13 17 -13 50 0 33 4
50 13 50 8 0 12 -17 12 -50z m54 43 c-1 -5 -1 -17 0 -28 2 -20 2 -20 16 -1 8
10 12 23 9 27 -3 5 1 9 10 9 12 0 12 -5 -1 -40 -9 -22 -20 -40 -25 -40 -4 0
-8 2 -8 4 0 2 -7 20 -15 40 -14 32 -14 36 0 36 8 0 14 -3 14 -7z m171 -27 c0
-24 5 -36 18 -39 9 -3 -1 -5 -23 -5 -22 0 -32 2 -22 5 20 5 24 58 5 66 -8 3
-6 6 5 6 13 1 17 -7 17 -33z m403 27 c-7 -2 -13 -22 -13 -43 0 -21 6 -41 13
-43 7 -3 5 -6 -5 -6 -15 -1 -18 8 -18 49 0 41 3 50 18 49 10 0 12 -3 5 -6z
m52 -3 c-3 -5 -2 -17 3 -26 8 -15 10 -15 16 1 3 9 4 21 0 26 -3 5 4 9 15 9 19
0 19 0 0 -40 -11 -22 -22 -40 -24 -40 -2 0 -13 18 -24 40 -19 40 -19 40 0 40
11 0 17 -4 14 -10z m175 -24 c0 -19 6 -37 13 -39 6 -3 -4 -5 -23 -5 -19 0 -29
2 -22 5 6 2 12 17 12 33 0 16 -6 31 -12 33 -7 3 -3 6 10 6 19 1 22 -4 22 -33z
m620 -16 c0 -41 -3 -50 -17 -49 -11 0 -13 3 -5 6 6 2 12 22 12 43 0 21 -6 41
-12 43 -8 3 -6 6 5 6 14 1 17 -8 17 -49z m80 0 c0 -41 -3 -50 -17 -49 -11 0
-13 3 -5 6 6 2 12 22 12 43 0 21 -6 41 -12 43 -8 3 -6 6 5 6 14 1 17 -8 17
-49z m-4194 14 c-9 -8 -16 -22 -16 -30 0 -24 -19 -16 -35 16 l-16 30 41 0 c38
0 40 -1 26 -16z m306 -14 c4 -27 2 -30 -22 -30 -34 0 -38 5 -32 35 7 39 48 35
54 -5z m118 5 c0 -28 17 -34 27 -9 3 9 0 20 -8 25 -11 7 -11 9 2 9 11 0 18
-11 21 -31 4 -28 3 -30 -26 -27 -25 2 -32 8 -34 31 -2 15 1 27 7 27 6 0 11
-11 11 -25z m120 10 c11 -13 8 -15 -14 -15 -34 0 -34 -18 2 -23 25 -4 24 -4
-6 -6 -21 0 -35 4 -38 14 -9 23 3 45 24 45 11 0 25 -7 32 -15z m77 -12 c-2
-22 -8 -29 -30 -31 -15 -2 -27 2 -27 8 0 7 8 9 20 5 11 -3 20 -2 20 3 0 5 -9
12 -21 15 -27 7 -15 27 16 27 20 0 23 -5 22 -27z m314 -5 c7 -27 5 -28 -27
-28 -36 0 -37 2 -28 38 9 33 45 26 55 -10z m119 6 c0 -15 4 -23 11 -18 6 3 9
15 6 25 -3 11 0 19 8 19 7 0 15 -13 17 -30 4 -28 2 -30 -28 -30 -28 0 -32 4
-36 30 -3 20 0 30 9 30 7 0 13 -11 13 -26z m118 9 c2 -8 -6 -13 -24 -13 -30 0
-23 -15 11 -23 16 -4 14 -5 -6 -6 -31 -1 -52 20 -43 43 8 20 55 18 62 -1z m79
-10 c-2 -24 -7 -28 -35 -31 -18 -2 -32 1 -32 8 0 6 10 8 25 4 15 -4 25 -2 25
5 0 6 -9 11 -20 11 -11 0 -20 7 -20 15 0 10 10 15 29 15 26 0 30 -3 28 -27z
m859 11 c-9 -8 -16 -22 -16 -30 0 -24 -19 -16 -35 16 l-16 30 41 0 c38 0 40
-1 26 -16z m75 -16 c7 -27 5 -28 -27 -28 -36 0 -37 2 -28 38 9 33 45 26 55
-10z m119 6 c0 -15 4 -23 11 -18 6 3 9 15 6 25 -3 11 0 19 8 19 7 0 15 -13 17
-30 4 -28 2 -30 -28 -30 -28 0 -32 4 -36 30 -3 20 0 30 9 30 7 0 13 -11 13
-26z m118 9 c2 -8 -6 -13 -24 -13 -30 0 -23 -15 11 -23 16 -4 14 -5 -6 -6 -31
-1 -52 20 -43 43 8 20 55 18 62 -1z m79 -10 c-2 -24 -7 -28 -35 -31 -18 -2
-32 1 -32 8 0 6 10 8 25 4 15 -4 25 -2 25 5 0 6 -9 11 -20 11 -11 0 -20 7 -20
15 0 10 10 15 29 15 26 0 30 -3 28 -27z m305 -3 c4 -27 2 -30 -22 -30 -34 0
-38 5 -32 35 7 39 48 35 54 -5z m118 5 c0 -28 17 -34 27 -9 3 9 0 20 -8 25
-11 7 -11 9 2 9 11 0 18 -11 21 -31 4 -28 3 -30 -26 -27 -25 2 -32 8 -34 31
-2 15 1 27 7 27 6 0 11 -11 11 -25z m120 10 c11 -13 8 -15 -14 -15 -34 0 -34
-18 2 -23 25 -4 24 -4 -6 -6 -21 0 -35 4 -38 14 -9 23 3 45 24 45 11 0 25 -7
32 -15z m77 -12 c-2 -22 -8 -29 -30 -31 -15 -2 -27 2 -27 8 0 7 8 9 20 5 11
-3 20 -2 20 3 0 5 -9 12 -21 15 -27 7 -15 27 16 27 20 0 23 -5 22 -27z m314
-5 c7 -27 5 -28 -27 -28 -36 0 -37 2 -28 38 9 33 45 26 55 -10z m119 6 c0 -15
4 -23 11 -18 6 3 9 15 6 25 -3 11 0 19 8 19 7 0 15 -13 17 -30 4 -28 2 -30
-28 -30 -28 0 -32 4 -36 30 -3 20 0 30 9 30 7 0 13 -11 13 -26z m118 9 c2 -8
-6 -13 -24 -13 -30 0 -23 -15 11 -23 16 -4 14 -5 -6 -6 -31 -1 -52 20 -43 43
8 20 55 18 62 -1z m79 -10 c-2 -24 -7 -28 -35 -31 -18 -2 -32 1 -32 8 0 6 10
8 25 4 15 -4 25 -2 25 5 0 6 -9 11 -20 11 -11 0 -20 7 -20 15 0 10 10 15 29
15 26 0 30 -3 28 -27z m-3839 0 c-10 -2 -26 -2 -35 0 -10 3 -2 5 17 5 19 0 27
-2 18 -5z m2030 0 c-10 -2 -26 -2 -35 0 -10 3 -2 5 17 5 19 0 27 -2 18 -5z
m80 0 c-10 -2 -28 -2 -40 0 -13 2 -5 4 17 4 22 1 32 -1 23 -4z m-638 -23 c0
-5 -4 -10 -10 -10 -5 0 -10 5 -10 10 0 6 5 10 10 10 6 0 10 -4 10 -10z m80 0
c0 -5 -4 -10 -10 -10 -5 0 -10 5 -10 10 0 6 5 10 10 10 6 0 10 -4 10 -10z m80
0 c0 -5 -7 -10 -15 -10 -8 0 -15 5 -15 10 0 6 7 10 15 10 8 0 15 -4 15 -10z
m230 3 c0 -5 -4 -15 -10 -23 -11 -18 -25 -7 -17 15 6 15 27 21 27 8z m2110 -3
c0 -5 -4 -10 -10 -10 -5 0 -10 5 -10 10 0 6 5 10 10 10 6 0 10 -4 10 -10z m80
0 c0 -5 -4 -10 -10 -10 -5 0 -10 5 -10 10 0 6 5 10 10 10 6 0 10 -4 10 -10z
m80 0 c0 -5 -7 -10 -15 -10 -8 0 -15 5 -15 10 0 6 7 10 15 10 8 0 15 -4 15
-10z m-2445 -90 c-3 -5 -2 -17 3 -26 8 -15 10 -15 16 1 3 9 4 21 0 26 -3 5 4
9 15 9 19 0 19 0 0 -40 -11 -22 -22 -40 -24 -40 -2 0 -13 18 -24 40 -19 40
-19 40 0 40 11 0 17 -4 14 -10z m175 -24 c0 -24 5 -36 18 -39 9 -3 -1 -5 -23
-5 -22 0 -32 2 -22 5 20 5 24 58 5 66 -8 3 -6 6 5 6 13 1 17 -7 17 -33z m400
26 c-23 -4 -24 -5 -5 -13 17 -6 17 -8 3 -8 -11 -1 -18 -9 -18 -20 0 -11 8 -22
18 -24 9 -3 1 -5 -18 -5 -19 0 -29 2 -22 5 15 6 16 43 2 43 -6 0 -5 6 2 15 7
8 24 14 38 13 l25 -1 -25 -5z m360 -2 c0 -5 8 -10 19 -10 13 0 20 -9 23 -30 3
-19 0 -30 -7 -30 -6 0 -11 8 -11 18 1 9 -3 18 -9 19 -5 1 -10 -7 -9 -17 0 -11
-5 -20 -13 -20 -9 0 -13 13 -13 40 0 22 5 40 10 40 6 0 10 -4 10 -10z m420 2
c-23 -4 -24 -5 -5 -13 17 -6 17 -8 3 -8 -11 -1 -18 -9 -18 -20 0 -11 8 -22 18
-24 9 -3 1 -5 -18 -5 -19 0 -29 2 -22 5 15 6 16 43 2 43 -6 0 -5 6 2 15 7 8
24 14 38 13 l25 -1 -25 -5z m150 -26 c0 -19 6 -37 13 -39 6 -3 -4 -5 -23 -5
-19 0 -29 2 -22 5 6 2 12 17 12 33 0 16 -6 31 -12 33 -7 3 -3 6 10 6 19 1 22
-4 22 -33z m-625 14 c17 -7 17 -9 3 -9 -11 -1 -18 -9 -18 -22 0 -16 4 -19 23
-14 17 6 19 4 11 -5 -18 -19 -47 -8 -55 22 -10 38 -2 44 36 28z m703 -8 c-10
-2 -18 -12 -18 -23 0 -16 4 -19 21 -14 15 5 19 4 15 -4 -4 -6 -16 -11 -27 -11
-14 0 -19 7 -19 25 0 14 -6 25 -12 25 -10 0 -9 3 1 9 7 5 23 6 35 3 18 -5 18
-7 4 -10z m784 0 c-15 -2 -22 -9 -20 -20 2 -10 11 -16 22 -14 11 2 15 -1 11
-7 -3 -6 -15 -11 -26 -11 -14 0 -19 7 -19 25 0 14 -6 25 -12 25 -10 0 -10 2 0
9 7 4 25 5 40 2 26 -5 26 -6 4 -9z m-2251 -25 c7 -26 5 -27 -27 -27 -36 0 -37
2 -28 38 9 33 45 26 55 -11z m119 7 c0 -15 4 -23 11 -18 6 3 9 15 6 25 -3 11
0 19 8 19 7 0 15 -14 17 -31 4 -28 3 -30 -25 -27 -24 2 -32 9 -38 31 -5 20 -4
27 7 27 8 0 14 -10 14 -26z m118 9 c2 -8 -6 -13 -24 -13 -30 0 -23 -15 11 -23
16 -4 14 -5 -6 -6 -31 -1 -52 20 -43 43 8 20 55 18 62 -1z m79 -10 c-2 -24 -7
-28 -35 -31 -18 -2 -32 1 -32 8 0 6 10 8 25 4 15 -4 25 -2 25 5 0 6 -9 11 -20
11 -11 0 -20 7 -20 15 0 10 10 15 29 15 26 0 30 -3 28 -27z m231 -5 c3 -24 0
-28 -23 -28 -27 0 -41 20 -31 46 10 27 51 13 54 -18z m82 21 c0 -5 -5 -7 -10
-4 -6 3 -13 -1 -17 -10 -3 -10 0 -21 8 -26 10 -6 3 -9 -21 -9 -24 0 -31 3 -21
9 8 5 12 18 8 30 -4 18 -1 21 24 21 16 0 29 -5 29 -11z m308 -6 c2 -8 -6 -13
-24 -13 -30 0 -23 -15 11 -23 15 -3 13 -5 -8 -6 -29 -1 -43 18 -33 45 7 18 47
15 54 -3z m372 -7 c0 -15 7 -26 18 -29 9 -3 -1 -5 -23 -5 -22 0 -32 2 -22 5
20 5 23 39 5 46 -8 3 -6 6 5 6 12 1 17 -7 17 -23z m258 7 c2 -8 -6 -13 -22
-13 -35 0 -33 -18 2 -23 26 -4 25 -4 -5 -6 -24 -1 -33 4 -38 19 -3 11 -3 25 0
30 9 15 57 8 63 -7z m82 7 c0 -5 -3 -9 -7 -9 -34 6 -48 -26 -15 -34 9 -3 1 -5
-18 -5 -19 0 -29 2 -22 5 6 2 12 13 12 23 0 10 -6 21 -12 23 -7 3 4 6 25 6 20
1 37 -3 37 -9z m149 -4 c17 -21 2 -46 -28 -46 -20 0 -23 -2 -11 -10 12 -8 12
-10 -5 -10 -17 0 -20 7 -20 40 0 37 2 40 26 40 15 0 32 -6 38 -14z m73 -16 c4
-27 2 -30 -22 -30 -34 0 -38 5 -32 35 7 39 48 35 54 -5z m88 19 c0 -5 -5 -7
-10 -4 -6 3 -13 -1 -17 -10 -3 -10 0 -21 8 -26 10 -6 3 -9 -21 -9 -24 0 -31 3
-21 9 8 5 12 18 8 30 -4 18 -1 21 24 21 16 0 29 -5 29 -11z m68 -16 c2 -13 8
-23 14 -23 6 0 8 11 6 25 -5 23 -2 25 33 25 36 0 39 -2 40 -27 l1 -28 7 25 c5
18 14 25 31 25 13 0 25 -6 28 -12 2 -9 -6 -13 -24 -13 -30 0 -23 -15 11 -22
11 -3 -28 -6 -87 -6 -59 -1 -109 2 -112 6 -3 5 -2 19 1 31 8 30 47 25 51 -6z
m320 10 c2 -8 -6 -13 -24 -13 -30 0 -23 -15 11 -23 16 -4 14 -5 -6 -6 -31 -1
-52 20 -43 43 8 20 55 18 62 -1z m82 7 c0 -5 -3 -9 -7 -9 -34 6 -48 -26 -15
-34 9 -3 1 -5 -18 -5 -19 0 -29 2 -22 5 6 2 12 13 12 23 0 10 -6 21 -12 23 -7
3 4 6 25 6 20 1 37 -3 37 -9z m-1342 -17 c-10 -2 -26 -2 -35 0 -10 3 -2 5 17
5 19 0 27 -2 18 -5z m80 0 c-10 -2 -28 -2 -40 0 -13 2 -5 4 17 4 22 1 32 -1
23 -4z"/>
<path d="M620 2505 c0 -8 7 -15 15 -15 8 0 15 7 15 15 0 8 -7 15 -15 15 -8 0
-15 -7 -15 -15z"/>
<path d="M1710 2480 c0 -11 5 -20 10 -20 6 0 10 9 10 20 0 11 -4 20 -10 20 -5
0 -10 -9 -10 -20z"/>
<path d="M2800 2490 c0 -20 5 -30 15 -30 10 0 15 10 15 30 0 20 -5 30 -15 30
-10 0 -15 -10 -15 -30z"/>
<path d="M2880 2505 c0 -9 5 -15 11 -13 6 2 11 8 11 13 0 5 -5 11 -11 13 -6 2
-11 -4 -11 -13z"/>
<path d="M3503 2504 c-9 -25 5 -44 32 -42 20 2 25 8 25 28 0 20 -5 25 -26 26
-14 1 -28 -4 -31 -12z"/>
<path d="M4434 2489 c-10 -17 13 -36 27 -22 12 12 4 33 -11 33 -5 0 -12 -5
-16 -11z"/>
<path d="M228 2493 c7 -3 16 -2 19 1 4 3 -2 6 -13 5 -11 0 -14 -3 -6 -6z"/>
<path d="M220 2470 c0 -5 4 -10 9 -10 6 0 13 5 16 10 3 6 -1 10 -9 10 -9 0
-16 -4 -16 -10z"/>
<path d="M300 2480 c0 -13 5 -20 13 -17 6 2 12 10 12 17 0 7 -6 15 -12 18 -8
2 -13 -5 -13 -18z"/>
<path d="M1088 2493 c7 -3 16 -2 19 1 4 3 -2 6 -13 5 -11 0 -14 -3 -6 -6z"/>
<path d="M1320 2481 c0 -12 6 -21 16 -21 9 0 14 7 12 17 -5 25 -28 28 -28 4z"/>
<path d="M2330 2470 c0 -5 4 -10 9 -10 6 0 13 5 16 10 3 6 -1 10 -9 10 -9 0
-16 -4 -16 -10z"/>
<path d="M2490 2480 c0 -19 11 -26 23 -14 8 8 -3 34 -14 34 -5 0 -9 -9 -9 -20z"/>
<path d="M4285 2491 c-8 -15 3 -31 21 -31 9 0 14 7 12 17 -4 20 -24 28 -33 14z"/>
<path d="M5618 2493 c7 -3 16 -2 19 1 4 3 -2 6 -13 5 -11 0 -14 -3 -6 -6z"/>
<path d="M1710 2340 c0 -5 5 -10 10 -10 6 0 10 5 10 10 0 6 -4 10 -10 10 -5 0
-10 -4 -10 -10z"/>
<path d="M2020 2320 c0 -5 5 -10 10 -10 6 0 10 5 10 10 0 6 -4 10 -10 10 -5 0
-10 -4 -10 -10z"/>
<path d="M2258 2343 c7 -3 16 -2 19 1 4 3 -2 6 -13 5 -11 0 -14 -3 -6 -6z"/>
<path d="M2648 2343 c7 -3 16 -2 19 1 4 3 -2 6 -13 5 -11 0 -14 -3 -6 -6z"/>
<path d="M2640 2320 c0 -5 4 -10 9 -10 6 0 13 5 16 10 3 6 -1 10 -9 10 -9 0
-16 -4 -16 -10z"/>
<path d="M70 2055 c0 -8 7 -15 15 -15 8 0 15 7 15 15 0 8 -7 15 -15 15 -8 0
-15 -7 -15 -15z"/>
<path d="M850 2040 c0 -32 23 -42 34 -15 8 21 -3 45 -20 45 -9 0 -14 -11 -14
-30z"/>
<path d="M1707 2043 c-13 -12 -7 -33 8 -33 8 0 15 9 15 20 0 20 -11 26 -23 13z"/>
<path d="M1787 2043 c-13 -12 -7 -33 8 -33 8 0 15 9 15 20 0 20 -11 26 -23 13z"/>
<path d="M2720 2031 c0 -12 6 -21 16 -21 9 0 14 7 12 17 -5 25 -28 28 -28 4z"/>
<path d="M2874 2039 c-10 -17 13 -36 27 -22 12 12 4 33 -11 33 -5 0 -12 -5
-16 -11z"/>
<path d="M4364 2039 c-10 -17 13 -36 27 -22 12 12 4 33 -11 33 -5 0 -12 -5
-16 -11z"/>
<path d="M1160 2030 c0 -11 7 -20 15 -20 8 0 15 9 15 20 0 11 -7 20 -15 20 -8
0 -15 -9 -15 -20z"/>
<path d="M1246 2035 c4 -8 7 -15 9 -15 2 0 5 7 9 15 3 9 0 15 -9 15 -9 0 -12
-6 -9 -15z"/>
<path d="M1868 2043 c7 -3 16 -2 19 1 4 3 -2 6 -13 5 -11 0 -14 -3 -6 -6z"/>
<path d="M2338 2043 c7 -3 16 -2 19 1 4 3 -2 6 -13 5 -11 0 -14 -3 -6 -6z"/>
<path d="M2650 2030 c0 -11 5 -20 10 -20 6 0 10 9 10 20 0 11 -4 20 -10 20 -5
0 -10 -9 -10 -20z"/>
<path d="M2560 2020 c0 -5 4 -10 9 -10 6 0 13 5 16 10 3 6 -1 10 -9 10 -9 0
-16 -4 -16 -10z"/>
<path d="M3118 2043 c7 -3 16 -2 19 1 4 3 -2 6 -13 5 -11 0 -14 -3 -6 -6z"/>
<path d="M3345 2040 c-8 -14 3 -30 21 -30 8 0 14 9 14 20 0 21 -24 28 -35 10z"/>
<path d="M3588 2043 c7 -3 16 -2 19 1 4 3 -2 6 -13 5 -11 0 -14 -3 -6 -6z"/>
<path d="M3815 2041 c-8 -15 3 -31 21 -31 9 0 14 7 12 17 -4 20 -24 28 -33 14z"/>
<path d="M3900 2030 c0 -11 5 -20 10 -20 6 0 10 9 10 20 0 11 -4 20 -10 20 -5
0 -10 -9 -10 -20z"/>
<path d="M4050 2020 c0 -5 4 -10 9 -10 6 0 13 5 16 10 3 6 -1 10 -9 10 -9 0
-16 -4 -16 -10z"/>
<path d="M4760 2040 c0 -5 5 -10 10 -10 6 0 10 5 10 10 0 6 -4 10 -10 10 -5 0
-10 -4 -10 -10z"/>
<path d="M4838 2043 c7 -3 16 -2 19 1 4 3 -2 6 -13 5 -11 0 -14 -3 -6 -6z"/>
<path d="M5308 2043 c7 -3 16 -2 19 1 4 3 -2 6 -13 5 -11 0 -14 -3 -6 -6z"/>
<path d="M1870 1880 c0 -11 5 -20 10 -20 6 0 10 9 10 20 0 11 -4 20 -10 20 -5
0 -10 -9 -10 -20z"/>
<path d="M1934 1889 c-10 -17 13 -36 27 -22 12 12 4 33 -11 33 -5 0 -12 -5
-16 -11z"/>
<path d="M4754 1889 c-10 -17 13 -36 27 -22 12 12 4 33 -11 33 -5 0 -12 -5
-16 -11z"/>
<path d="M5224 1889 c-10 -17 13 -36 27 -22 12 12 4 33 -11 33 -5 0 -12 -5
-16 -11z"/>
<path d="M60 1870 c0 -5 4 -10 9 -10 6 0 13 5 16 10 3 6 -1 10 -9 10 -9 0 -16
-4 -16 -10z"/>
<path d="M146 1885 c-3 -9 1 -18 10 -22 19 -7 28 2 21 22 -8 19 -23 19 -31 0z"/>
<path d="M226 1885 c-3 -9 1 -18 10 -22 19 -7 28 2 21 22 -8 19 -23 19 -31 0z"/>
<path d="M530 1870 c0 -5 4 -10 9 -10 6 0 13 5 16 10 3 6 -1 10 -9 10 -9 0
-16 -4 -16 -10z"/>
<path d="M765 1890 c-8 -14 3 -30 21 -30 8 0 14 9 14 20 0 21 -24 28 -35 10z"/>
<path d="M1550 1880 c0 -11 7 -20 15 -20 8 0 15 9 15 20 0 11 -7 20 -15 20 -8
0 -15 -9 -15 -20z"/>
<path d="M2648 1893 c7 -3 16 -2 19 1 4 3 -2 6 -13 5 -11 0 -14 -3 -6 -6z"/>
<path d="M2640 1870 c0 -5 4 -10 9 -10 6 0 13 5 16 10 3 6 -1 10 -9 10 -9 0
-16 -4 -16 -10z"/>
<path d="M2886 1885 c4 -8 7 -15 9 -15 2 0 5 7 9 15 3 9 0 15 -9 15 -9 0 -12
-6 -9 -15z"/>
<path d="M3116 1885 c-3 -9 1 -18 10 -22 19 -7 28 2 21 22 -8 19 -23 19 -31 0z"/>
<path d="M3190 1870 c0 -5 4 -10 9 -10 6 0 13 5 16 10 3 6 -1 10 -9 10 -9 0
-16 -4 -16 -10z"/>
<path d="M3580 1880 c0 -11 7 -20 15 -20 8 0 15 9 15 20 0 11 -7 20 -15 20 -8
0 -15 -9 -15 -20z"/>
<path d="M3978 1893 c7 -3 16 -2 19 1 4 3 -2 6 -13 5 -11 0 -14 -3 -6 -6z"/>
<path d="M4130 1880 c0 -19 11 -26 23 -14 8 8 -3 34 -14 34 -5 0 -9 -9 -9 -20z"/>
<path d="M4290 1890 c0 -5 5 -10 10 -10 6 0 10 5 10 10 0 6 -4 10 -10 10 -5 0
-10 -4 -10 -10z"/>
<path d="M4368 1893 c7 -3 16 -2 19 1 4 3 -2 6 -13 5 -11 0 -14 -3 -6 -6z"/>
<path d="M5535 1891 c-8 -15 3 -31 21 -31 9 0 14 7 12 17 -4 20 -24 28 -33 14z"/>
<path d="M5582 1880 c0 -14 2 -19 5 -12 2 6 2 18 0 25 -3 6 -5 1 -5 -13z"/>
<path d="M5612 1880 c0 -14 2 -19 5 -12 2 6 2 18 0 25 -3 6 -5 1 -5 -13z"/>
<path d="M5642 1880 c0 -14 2 -19 5 -12 2 6 2 18 0 25 -3 6 -5 1 -5 -13z"/>
<path d="M5662 1880 c0 -14 2 -19 5 -12 2 6 2 18 0 25 -3 6 -5 1 -5 -13z"/>
<path d="M5694 1889 c-10 -17 13 -36 27 -22 12 12 4 33 -11 33 -5 0 -12 -5
-16 -11z"/>
<path d="M5770 1870 c0 -5 5 -10 10 -10 6 0 10 5 10 10 0 6 -4 10 -10 10 -5 0
-10 -4 -10 -10z"/>
<path d="M6010 1880 c0 -11 5 -20 10 -20 6 0 10 9 10 20 0 11 -4 20 -10 20 -5
0 -10 -9 -10 -20z"/>
<path d="M6080 1880 c0 -13 5 -20 13 -17 6 2 12 10 12 17 0 7 -6 15 -12 18 -8
2 -13 -5 -13 -18z"/>
<path d="M228 1743 c7 -3 16 -2 19 1 4 3 -2 6 -13 5 -11 0 -14 -3 -6 -6z"/>
<path d="M302 1730 c0 -14 2 -19 5 -12 2 6 2 18 0 25 -3 6 -5 1 -5 -13z"/>
<path d="M325 1737 c-4 -10 -5 -21 -1 -24 10 -10 18 4 13 24 -4 17 -4 17 -12
0z"/>
<path d="M850 1720 c0 -5 5 -10 10 -10 6 0 10 5 10 10 0 6 -4 10 -10 10 -5 0
-10 -4 -10 -10z"/>
<path d="M1006 1743 c-12 -12 -6 -33 9 -33 8 0 15 6 15 14 0 17 -14 28 -24 19z"/>
<path d="M1166 1735 c4 -8 7 -15 9 -15 2 0 5 7 9 15 3 9 0 15 -9 15 -9 0 -12
-6 -9 -15z"/>
<path d="M1320 1730 c0 -11 5 -20 10 -20 6 0 10 9 10 20 0 11 -4 20 -10 20 -5
0 -10 -9 -10 -20z"/>
<path d="M1558 1743 c7 -3 16 -2 19 1 4 3 -2 6 -13 5 -11 0 -14 -3 -6 -6z"/>
<path d="M65 1441 c-8 -15 3 -31 21 -31 9 0 14 7 12 17 -4 20 -24 28 -33 14z"/>
<path d="M146 1435 c-3 -9 1 -18 10 -22 19 -7 28 2 21 22 -8 19 -23 19 -31 0z"/>
<path d="M375 1440 c-8 -14 3 -30 21 -30 8 0 14 9 14 20 0 21 -24 28 -35 10z"/>
<path d="M460 1430 c0 -11 5 -20 10 -20 6 0 10 9 10 20 0 11 -4 20 -10 20 -5
0 -10 -9 -10 -20z"/>
<path d="M530 1420 c0 -5 4 -10 9 -10 6 0 13 5 16 10 3 6 -1 10 -9 10 -9 0
-16 -4 -16 -10z"/>
<path d="M770 1420 c0 -5 5 -10 10 -10 6 0 10 5 10 10 0 6 -4 10 -10 10 -5 0
-10 -4 -10 -10z"/>
<path d="M925 1440 c-7 -12 2 -30 16 -30 12 0 12 27 0 35 -5 3 -12 1 -16 -5z"/>
<path d="M1052 1430 c0 -14 2 -19 5 -12 2 6 2 18 0 25 -3 6 -5 1 -5 -13z"/>
<path d="M1082 1430 c0 -14 2 -19 5 -12 2 6 2 18 0 25 -3 6 -5 1 -5 -13z"/>
<path d="M1105 1437 c-4 -10 -5 -21 -1 -24 10 -10 18 4 13 24 -4 17 -4 17 -12
0z"/>
<path d="M1168 1443 c7 -3 16 -2 19 1 4 3 -2 6 -13 5 -11 0 -14 -3 -6 -6z"/>
<path d="M3890 1281 c0 -12 6 -21 16 -21 9 0 14 7 12 17 -5 25 -28 28 -28 4z"/>
<path d="M930 1281 c0 -12 6 -21 16 -21 9 0 14 7 12 17 -5 25 -28 28 -28 4z"/>
<path d="M2095 1290 c-8 -14 3 -30 21 -30 8 0 14 9 14 20 0 21 -24 28 -35 10z"/>
<path d="M2808 1293 c7 -3 16 -2 19 1 4 3 -2 6 -13 5 -11 0 -14 -3 -6 -6z"/>
<path d="M2960 1281 c0 -12 6 -21 16 -21 9 0 14 7 12 17 -5 25 -28 28 -28 4z"/>
<path d="M3112 1280 c0 -14 2 -19 5 -12 2 6 2 18 0 25 -3 6 -5 1 -5 -13z"/>
<path d="M3142 1280 c0 -14 2 -19 5 -12 2 6 2 18 0 25 -3 6 -5 1 -5 -13z"/>
<path d="M3198 1293 c7 -3 16 -2 19 1 4 3 -2 6 -13 5 -11 0 -14 -3 -6 -6z"/>
<path d="M3420 1270 c0 -5 4 -10 9 -10 6 0 13 5 16 10 3 6 -1 10 -9 10 -9 0
-16 -4 -16 -10z"/>
<path d="M3506 1293 c-12 -12 -6 -33 9 -33 8 0 15 6 15 14 0 17 -14 28 -24 19z"/>
<path d="M3588 1293 c7 -3 16 -2 19 1 4 3 -2 6 -13 5 -11 0 -14 -3 -6 -6z"/>
<path d="M3820 1280 c0 -11 5 -20 10 -20 6 0 10 9 10 20 0 11 -4 20 -10 20 -5
0 -10 -9 -10 -20z"/>
<path d="M3740 1270 c0 -5 5 -10 10 -10 6 0 10 5 10 10 0 6 -4 10 -10 10 -5 0
-10 -4 -10 -10z"/>
<path d="M4058 1293 c7 -3 16 -2 19 1 4 3 -2 6 -13 5 -11 0 -14 -3 -6 -6z"/>
<path d="M1002 1143 c4 -39 28 -42 28 -4 0 21 -5 31 -16 31 -11 0 -14 -8 -12
-27z"/>
<path d="M1080 1155 c0 -9 5 -15 11 -13 6 2 11 8 11 13 0 5 -5 11 -11 13 -6 2
-11 -4 -11 -13z"/>
<path d="M2410 1140 c0 -20 5 -30 15 -30 10 0 15 10 15 30 0 20 -5 30 -15 30
-10 0 -15 -10 -15 -30z"/>
<path d="M2490 1155 c0 -9 5 -15 11 -13 6 2 11 8 11 13 0 5 -5 11 -11 13 -6 2
-11 -4 -11 -13z"/>
<path d="M530 1120 c0 -5 4 -10 9 -10 6 0 13 5 16 10 3 6 -1 10 -9 10 -9 0
-16 -4 -16 -10z"/>
<path d="M690 1130 c0 -13 5 -20 13 -17 6 2 12 10 12 17 0 7 -6 15 -12 18 -8
2 -13 -5 -13 -18z"/>
<path d="M1940 1120 c0 -5 4 -10 9 -10 6 0 13 5 16 10 3 6 -1 10 -9 10 -9 0
-16 -4 -16 -10z"/>
<path d="M2100 1130 c0 -19 11 -26 23 -14 8 8 -3 34 -14 34 -5 0 -9 -9 -9 -20z"/>
<path d="M3040 990 c0 -32 14 -40 24 -14 10 27 7 44 -9 44 -10 0 -15 -10 -15
-30z"/>
<path d="M3120 1005 c0 -8 5 -15 10 -15 6 0 10 7 10 15 0 8 -4 15 -10 15 -5 0
-10 -7 -10 -15z"/>
<path d="M3974 989 c-10 -17 13 -36 27 -22 12 12 4 33 -11 33 -5 0 -12 -5 -16
-11z"/>
<path d="M2330 980 c0 -13 5 -20 13 -17 6 2 12 10 12 17 0 7 -6 15 -12 18 -8
2 -13 -5 -13 -18z"/>
<path d="M2410 980 c0 -11 7 -20 15 -20 8 0 15 9 15 20 0 11 -7 20 -15 20 -8
0 -15 -9 -15 -20z"/>
<path d="M3345 990 c-8 -14 3 -30 21 -30 8 0 14 9 14 20 0 21 -24 28 -35 10z"/>
<path d="M3897 994 c-14 -14 -7 -35 11 -32 9 2 17 10 17 17 0 16 -18 25 -28
15z"/>
<path d="M4446 985 c4 -8 7 -15 9 -15 2 0 5 7 9 15 3 9 0 15 -9 15 -9 0 -12
-6 -9 -15z"/>
<path d="M453 854 c-10 -26 5 -43 37 -41 25 2 30 6 30 27 0 21 -5 25 -31 26
-18 1 -33 -5 -36 -12z"/>
<path d="M2326 855 c-10 -27 5 -44 35 -42 24 2 29 7 29 27 0 20 -5 25 -29 27
-18 1 -31 -4 -35 -12z"/>
<path d="M3355 840 c-7 -12 2 -30 16 -30 5 0 9 9 9 20 0 21 -15 27 -25 10z"/>
<path d="M3574 839 c-10 -17 13 -36 27 -22 12 12 4 33 -11 33 -5 0 -12 -5 -16
-11z"/>
<path d="M2180 830 c0 -11 5 -20 10 -20 6 0 10 9 10 20 0 11 -4 20 -10 20 -5
0 -10 -9 -10 -20z"/>
<path d="M2100 820 c0 -5 5 -10 10 -10 6 0 10 5 10 10 0 6 -4 10 -10 10 -5 0
-10 -4 -10 -10z"/>
<path d="M2800 820 c0 -5 4 -10 9 -10 6 0 13 5 16 10 3 6 -1 10 -9 10 -9 0
-16 -4 -16 -10z"/>
<path d="M3030 820 c0 -5 4 -10 9 -10 6 0 13 5 16 10 3 6 -1 10 -9 10 -9 0
-16 -4 -16 -10z"/>
<path d="M3198 843 c7 -3 16 -2 19 1 4 3 -2 6 -13 5 -11 0 -14 -3 -6 -6z"/>
<path d="M3668 843 c7 -3 16 -2 19 1 4 3 -2 6 -13 5 -11 0 -14 -3 -6 -6z"/>
<path d="M3810 820 c0 -5 4 -10 9 -10 6 0 13 5 16 10 3 6 -1 10 -9 10 -9 0
-16 -4 -16 -10z"/>
<path d="M684 689 c-10 -17 13 -36 27 -22 12 12 4 33 -11 33 -5 0 -12 -5 -16
-11z"/>
<path d="M2720 681 c0 -12 6 -21 16 -21 9 0 14 7 12 17 -5 25 -28 28 -28 4z"/>
<path d="M535 691 c-8 -15 3 -31 21 -31 9 0 14 7 12 17 -4 20 -24 28 -33 14z"/>
<path d="M2257 694 c-14 -14 -7 -35 11 -32 9 2 17 10 17 17 0 16 -18 25 -28
15z"/>
<path d="M2302 680 c0 -14 2 -19 5 -12 2 6 2 18 0 25 -3 6 -5 1 -5 -13z"/>
<path d="M2332 680 c0 -14 2 -19 5 -12 2 6 2 18 0 25 -3 6 -5 1 -5 -13z"/>
<path d="M2355 687 c-4 -10 -5 -21 -1 -24 10 -10 18 4 13 24 -4 17 -4 17 -12
0z"/>
<path d="M2565 691 c-8 -15 3 -31 21 -31 9 0 14 7 12 17 -4 20 -24 28 -33 14z"/>
<path d="M1558 543 c7 -3 16 -2 19 1 4 3 -2 6 -13 5 -11 0 -14 -3 -6 -6z"/>
<path d="M2570 380 c0 -11 5 -20 10 -20 6 0 10 9 10 20 0 11 -4 20 -10 20 -5
0 -10 -9 -10 -20z"/>
<path d="M3430 380 c0 -11 5 -20 10 -20 6 0 10 9 10 20 0 11 -4 20 -10 20 -5
0 -10 -9 -10 -20z"/>
<path d="M3890 381 c0 -12 6 -21 16 -21 9 0 14 7 12 17 -5 25 -28 28 -28 4z"/>
<path d="M4287 393 c-13 -12 -7 -33 8 -33 8 0 15 9 15 20 0 20 -11 26 -23 13z"/>
<path d="M5375 390 c-8 -14 3 -30 21 -30 8 0 14 9 14 20 0 21 -24 28 -35 10z"/>
<path d="M5457 393 c-13 -12 -7 -33 8 -33 8 0 15 9 15 20 0 20 -11 26 -23 13z"/>
<path d="M2258 393 c7 -3 16 -2 19 1 4 3 -2 6 -13 5 -11 0 -14 -3 -6 -6z"/>
<path d="M2648 393 c7 -3 16 -2 19 1 4 3 -2 6 -13 5 -11 0 -14 -3 -6 -6z"/>
<path d="M2800 380 c0 -11 7 -20 15 -20 8 0 15 9 15 20 0 11 -7 20 -15 20 -8
0 -15 -9 -15 -20z"/>
<path d="M3040 381 c0 -12 6 -21 16 -21 9 0 14 7 12 17 -5 25 -28 28 -28 4z"/>
<path d="M3978 393 c7 -3 16 -2 19 1 4 3 -2 6 -13 5 -11 0 -14 -3 -6 -6z"/>
<path d="M4205 391 c-8 -15 3 -31 21 -31 9 0 14 7 12 17 -4 20 -24 28 -33 14z"/>
<path d="M4368 393 c7 -3 16 -2 19 1 4 3 -2 6 -13 5 -11 0 -14 -3 -6 -6z"/>
<path d="M5065 391 c-8 -15 3 -31 21 -31 9 0 14 7 12 17 -4 20 -24 28 -33 14z"/>
<path d="M5690 380 c0 -11 7 -20 15 -20 8 0 15 9 15 20 0 11 -7 20 -15 20 -8
0 -15 -9 -15 -20z"/>
<path d="M306 235 c4 -8 7 -15 9 -15 2 0 5 7 9 15 3 9 0 15 -9 15 -9 0 -12 -6
-9 -15z"/>
<path d="M618 243 c7 -3 16 -2 19 1 4 3 -2 6 -13 5 -11 0 -14 -3 -6 -6z"/>
<path d="M610 220 c0 -5 4 -10 9 -10 6 0 13 5 16 10 3 6 -1 10 -9 10 -9 0 -16
-4 -16 -10z"/>
<path d="M1240 220 c0 -5 5 -10 10 -10 6 0 10 5 10 10 0 6 -4 10 -10 10 -5 0
-10 -4 -10 -10z"/>
<path d="M1478 243 c7 -3 16 -2 19 1 4 3 -2 6 -13 5 -11 0 -14 -3 -6 -6z"/>
<path d="M2416 235 c4 -8 7 -15 9 -15 2 0 5 7 9 15 3 9 0 15 -9 15 -9 0 -12
-6 -9 -15z"/>
<path d="M2490 220 c0 -5 5 -10 10 -10 6 0 10 5 10 10 0 6 -4 10 -10 10 -5 0
-10 -4 -10 -10z"/>
<path d="M2728 243 c7 -3 16 -2 19 1 4 3 -2 6 -13 5 -11 0 -14 -3 -6 -6z"/>
<path d="M3118 243 c7 -3 16 -2 19 1 4 3 -2 6 -13 5 -11 0 -14 -3 -6 -6z"/>
<path d="M3110 220 c0 -5 4 -10 9 -10 6 0 13 5 16 10 3 6 -1 10 -9 10 -9 0
-16 -4 -16 -10z"/>
<path d="M3740 220 c0 -5 5 -10 10 -10 6 0 10 5 10 10 0 6 -4 10 -10 10 -5 0
-10 -4 -10 -10z"/>
<path d="M3978 243 c7 -3 16 -2 19 1 4 3 -2 6 -13 5 -11 0 -14 -3 -6 -6z"/>
<path d="M2020 70 c0 -5 5 -10 10 -10 6 0 10 5 10 10 0 6 -4 10 -10 10 -5 0
-10 -4 -10 -10z"/>
<path d="M2258 93 c7 -3 16 -2 19 1 4 3 -2 6 -13 5 -11 0 -14 -3 -6 -6z"/>
<path d="M2565 91 c-8 -15 3 -31 21 -31 9 0 14 7 12 17 -4 20 -24 28 -33 14z"/>
<path d="M3588 93 c7 -3 16 -2 19 1 4 3 -2 6 -13 5 -11 0 -14 -3 -6 -6z"/>
<path d="M3820 81 c0 -12 6 -21 16 -21 9 0 14 7 12 17 -5 25 -28 28 -28 4z"/>
<path d="M3898 93 c7 -3 16 -2 19 1 4 3 -2 6 -13 5 -11 0 -14 -3 -6 -6z"/>
<path d="M3890 70 c0 -5 4 -10 9 -10 6 0 13 5 16 10 3 6 -1 10 -9 10 -9 0 -16
-4 -16 -10z"/>
<path d="M4125 87 c-4 -10 -5 -21 -1 -24 10 -10 18 4 13 24 -4 17 -4 17 -12 0z"/>
<path d="M4151 74 c0 -11 3 -14 6 -6 3 7 2 16 -1 19 -3 4 -6 -2 -5 -13z"/>
<path d="M4050 70 c0 -5 4 -10 9 -10 6 0 13 5 16 10 3 6 -1 10 -9 10 -9 0 -16
-4 -16 -10z"/>
<path d="M4368 93 c7 -3 16 -2 19 1 4 3 -2 6 -13 5 -11 0 -14 -3 -6 -6z"/>
</g>
</svg>
