<?xml version="1.0" standalone="no"?>
<!DOCTYPE svg PUBLIC "-//W3C//DTD SVG 20010904//EN"
 "http://www.w3.org/TR/2001/REC-SVG-20010904/DTD/svg10.dtd">
<svg version="1.0" xmlns="http://www.w3.org/2000/svg"
 width="552.000000pt" height="153.000000pt" viewBox="0 0 552.000000 153.000000"
 preserveAspectRatio="xMidYMid meet">

<g transform="translate(0.000000,153.000000) scale(0.100000,-0.100000)"
fill="#000000" stroke="none">
<path d="M0 765 l0 -765 2760 0 2760 0 0 765 0 765 -2760 0 -2760 0 0 -765z
m2820 -485 c0 -5 13 -10 29 -10 24 0 29 -5 33 -30 4 -28 3 -30 -29 -30 -39 0
-46 25 -10 40 19 7 17 9 -17 9 -36 1 -38 -1 -34 -24 4 -19 1 -25 -11 -25 -13
0 -16 8 -14 38 2 20 0 31 -3 25 -8 -18 -24 -16 -24 2 0 11 11 15 40 15 22 0
40 -4 40 -10z m350 0 c0 -5 8 -11 18 -11 16 -1 16 -2 0 -6 -10 -2 -18 -13 -18
-23 0 -14 5 -17 22 -12 14 3 19 2 14 -6 -4 -7 -18 -12 -32 -12 -19 0 -24 5
-24 25 0 14 -5 25 -10 25 -6 0 -5 6 2 15 15 17 28 19 28 5z m-49 -26 c9 -11 5
-14 -20 -14 -19 0 -30 -4 -26 -10 3 -6 18 -7 33 -4 21 5 24 4 16 -5 -20 -22
-67 -9 -75 19 -6 23 -6 22 -10 -10 -4 -31 -8 -35 -34 -37 -29 -2 -29 -2 -5 7
l25 8 -23 1 c-15 1 -26 9 -29 21 -6 22 -28 27 -39 9 -3 -6 0 -15 7 -20 11 -7
9 -9 -7 -9 -16 0 -23 7 -26 30 l-4 29 103 -1 c73 -1 106 -5 114 -14z m-2970
-151 c-5 -32 -10 -38 -31 -38 -21 0 -26 6 -31 38 l-6 37 37 0 37 0 -6 -37z
m689 14 c12 -4 11 -6 -2 -6 -11 -1 -18 -9 -18 -22 0 -16 4 -19 21 -14 15 5 19
4 15 -4 -4 -6 -16 -11 -27 -11 -14 0 -19 7 -19 25 0 14 -5 25 -10 25 -6 0 -5
6 2 14 7 8 15 10 18 6 3 -4 12 -10 20 -13z m50 14 c0 -5 8 -11 19 -14 21 -5
36 -57 16 -57 -8 0 -10 9 -7 25 3 19 0 25 -13 25 -13 0 -16 -6 -13 -25 3 -16
1 -25 -7 -25 -8 0 -14 17 -17 40 -2 28 0 40 9 40 7 0 13 -4 13 -9z m363 -3
c15 -7 27 -19 27 -25 0 -7 5 -13 10 -13 6 0 10 7 10 15 0 8 7 15 16 15 13 0
13 -5 -5 -33 -11 -19 -18 -37 -14 -40 3 -4 -7 -6 -23 -6 -17 1 -22 3 -11 6 20
5 21 16 7 44 -10 18 -19 17 -60 -9 -2 -2 2 -7 10 -12 12 -8 9 -10 -10 -10 -23
0 -25 4 -25 40 0 34 3 40 21 40 11 0 32 -6 47 -12z m147 2 c0 -5 17 -10 39
-10 36 0 39 -2 43 -31 4 -28 3 -30 -26 -27 -23 2 -32 9 -34 26 -2 12 -10 22
-18 22 -8 0 -14 5 -14 10 0 6 -7 10 -15 10 -8 0 -15 -5 -15 -11 0 -5 5 -7 10
-4 6 3 10 -1 10 -10 0 -9 -4 -13 -10 -10 -5 3 -10 0 -10 -9 0 -8 6 -17 13 -19
6 -3 3 -6 -8 -6 -17 -1 -20 5 -20 39 0 37 2 40 28 40 15 0 27 -4 27 -10z m820
1 c0 -5 8 -11 19 -14 10 -2 20 -16 23 -31 5 -24 3 -26 -31 -26 -35 0 -36 1
-36 40 0 25 5 40 13 40 6 0 12 -4 12 -9z m-1990 -21 c0 -6 -12 -8 -27 -5 l-28
5 28 -11 c15 -6 26 -16 24 -22 -4 -15 -57 -22 -57 -9 0 6 10 8 23 5 21 -4 21
-4 2 8 -28 17 -28 16 -20 28 8 14 55 14 55 1z m72 -21 c4 -28 3 -30 -26 -27
-38 4 -42 31 -6 37 l25 4 -25 8 -25 7 26 1 c22 1 27 -4 31 -30z m159 15 c9
-11 6 -14 -20 -14 -21 0 -30 -4 -25 -11 3 -6 17 -8 33 -4 19 5 23 4 15 -5 -19
-19 -59 -8 -62 18 -5 33 -20 27 -24 -10 -2 -27 -8 -33 -28 -35 l-25 -2 25 8
c24 9 24 9 2 10 -24 1 -38 22 -28 46 7 20 120 19 137 -1z m59 6 c0 -5 -4 -10
-10 -10 -5 0 -10 5 -10 10 0 6 5 10 10 10 6 0 10 -4 10 -10z m217 0 c-1 -4 3
-8 8 -8 6 0 9 4 8 9 -2 5 3 9 11 9 12 0 12 -7 -2 -40 -14 -32 -22 -40 -42 -39
-17 1 -19 3 -7 6 20 5 21 16 5 46 l-12 22 -6 -25 c-4 -16 -14 -26 -30 -28 -18
-3 -20 -6 -9 -13 11 -7 10 -9 -6 -9 -17 0 -20 7 -20 40 l0 39 52 0 c29 -1 51
-5 50 -9z m268 -20 c0 -18 -6 -26 -23 -28 -24 -4 -38 18 -28 44 3 9 15 14 28
12 17 -2 23 -10 23 -28z m86 -2 c7 -27 6 -28 -29 -28 -35 0 -37 2 -37 30 0 28
3 31 29 28 23 -2 31 -9 37 -30z m448 6 l-24 -26 23 6 c13 5 22 3 22 -3 0 -6
-13 -11 -30 -11 -35 0 -37 6 -12 33 16 19 16 20 0 14 -10 -4 -18 -2 -18 3 0 6
14 10 32 10 l31 0 -24 -26z m91 19 c0 -3 -8 -15 -17 -26 -17 -19 -17 -20 0
-14 9 4 17 2 17 -3 0 -6 -11 -10 -25 -10 -30 0 -31 7 -7 33 16 19 16 20 0 14
-10 -4 -18 -2 -18 3 0 6 11 10 25 10 14 0 25 -3 25 -7z m80 -8 c11 -13 8 -15
-19 -15 -21 0 -30 -4 -25 -11 3 -6 17 -8 31 -4 16 4 22 2 18 -5 -10 -15 -55
-12 -61 5 -9 23 3 45 24 45 11 0 25 -7 32 -15z m80 5 c0 -5 -6 -9 -12 -7 -8 1
-13 -8 -12 -20 1 -34 -23 -28 -28 7 -4 27 -2 30 24 30 15 0 28 -5 28 -10z
m197 0 c-1 -4 3 -8 8 -8 6 0 9 4 8 9 -2 5 3 9 11 9 12 0 12 -7 -2 -40 -14 -32
-22 -40 -42 -39 -17 1 -19 3 -7 6 20 5 21 16 5 46 l-12 22 -6 -25 c-4 -16 -14
-26 -30 -28 -18 -3 -20 -6 -9 -13 11 -7 10 -9 -6 -9 -17 0 -20 7 -20 40 l0 39
52 0 c29 -1 51 -5 50 -9z m181 -17 c-10 -2 -26 -2 -35 0 -10 3 -2 5 17 5 19 0
27 -2 18 -5z m-1648 -23 c0 -5 -4 -10 -10 -10 -5 0 -10 5 -10 10 0 6 5 10 10
10 6 0 10 -4 10 -10z m1330 0 c0 -5 -4 -10 -10 -10 -5 0 -10 5 -10 10 0 6 5
10 10 10 6 0 10 -4 10 -10z"/>
<path d="M2840 230 c0 -5 5 -10 10 -10 6 0 10 5 10 10 0 6 -4 10 -10 10 -5 0
-10 -4 -10 -10z"/>
<path d="M2995 250 c-4 -6 -3 -16 3 -22 6 -6 12 -6 17 2 4 6 3 16 -3 22 -6 6
-12 6 -17 -2z"/>
<path d="M102 103 c4 -39 28 -42 28 -4 0 21 -5 31 -16 31 -11 0 -14 -8 -12
-27z"/>
<path d="M1210 115 c0 -9 5 -15 11 -13 6 2 11 8 11 13 0 5 -5 11 -11 13 -6 2
-11 -4 -11 -13z"/>
<path d="M1440 90 c0 -11 5 -20 10 -20 6 0 10 9 10 20 0 11 -4 20 -10 20 -5 0
-10 -9 -10 -20z"/>
<path d="M2220 90 c0 -11 5 -20 10 -20 6 0 10 9 10 20 0 11 -4 20 -10 20 -5 0
-10 -9 -10 -20z"/>
<path d="M260 80 c0 -5 4 -10 9 -10 6 0 13 5 16 10 3 6 -1 10 -9 10 -9 0 -16
-4 -16 -10z"/>
<path d="M334 99 c-10 -17 13 -36 27 -22 12 12 4 33 -11 33 -5 0 -12 -5 -16
-11z"/>
<path d="M428 103 c7 -3 16 -2 19 1 4 3 -2 6 -13 5 -11 0 -14 -3 -6 -6z"/>
<path d="M654 99 c-10 -17 13 -36 27 -22 12 12 4 33 -11 33 -5 0 -12 -5 -16
-11z"/>
<path d="M964 99 c-10 -17 13 -36 27 -22 12 12 4 33 -11 33 -5 0 -12 -5 -16
-11z"/>
<path d="M1050 90 c0 -11 5 -20 10 -20 6 0 10 9 10 20 0 11 -4 20 -10 20 -5 0
-10 -9 -10 -20z"/>
<path d="M1678 103 c7 -3 16 -2 19 1 4 3 -2 6 -13 5 -11 0 -14 -3 -6 -6z"/>
<path d="M1904 99 c-10 -17 13 -36 27 -22 12 12 4 33 -11 33 -5 0 -12 -5 -16
-11z"/>
</g>
</svg>
